G75*
%MOIN*%
%OFA0B0*%
%FSLAX24Y24*%
%IPPOS*%
%LPD*%
%AMOC8*
5,1,8,0,0,1.08239X$1,22.5*
%
%ADD10C,0.0434*%
%ADD11R,0.0513X0.0474*%
%ADD12R,0.0237X0.0611*%
%ADD13R,0.0671X0.0828*%
%ADD14C,0.0316*%
%ADD15C,0.0517*%
%ADD16R,0.0552X0.0552*%
%ADD17R,0.0552X0.0356*%
%ADD18R,0.0356X0.0552*%
%ADD19R,0.1025X0.0828*%
%ADD20R,0.0336X0.0572*%
%ADD21R,0.0474X0.0513*%
%ADD22R,0.0395X0.0395*%
%ADD23R,0.0513X0.0631*%
%ADD24R,0.0946X0.0493*%
%ADD25R,0.0493X0.0474*%
%ADD26R,0.0474X0.0671*%
%ADD27C,0.0770*%
%ADD28R,0.0395X0.0198*%
%ADD29R,0.0198X0.0395*%
%ADD30R,0.0434X0.0356*%
%ADD31R,0.0356X0.0434*%
%ADD32C,0.0720*%
%ADD33C,0.0438*%
%ADD34R,0.1130X0.0980*%
%ADD35R,0.0380X0.0580*%
D10*
X004153Y017045D03*
X006338Y017050D03*
D11*
X006268Y015455D03*
X006268Y014785D03*
X006523Y013090D03*
X007192Y013090D03*
X004193Y014805D03*
X004193Y015475D03*
X003927Y013090D03*
X003258Y013090D03*
X006948Y001540D03*
X007617Y001540D03*
D12*
X005755Y015987D03*
X005499Y015987D03*
X005243Y015987D03*
X004987Y015987D03*
X004731Y015987D03*
D13*
X004849Y017036D03*
X005637Y017040D03*
D14*
X006011Y016213D03*
X004475Y016213D03*
D15*
X004150Y016822D02*
X004150Y017258D01*
X006335Y017258D02*
X006335Y016822D01*
D16*
X007546Y012383D03*
X007546Y006674D03*
X002940Y006674D03*
X002940Y012383D03*
D17*
X002940Y011654D03*
X002940Y011182D03*
X002940Y010709D03*
X002940Y010237D03*
X002940Y009764D03*
X002940Y009292D03*
X002940Y008820D03*
X002940Y008347D03*
X002940Y007875D03*
X002940Y007402D03*
X007546Y007402D03*
X007546Y007875D03*
X007546Y008347D03*
X007546Y008820D03*
X007546Y009292D03*
X007546Y009764D03*
X007546Y010237D03*
X007546Y010709D03*
X007546Y011182D03*
X007546Y011654D03*
D18*
X006896Y012383D03*
X006424Y012383D03*
X005951Y012383D03*
X005479Y012383D03*
X005007Y012383D03*
X004534Y012383D03*
X004062Y012383D03*
X003589Y012383D03*
X003589Y006674D03*
X004062Y006674D03*
X004534Y006674D03*
X005007Y006674D03*
X005479Y006674D03*
X005951Y006674D03*
X006424Y006674D03*
X006896Y006674D03*
D19*
X006089Y008111D03*
X006089Y009528D03*
X006089Y010946D03*
X004396Y010946D03*
X004396Y009528D03*
X004396Y008111D03*
D20*
X003548Y013952D03*
X002938Y013952D03*
X002938Y015428D03*
X003548Y015428D03*
X006943Y015403D03*
X007553Y015403D03*
X007553Y013927D03*
X006943Y013927D03*
D21*
X005577Y013090D03*
X004908Y013090D03*
X003427Y016210D03*
X002758Y016210D03*
X006898Y003125D03*
X006898Y002455D03*
D22*
X007388Y017195D03*
X007978Y017195D03*
D23*
X005597Y014911D03*
X004888Y014911D03*
X004888Y013769D03*
X005597Y013769D03*
D24*
X007603Y005306D03*
X007603Y004144D03*
D25*
X007001Y004725D03*
D26*
X006938Y000530D03*
X003788Y000530D03*
D27*
X001743Y005040D03*
X001743Y006040D03*
X001743Y007040D03*
X001743Y008040D03*
X001743Y009040D03*
X001743Y010040D03*
X001743Y011040D03*
X001743Y012040D03*
X001743Y013040D03*
X001743Y014040D03*
X001743Y015040D03*
X001743Y016040D03*
X008743Y016040D03*
X008743Y015040D03*
X008743Y014040D03*
X008743Y013040D03*
X008743Y012040D03*
X008743Y011040D03*
X008743Y010040D03*
X008743Y009040D03*
X008743Y008040D03*
X008743Y007040D03*
X008743Y006040D03*
X008743Y005040D03*
D28*
X004725Y003462D03*
X004725Y003265D03*
X004725Y003068D03*
X004725Y002872D03*
X004725Y002675D03*
X004725Y002478D03*
X003150Y002478D03*
X003150Y002675D03*
X003150Y002872D03*
X003150Y003068D03*
X003150Y003265D03*
X003150Y003462D03*
D29*
X003446Y003757D03*
X003643Y003757D03*
X003839Y003757D03*
X004036Y003757D03*
X004233Y003757D03*
X004430Y003757D03*
X004430Y002183D03*
X004233Y002183D03*
X004036Y002183D03*
X003839Y002183D03*
X003643Y002183D03*
X003446Y002183D03*
D30*
X005438Y002669D03*
X005438Y003181D03*
X006163Y003191D03*
X006163Y002679D03*
D31*
X006094Y003720D03*
X006094Y004220D03*
X005582Y004220D03*
X005582Y003720D03*
X004744Y004170D03*
X004232Y004170D03*
X004882Y002070D03*
X005394Y002070D03*
X004334Y001600D03*
X003822Y001600D03*
D32*
X001743Y002040D03*
X001743Y003040D03*
X001743Y004040D03*
D33*
X007615Y003560D03*
X007617Y002911D03*
X007617Y002261D03*
X008539Y002261D03*
X008539Y002911D03*
X008539Y003560D03*
D34*
X002363Y017120D03*
D35*
X003288Y017120D03*
M02*
