G75*
%MOIN*%
%OFA0B0*%
%FSLAX24Y24*%
%IPPOS*%
%LPD*%
%AMOC8*
5,1,8,0,0,1.08239X$1,22.5*
%
%ADD10C,0.0080*%
%ADD11C,0.0050*%
%ADD12C,0.0040*%
%ADD13C,0.0000*%
%ADD14C,0.0020*%
%ADD15C,0.0079*%
%ADD16R,0.0157X0.0157*%
%ADD17R,0.0157X0.0394*%
%ADD18C,0.0160*%
%ADD19R,0.0160X0.0280*%
%ADD20R,0.0280X0.0160*%
%ADD21C,0.0060*%
%ADD22C,0.0020*%
%ADD23R,0.0100X0.1000*%
D10*
X001293Y000140D02*
X009243Y000140D01*
X009238Y017675D01*
X001238Y017675D01*
X001293Y000140D01*
X003150Y002183D02*
X003150Y002320D01*
X003150Y002183D02*
X003288Y002183D01*
X003150Y003620D02*
X003288Y003757D01*
X002243Y004790D02*
X001993Y004540D01*
X001493Y004540D01*
X001243Y004790D01*
X001243Y005290D01*
X001493Y005540D01*
X001243Y005790D01*
X001243Y006290D01*
X001493Y006540D01*
X001243Y006790D01*
X001243Y007290D01*
X001493Y007540D01*
X001243Y007790D01*
X001243Y008290D01*
X001493Y008540D01*
X001243Y008790D01*
X001243Y009290D01*
X001493Y009540D01*
X001243Y009790D01*
X001243Y010290D01*
X001493Y010540D01*
X001243Y010790D01*
X001243Y011290D01*
X001493Y011540D01*
X001243Y011790D01*
X001243Y012290D01*
X001493Y012540D01*
X001243Y012790D01*
X001243Y013290D01*
X001493Y013540D01*
X001243Y013790D01*
X001243Y014290D01*
X001493Y014540D01*
X001243Y014790D01*
X001243Y015290D01*
X001493Y015540D01*
X001243Y015790D01*
X001243Y016290D01*
X001493Y016540D01*
X001993Y016540D01*
X002243Y016290D01*
X002243Y015790D01*
X001993Y015540D01*
X002243Y015290D01*
X002243Y014790D01*
X001993Y014540D01*
X002243Y014290D01*
X002243Y013790D01*
X001993Y013540D01*
X002243Y013290D01*
X002243Y012790D01*
X001993Y012540D01*
X002243Y012290D01*
X002243Y011790D01*
X001993Y011540D01*
X002243Y011290D01*
X002243Y010790D01*
X001993Y010540D01*
X002243Y010290D01*
X002243Y009790D01*
X001993Y009540D01*
X002243Y009290D01*
X002243Y008790D01*
X001993Y008540D01*
X002243Y008290D01*
X002243Y007790D01*
X001993Y007540D01*
X002243Y007290D01*
X002243Y006790D01*
X001993Y006540D01*
X002243Y006290D01*
X002243Y005790D01*
X001993Y005540D01*
X002243Y005290D01*
X002243Y004790D01*
X004182Y000727D02*
X006544Y000727D01*
X006544Y000333D02*
X004182Y000333D01*
X004587Y002183D02*
X004725Y002183D01*
X004725Y002320D01*
X004725Y003620D02*
X004725Y003757D01*
X004587Y003757D01*
X006758Y002830D02*
X006758Y002750D01*
X007038Y002750D02*
X007038Y002830D01*
X007243Y001680D02*
X007323Y001680D01*
X007323Y001400D02*
X007243Y001400D01*
X008075Y004528D02*
X008075Y004922D01*
X008243Y004790D02*
X008243Y005290D01*
X008493Y005540D01*
X008243Y005790D01*
X008243Y006290D01*
X008493Y006540D01*
X008243Y006790D01*
X008243Y007290D01*
X008493Y007540D01*
X008243Y007790D01*
X008243Y008290D01*
X008493Y008540D01*
X008243Y008790D01*
X008243Y009290D01*
X008493Y009540D01*
X008243Y009790D01*
X008243Y010290D01*
X008493Y010540D01*
X008243Y010790D01*
X008243Y011290D01*
X008493Y011540D01*
X008243Y011790D01*
X008243Y012290D01*
X008493Y012540D01*
X008243Y012790D01*
X008243Y013290D01*
X008493Y013540D01*
X008243Y013790D01*
X008243Y014290D01*
X008493Y014540D01*
X008243Y014790D01*
X008243Y015290D01*
X008493Y015540D01*
X008243Y015790D01*
X008243Y016290D01*
X008493Y016540D01*
X008993Y016540D01*
X009243Y016290D01*
X009243Y015790D01*
X008993Y015540D01*
X009243Y015290D01*
X009243Y014790D01*
X008993Y014540D01*
X009243Y014290D01*
X009243Y013790D01*
X008993Y013540D01*
X009243Y013290D01*
X009243Y012790D01*
X008993Y012540D01*
X009243Y012290D01*
X009243Y011790D01*
X008993Y011540D01*
X009243Y011290D01*
X009243Y010790D01*
X008993Y010540D01*
X009243Y010290D01*
X009243Y009790D01*
X008993Y009540D01*
X009243Y009290D01*
X009243Y008790D01*
X008993Y008540D01*
X009243Y008290D01*
X009243Y007790D01*
X008993Y007540D01*
X009243Y007290D01*
X009243Y006790D01*
X008993Y006540D01*
X009243Y006290D01*
X009243Y005790D01*
X008993Y005540D01*
X009243Y005290D01*
X009243Y004790D01*
X008993Y004540D01*
X008493Y004540D01*
X008243Y004790D01*
X007021Y007410D02*
X007023Y007429D01*
X007028Y007446D01*
X007037Y007463D01*
X007050Y007477D01*
X007064Y007488D01*
X007081Y007496D01*
X007099Y007501D01*
X007118Y007502D01*
X007136Y007499D01*
X007154Y007493D01*
X007169Y007483D01*
X007183Y007470D01*
X007193Y007455D01*
X007201Y007438D01*
X007205Y007419D01*
X007205Y007401D01*
X007201Y007382D01*
X007193Y007365D01*
X007183Y007350D01*
X007169Y007337D01*
X007154Y007327D01*
X007136Y007321D01*
X007118Y007318D01*
X007099Y007319D01*
X007081Y007324D01*
X007064Y007332D01*
X007050Y007343D01*
X007037Y007357D01*
X007028Y007374D01*
X007023Y007391D01*
X007021Y007410D01*
X006898Y012950D02*
X006818Y012950D01*
X006818Y013230D02*
X006898Y013230D01*
X006410Y015060D02*
X006410Y015180D01*
X006126Y015180D02*
X006126Y015060D01*
X006109Y015957D02*
X006109Y016509D01*
X004377Y016509D01*
X004377Y015957D01*
X003904Y015957D01*
X003904Y016587D01*
X003904Y017650D02*
X006581Y017650D01*
X006581Y016587D02*
X006581Y015957D01*
X006109Y015957D01*
X005303Y013232D02*
X005183Y013232D01*
X005183Y012948D02*
X005303Y012948D01*
X004335Y015080D02*
X004335Y015200D01*
X004051Y015200D02*
X004051Y015080D01*
X003153Y016068D02*
X003033Y016068D01*
X003033Y016352D02*
X003153Y016352D01*
X003553Y013230D02*
X003633Y013230D01*
X003633Y012950D02*
X003553Y012950D01*
X007616Y017014D02*
X007616Y017195D01*
X007738Y017287D01*
X007616Y017376D02*
X007616Y017195D01*
X007622Y017185D02*
X007738Y017109D01*
D11*
X008058Y016415D02*
X007968Y016325D01*
X008058Y016235D01*
X008238Y016235D01*
X008193Y016120D02*
X008013Y016120D01*
X007968Y016075D01*
X007968Y015985D01*
X008013Y015940D01*
X008013Y015826D02*
X007968Y015781D01*
X007968Y015691D01*
X008013Y015646D01*
X008013Y015826D02*
X008193Y015826D01*
X008238Y015781D01*
X008238Y015691D01*
X008193Y015646D01*
X008193Y015940D02*
X008238Y015985D01*
X008238Y016075D01*
X008193Y016120D01*
X008238Y016415D02*
X008058Y016415D01*
X008058Y015415D02*
X008058Y015280D01*
X008103Y015235D01*
X008193Y015235D01*
X008238Y015280D01*
X008238Y015415D01*
X007968Y015415D01*
X008058Y015325D02*
X007968Y015235D01*
X008013Y015120D02*
X007968Y015075D01*
X007968Y014985D01*
X008013Y014940D01*
X008058Y014940D01*
X008103Y014985D01*
X008103Y015075D01*
X008148Y015120D01*
X008193Y015120D01*
X008238Y015075D01*
X008238Y014985D01*
X008193Y014940D01*
X008238Y014826D02*
X008238Y014646D01*
X008238Y014736D02*
X007968Y014736D01*
X007637Y013635D02*
X007457Y013635D01*
X007547Y013635D02*
X007547Y013365D01*
X007343Y013410D02*
X007298Y013365D01*
X007207Y013365D01*
X007162Y013410D01*
X007207Y013500D02*
X007298Y013500D01*
X007343Y013455D01*
X007343Y013410D01*
X007207Y013500D02*
X007162Y013545D01*
X007162Y013590D01*
X007207Y013635D01*
X007298Y013635D01*
X007343Y013590D01*
X007048Y013590D02*
X007048Y013500D01*
X007003Y013455D01*
X006868Y013455D01*
X006958Y013455D02*
X007048Y013365D01*
X006868Y013365D02*
X006868Y013635D01*
X007003Y013635D01*
X007048Y013590D01*
X007968Y013370D02*
X007968Y013280D01*
X008013Y013235D01*
X008103Y013235D01*
X008103Y013325D01*
X008193Y013415D02*
X008013Y013415D01*
X007968Y013370D01*
X007968Y013120D02*
X008238Y013120D01*
X007968Y012940D01*
X008238Y012940D01*
X008238Y012826D02*
X008238Y012691D01*
X008193Y012646D01*
X008013Y012646D01*
X007968Y012691D01*
X007968Y012826D01*
X008238Y012826D01*
X008238Y012315D02*
X008238Y012180D01*
X008193Y012135D01*
X008013Y012135D01*
X007968Y012180D01*
X007968Y012315D01*
X008238Y012315D01*
X008238Y012020D02*
X008238Y011840D01*
X008193Y011840D01*
X008013Y012020D01*
X007968Y012020D01*
X007968Y011315D02*
X007968Y011180D01*
X008013Y011135D01*
X008193Y011135D01*
X008238Y011180D01*
X008238Y011315D01*
X007968Y011315D01*
X008013Y011020D02*
X007968Y010975D01*
X007968Y010885D01*
X008013Y010840D01*
X008058Y010840D01*
X008103Y010885D01*
X008103Y011020D01*
X008013Y011020D01*
X008103Y011020D02*
X008193Y010930D01*
X008238Y010840D01*
X008238Y010315D02*
X007968Y010315D01*
X007968Y010180D01*
X008013Y010135D01*
X008193Y010135D01*
X008238Y010180D01*
X008238Y010315D01*
X008238Y010020D02*
X008103Y010020D01*
X008148Y009930D01*
X008148Y009885D01*
X008103Y009840D01*
X008013Y009840D01*
X007968Y009885D01*
X007968Y009975D01*
X008013Y010020D01*
X008238Y010020D02*
X008238Y009840D01*
X008238Y009315D02*
X008238Y009180D01*
X008193Y009135D01*
X008013Y009135D01*
X007968Y009180D01*
X007968Y009315D01*
X008238Y009315D01*
X008103Y009020D02*
X008103Y008840D01*
X008238Y008885D02*
X008103Y009020D01*
X007968Y008885D02*
X008238Y008885D01*
X008238Y008315D02*
X007968Y008315D01*
X007968Y008180D01*
X008013Y008135D01*
X008193Y008135D01*
X008238Y008180D01*
X008238Y008315D01*
X008193Y008020D02*
X008238Y007975D01*
X008238Y007885D01*
X008193Y007840D01*
X008148Y007840D01*
X008103Y007885D01*
X008058Y007840D01*
X008013Y007840D01*
X007968Y007885D01*
X007968Y007975D01*
X008013Y008020D01*
X008103Y007930D02*
X008103Y007885D01*
X008238Y007315D02*
X007968Y007315D01*
X007968Y007180D01*
X008013Y007135D01*
X008193Y007135D01*
X008238Y007180D01*
X008238Y007315D01*
X008193Y007020D02*
X008238Y006975D01*
X008238Y006885D01*
X008193Y006840D01*
X008148Y006840D01*
X007968Y007020D01*
X007968Y006840D01*
X007968Y006215D02*
X007968Y006080D01*
X008013Y006035D01*
X008193Y006035D01*
X008238Y006080D01*
X008238Y006215D01*
X007968Y006215D01*
X007968Y005920D02*
X007968Y005740D01*
X007968Y005830D02*
X008238Y005830D01*
X008148Y005920D01*
X008238Y005315D02*
X007968Y005315D01*
X007968Y005180D01*
X008013Y005135D01*
X008193Y005135D01*
X008238Y005180D01*
X008238Y005315D01*
X008193Y005020D02*
X008013Y005020D01*
X008193Y004840D01*
X008013Y004840D01*
X007968Y004885D01*
X007968Y004975D01*
X008013Y005020D01*
X008193Y005020D02*
X008238Y004975D01*
X008238Y004885D01*
X008193Y004840D01*
X007877Y002407D02*
X007879Y002433D01*
X007885Y002459D01*
X007895Y002484D01*
X007908Y002507D01*
X007924Y002527D01*
X007944Y002545D01*
X007966Y002560D01*
X007989Y002572D01*
X008015Y002580D01*
X008041Y002584D01*
X008067Y002584D01*
X008093Y002580D01*
X008119Y002572D01*
X008143Y002560D01*
X008164Y002545D01*
X008184Y002527D01*
X008200Y002507D01*
X008213Y002484D01*
X008223Y002459D01*
X008229Y002433D01*
X008231Y002407D01*
X008229Y002381D01*
X008223Y002355D01*
X008213Y002330D01*
X008200Y002307D01*
X008184Y002287D01*
X008164Y002269D01*
X008142Y002254D01*
X008119Y002242D01*
X008093Y002234D01*
X008067Y002230D01*
X008041Y002230D01*
X008015Y002234D01*
X007989Y002242D01*
X007965Y002254D01*
X007944Y002269D01*
X007924Y002287D01*
X007908Y002307D01*
X007895Y002330D01*
X007885Y002355D01*
X007879Y002381D01*
X007877Y002407D01*
X002697Y005429D02*
X002633Y005366D01*
X002569Y005366D01*
X002569Y005620D01*
X002697Y005493D01*
X002697Y005429D01*
X002569Y005366D02*
X002442Y005493D01*
X002442Y005557D01*
X002506Y005620D01*
X002569Y005620D01*
X002518Y005865D02*
X002338Y005865D01*
X002248Y005955D01*
X002338Y006045D01*
X002518Y006045D01*
X002518Y006160D02*
X002518Y006340D01*
X002518Y006250D02*
X002248Y006250D01*
X002338Y006160D01*
X002383Y006045D02*
X002383Y005865D01*
X002393Y005380D02*
X002265Y005380D01*
X002265Y005253D01*
X002393Y005125D01*
X002297Y005221D02*
X002425Y005348D01*
X002393Y005380D02*
X002520Y005253D01*
X002518Y006865D02*
X002338Y006865D01*
X002248Y006955D01*
X002338Y007045D01*
X002518Y007045D01*
X002518Y007160D02*
X002338Y007340D01*
X002293Y007340D01*
X002248Y007295D01*
X002248Y007205D01*
X002293Y007160D01*
X002383Y007045D02*
X002383Y006865D01*
X002518Y007160D02*
X002518Y007340D01*
X002518Y007865D02*
X002338Y007865D01*
X002248Y007955D01*
X002338Y008045D01*
X002518Y008045D01*
X002473Y008160D02*
X002518Y008205D01*
X002518Y008295D01*
X002473Y008340D01*
X002428Y008340D01*
X002383Y008295D01*
X002383Y008250D01*
X002383Y008295D02*
X002338Y008340D01*
X002293Y008340D01*
X002248Y008295D01*
X002248Y008205D01*
X002293Y008160D01*
X002383Y008045D02*
X002383Y007865D01*
X002383Y008865D02*
X002383Y009045D01*
X002338Y009045D02*
X002518Y009045D01*
X002383Y009160D02*
X002383Y009340D01*
X002518Y009295D02*
X002248Y009295D01*
X002383Y009160D01*
X002338Y009045D02*
X002248Y008955D01*
X002338Y008865D01*
X002518Y008865D01*
X002518Y009865D02*
X002338Y009865D01*
X002248Y009955D01*
X002338Y010045D01*
X002518Y010045D01*
X002473Y010160D02*
X002518Y010205D01*
X002518Y010295D01*
X002473Y010340D01*
X002383Y010340D01*
X002338Y010295D01*
X002338Y010250D01*
X002383Y010160D01*
X002248Y010160D01*
X002248Y010340D01*
X002383Y010045D02*
X002383Y009865D01*
X002383Y010865D02*
X002383Y011045D01*
X002338Y011045D02*
X002518Y011045D01*
X002473Y011160D02*
X002518Y011205D01*
X002518Y011295D01*
X002473Y011340D01*
X002428Y011340D01*
X002383Y011295D01*
X002383Y011160D01*
X002473Y011160D01*
X002383Y011160D02*
X002293Y011250D01*
X002248Y011340D01*
X002338Y011045D02*
X002248Y010955D01*
X002338Y010865D01*
X002518Y010865D01*
X002518Y011865D02*
X002338Y011865D01*
X002248Y011955D01*
X002338Y012045D01*
X002518Y012045D01*
X002518Y012160D02*
X002473Y012160D01*
X002293Y012340D01*
X002248Y012340D01*
X002248Y012160D01*
X002383Y012045D02*
X002383Y011865D01*
X002428Y012865D02*
X002428Y013000D01*
X002383Y013045D01*
X002293Y013045D01*
X002248Y013000D01*
X002248Y012865D01*
X002518Y012865D01*
X002428Y012955D02*
X002518Y013045D01*
X002518Y013160D02*
X002248Y013340D01*
X002248Y013160D02*
X002518Y013340D01*
X002248Y013765D02*
X002248Y013945D01*
X002248Y013855D02*
X002518Y013855D01*
X002518Y014060D02*
X002248Y014240D01*
X002248Y014060D02*
X002518Y014240D01*
X002473Y014665D02*
X002293Y014665D01*
X002248Y014710D01*
X002248Y014800D01*
X002293Y014845D01*
X002383Y014845D02*
X002383Y014755D01*
X002383Y014845D02*
X002473Y014845D01*
X002518Y014800D01*
X002518Y014710D01*
X002473Y014665D01*
X002518Y014960D02*
X002248Y014960D01*
X002518Y015140D01*
X002248Y015140D01*
X002248Y015254D02*
X002248Y015389D01*
X002293Y015434D01*
X002473Y015434D01*
X002518Y015389D01*
X002518Y015254D01*
X002248Y015254D01*
X002248Y015665D02*
X002248Y015800D01*
X002293Y015845D01*
X002383Y015845D01*
X002428Y015800D01*
X002428Y015665D01*
X002518Y015665D02*
X002248Y015665D01*
X002338Y015960D02*
X002248Y016050D01*
X002338Y016140D01*
X002518Y016140D01*
X002518Y016254D02*
X002428Y016344D01*
X002518Y016434D01*
X002248Y016434D01*
X002248Y016254D02*
X002518Y016254D01*
X002383Y016140D02*
X002383Y015960D01*
X002338Y015960D02*
X002518Y015960D01*
X002518Y015845D02*
X002428Y015755D01*
X002868Y013635D02*
X003003Y013635D01*
X003048Y013590D01*
X003048Y013545D01*
X003003Y013500D01*
X002868Y013500D01*
X003003Y013500D02*
X003048Y013455D01*
X003048Y013410D01*
X003003Y013365D01*
X002868Y013365D01*
X002868Y013635D01*
X003162Y013635D02*
X003343Y013635D01*
X003253Y013635D02*
X003253Y013365D01*
X003457Y013365D02*
X003457Y013635D01*
X003637Y013365D01*
X003637Y013635D01*
X004414Y013634D02*
X004594Y013634D01*
X004504Y013634D02*
X004504Y013904D01*
X004414Y013814D01*
X008193Y013415D02*
X008238Y013370D01*
X008238Y013280D01*
X008193Y013235D01*
D12*
X008096Y013624D02*
X007963Y013624D01*
X008063Y013624D02*
X008063Y013757D01*
X008096Y013757D02*
X007963Y013757D01*
X007996Y013845D02*
X007963Y013878D01*
X007963Y013978D01*
X008163Y013978D01*
X008163Y013878D01*
X008130Y013845D01*
X007996Y013845D01*
X008096Y013757D02*
X008163Y013690D01*
X008096Y013624D01*
X008130Y014066D02*
X007996Y014066D01*
X007963Y014099D01*
X007963Y014199D01*
X008163Y014199D01*
X008163Y014099D01*
X008130Y014066D01*
X008163Y014287D02*
X008030Y014287D01*
X007963Y014353D01*
X008030Y014420D01*
X008163Y014420D01*
X007534Y004725D02*
X007536Y004741D01*
X007541Y004756D01*
X007550Y004769D01*
X007562Y004780D01*
X007576Y004788D01*
X007591Y004793D01*
X007607Y004794D01*
X007623Y004791D01*
X007637Y004785D01*
X007650Y004775D01*
X007661Y004763D01*
X007668Y004749D01*
X007672Y004733D01*
X007672Y004717D01*
X007668Y004701D01*
X007661Y004687D01*
X007650Y004675D01*
X007638Y004665D01*
X007623Y004659D01*
X007607Y004656D01*
X007591Y004657D01*
X007576Y004662D01*
X007562Y004670D01*
X007550Y004681D01*
X007541Y004694D01*
X007536Y004709D01*
X007534Y004725D01*
X007327Y004725D02*
X007329Y004758D01*
X007335Y004790D01*
X007344Y004821D01*
X007357Y004851D01*
X007374Y004879D01*
X007394Y004905D01*
X007417Y004929D01*
X007442Y004949D01*
X007470Y004967D01*
X007499Y004981D01*
X007530Y004991D01*
X007562Y004998D01*
X007595Y005001D01*
X007628Y005000D01*
X007660Y004995D01*
X007691Y004986D01*
X007722Y004974D01*
X007750Y004958D01*
X007777Y004939D01*
X007801Y004917D01*
X007822Y004892D01*
X007841Y004865D01*
X007856Y004836D01*
X007867Y004806D01*
X007875Y004774D01*
X007879Y004741D01*
X007879Y004709D01*
X007875Y004676D01*
X007867Y004644D01*
X007856Y004614D01*
X007841Y004585D01*
X007822Y004558D01*
X007801Y004533D01*
X007777Y004511D01*
X007750Y004492D01*
X007722Y004476D01*
X007691Y004464D01*
X007660Y004455D01*
X007628Y004450D01*
X007595Y004449D01*
X007562Y004452D01*
X007530Y004459D01*
X007499Y004469D01*
X007470Y004483D01*
X007442Y004501D01*
X007417Y004521D01*
X007394Y004545D01*
X007374Y004571D01*
X007357Y004599D01*
X007344Y004629D01*
X007335Y004660D01*
X007329Y004692D01*
X007327Y004725D01*
X002593Y004496D02*
X002593Y004309D01*
X002313Y004309D01*
X002359Y004201D02*
X002313Y004155D01*
X002313Y004061D01*
X002359Y004015D01*
X002546Y004015D01*
X002593Y004061D01*
X002593Y004155D01*
X002546Y004201D01*
X002546Y003907D02*
X002593Y003860D01*
X002593Y003767D01*
X002546Y003720D01*
X002453Y003767D02*
X002453Y003860D01*
X002499Y003907D01*
X002546Y003907D01*
X002453Y003767D02*
X002406Y003720D01*
X002359Y003720D01*
X002313Y003767D01*
X002313Y003860D01*
X002359Y003907D01*
X002376Y003446D02*
X002283Y003353D01*
X002376Y003259D01*
X002563Y003259D01*
X002516Y003151D02*
X002329Y003151D01*
X002283Y003105D01*
X002283Y002965D01*
X002563Y002965D01*
X002563Y003105D01*
X002516Y003151D01*
X002423Y003259D02*
X002423Y003446D01*
X002376Y003446D02*
X002563Y003446D01*
X002516Y002857D02*
X002563Y002810D01*
X002563Y002717D01*
X002516Y002670D01*
X002423Y002717D02*
X002423Y002810D01*
X002469Y002857D01*
X002516Y002857D01*
X002423Y002717D02*
X002376Y002670D01*
X002329Y002670D01*
X002283Y002717D01*
X002283Y002810D01*
X002329Y002857D01*
X002343Y002338D02*
X002343Y002151D01*
X002343Y002244D02*
X002623Y002244D01*
X002623Y002043D02*
X002343Y002043D01*
X002343Y001856D02*
X002623Y002043D01*
X002623Y001856D02*
X002343Y001856D01*
X002343Y001753D02*
X002343Y001660D01*
X002343Y001707D02*
X002623Y001707D01*
X002623Y001753D02*
X002623Y001660D01*
D13*
X004357Y016213D02*
X004359Y016234D01*
X004365Y016254D01*
X004374Y016274D01*
X004386Y016291D01*
X004401Y016305D01*
X004419Y016317D01*
X004439Y016325D01*
X004459Y016330D01*
X004480Y016331D01*
X004501Y016328D01*
X004521Y016322D01*
X004540Y016311D01*
X004557Y016298D01*
X004570Y016282D01*
X004581Y016264D01*
X004589Y016244D01*
X004593Y016224D01*
X004593Y016202D01*
X004589Y016182D01*
X004581Y016162D01*
X004570Y016144D01*
X004557Y016128D01*
X004540Y016115D01*
X004521Y016104D01*
X004501Y016098D01*
X004480Y016095D01*
X004459Y016096D01*
X004439Y016101D01*
X004419Y016109D01*
X004401Y016121D01*
X004386Y016135D01*
X004374Y016152D01*
X004365Y016172D01*
X004359Y016192D01*
X004357Y016213D01*
X003976Y017045D02*
X003978Y017071D01*
X003984Y017097D01*
X003994Y017122D01*
X004007Y017145D01*
X004023Y017165D01*
X004043Y017183D01*
X004065Y017198D01*
X004088Y017210D01*
X004114Y017218D01*
X004140Y017222D01*
X004166Y017222D01*
X004192Y017218D01*
X004218Y017210D01*
X004242Y017198D01*
X004263Y017183D01*
X004283Y017165D01*
X004299Y017145D01*
X004312Y017122D01*
X004322Y017097D01*
X004328Y017071D01*
X004330Y017045D01*
X004328Y017019D01*
X004322Y016993D01*
X004312Y016968D01*
X004299Y016945D01*
X004283Y016925D01*
X004263Y016907D01*
X004241Y016892D01*
X004218Y016880D01*
X004192Y016872D01*
X004166Y016868D01*
X004140Y016868D01*
X004114Y016872D01*
X004088Y016880D01*
X004064Y016892D01*
X004043Y016907D01*
X004023Y016925D01*
X004007Y016945D01*
X003994Y016968D01*
X003984Y016993D01*
X003978Y017019D01*
X003976Y017045D01*
X005893Y016213D02*
X005895Y016234D01*
X005901Y016254D01*
X005910Y016274D01*
X005922Y016291D01*
X005937Y016305D01*
X005955Y016317D01*
X005975Y016325D01*
X005995Y016330D01*
X006016Y016331D01*
X006037Y016328D01*
X006057Y016322D01*
X006076Y016311D01*
X006093Y016298D01*
X006106Y016282D01*
X006117Y016264D01*
X006125Y016244D01*
X006129Y016224D01*
X006129Y016202D01*
X006125Y016182D01*
X006117Y016162D01*
X006106Y016144D01*
X006093Y016128D01*
X006076Y016115D01*
X006057Y016104D01*
X006037Y016098D01*
X006016Y016095D01*
X005995Y016096D01*
X005975Y016101D01*
X005955Y016109D01*
X005937Y016121D01*
X005922Y016135D01*
X005910Y016152D01*
X005901Y016172D01*
X005895Y016192D01*
X005893Y016213D01*
X006161Y017050D02*
X006163Y017076D01*
X006169Y017102D01*
X006179Y017127D01*
X006192Y017150D01*
X006208Y017170D01*
X006228Y017188D01*
X006250Y017203D01*
X006273Y017215D01*
X006299Y017223D01*
X006325Y017227D01*
X006351Y017227D01*
X006377Y017223D01*
X006403Y017215D01*
X006427Y017203D01*
X006448Y017188D01*
X006468Y017170D01*
X006484Y017150D01*
X006497Y017127D01*
X006507Y017102D01*
X006513Y017076D01*
X006515Y017050D01*
X006513Y017024D01*
X006507Y016998D01*
X006497Y016973D01*
X006484Y016950D01*
X006468Y016930D01*
X006448Y016912D01*
X006426Y016897D01*
X006403Y016885D01*
X006377Y016877D01*
X006351Y016873D01*
X006325Y016873D01*
X006299Y016877D01*
X006273Y016885D01*
X006249Y016897D01*
X006228Y016912D01*
X006208Y016930D01*
X006192Y016950D01*
X006179Y016973D01*
X006169Y016998D01*
X006163Y017024D01*
X006161Y017050D01*
D14*
X007900Y012737D02*
X007900Y006320D01*
X002585Y006320D01*
X002585Y012737D01*
X007900Y012737D01*
X007338Y003838D02*
X008818Y003838D01*
X008818Y001982D01*
X007338Y001982D01*
X007338Y003838D01*
X008644Y002096D02*
X008646Y002110D01*
X008652Y002124D01*
X008660Y002136D01*
X008672Y002144D01*
X008686Y002150D01*
X008700Y002152D01*
X008714Y002150D01*
X008728Y002144D01*
X008740Y002136D01*
X008748Y002124D01*
X008754Y002110D01*
X008756Y002096D01*
X008754Y002082D01*
X008748Y002068D01*
X008740Y002056D01*
X008728Y002048D01*
X008714Y002042D01*
X008700Y002040D01*
X008686Y002042D01*
X008672Y002048D01*
X008660Y002056D01*
X008652Y002068D01*
X008646Y002082D01*
X008644Y002096D01*
D15*
X007327Y013956D02*
X007169Y013956D01*
X006904Y014665D02*
X006906Y014702D01*
X006912Y014738D01*
X006921Y014773D01*
X006935Y014807D01*
X006952Y014840D01*
X006972Y014870D01*
X006995Y014898D01*
X007021Y014924D01*
X007050Y014946D01*
X007081Y014966D01*
X007114Y014982D01*
X007149Y014994D01*
X007184Y015003D01*
X007221Y015008D01*
X007257Y015009D01*
X007294Y015006D01*
X007330Y014999D01*
X007365Y014989D01*
X007398Y014974D01*
X007430Y014957D01*
X007460Y014936D01*
X007488Y014911D01*
X007513Y014885D01*
X007535Y014855D01*
X007553Y014824D01*
X007568Y014790D01*
X007580Y014756D01*
X007588Y014720D01*
X007592Y014683D01*
X007592Y014647D01*
X007588Y014610D01*
X007580Y014574D01*
X007568Y014540D01*
X007553Y014506D01*
X007535Y014475D01*
X007513Y014445D01*
X007488Y014419D01*
X007460Y014394D01*
X007430Y014373D01*
X007398Y014356D01*
X007365Y014341D01*
X007330Y014331D01*
X007294Y014324D01*
X007257Y014321D01*
X007221Y014322D01*
X007184Y014327D01*
X007149Y014336D01*
X007114Y014348D01*
X007081Y014364D01*
X007050Y014384D01*
X007021Y014406D01*
X006995Y014432D01*
X006972Y014460D01*
X006952Y014490D01*
X006935Y014523D01*
X006921Y014557D01*
X006912Y014592D01*
X006906Y014628D01*
X006904Y014665D01*
X006657Y015019D02*
X006657Y014271D01*
X007169Y015374D02*
X007327Y015374D01*
X007838Y015059D02*
X007838Y014271D01*
X003833Y014296D02*
X003833Y015084D01*
X003322Y015399D02*
X003164Y015399D01*
X002899Y014690D02*
X002901Y014727D01*
X002907Y014763D01*
X002916Y014798D01*
X002930Y014832D01*
X002947Y014865D01*
X002967Y014895D01*
X002990Y014923D01*
X003016Y014949D01*
X003045Y014971D01*
X003076Y014991D01*
X003109Y015007D01*
X003144Y015019D01*
X003179Y015028D01*
X003216Y015033D01*
X003252Y015034D01*
X003289Y015031D01*
X003325Y015024D01*
X003360Y015014D01*
X003393Y014999D01*
X003425Y014982D01*
X003455Y014961D01*
X003483Y014936D01*
X003508Y014910D01*
X003530Y014880D01*
X003548Y014849D01*
X003563Y014815D01*
X003575Y014781D01*
X003583Y014745D01*
X003587Y014708D01*
X003587Y014672D01*
X003583Y014635D01*
X003575Y014599D01*
X003563Y014565D01*
X003548Y014531D01*
X003530Y014500D01*
X003508Y014470D01*
X003483Y014444D01*
X003455Y014419D01*
X003425Y014398D01*
X003393Y014381D01*
X003360Y014366D01*
X003325Y014356D01*
X003289Y014349D01*
X003252Y014346D01*
X003216Y014347D01*
X003179Y014352D01*
X003144Y014361D01*
X003109Y014373D01*
X003076Y014389D01*
X003045Y014409D01*
X003016Y014431D01*
X002990Y014457D01*
X002967Y014485D01*
X002947Y014515D01*
X002930Y014548D01*
X002916Y014582D01*
X002907Y014617D01*
X002901Y014653D01*
X002899Y014690D01*
X002652Y015044D02*
X002652Y014296D01*
X003164Y013981D02*
X003322Y013981D01*
D16*
X005125Y014222D03*
X005361Y014222D03*
X005361Y014458D03*
D17*
X006347Y000530D03*
D18*
X005450Y002925D02*
X005426Y002925D01*
X005838Y003708D02*
X005838Y003732D01*
X004488Y004158D02*
X004488Y004182D01*
X004078Y001612D02*
X004078Y001588D01*
D19*
X005138Y002070D03*
X005838Y004220D03*
D20*
X006163Y002935D03*
D21*
X002243Y002790D02*
X001993Y002540D01*
X002243Y002290D01*
X002243Y001790D01*
X001993Y001540D01*
X001493Y001540D01*
X001243Y001790D01*
X001243Y002290D01*
X001493Y002540D01*
X001243Y002790D01*
X001243Y003290D01*
X001493Y003540D01*
X001243Y003790D01*
X001243Y004290D01*
X001493Y004540D01*
X001993Y004540D01*
X002243Y004290D01*
X002243Y003790D01*
X001993Y003540D01*
X002243Y003290D01*
X002243Y002790D01*
X001993Y002540D02*
X001493Y002540D01*
X001493Y003540D02*
X001993Y003540D01*
D22*
X007080Y001830D02*
X007080Y001610D01*
X007227Y001610D02*
X007227Y001830D01*
X007153Y001757D01*
X007080Y001830D01*
X007301Y001830D02*
X007301Y001610D01*
X007301Y001683D02*
X007411Y001683D01*
X007448Y001720D01*
X007448Y001793D01*
X007411Y001830D01*
X007301Y001830D01*
X007522Y001720D02*
X007669Y001720D01*
X007743Y001720D02*
X007816Y001757D01*
X007853Y001757D01*
X007890Y001720D01*
X007890Y001647D01*
X007853Y001610D01*
X007780Y001610D01*
X007743Y001647D01*
X007743Y001720D02*
X007743Y001830D01*
X007890Y001830D01*
X007964Y001830D02*
X008074Y001830D01*
X008111Y001793D01*
X008111Y001647D01*
X008074Y001610D01*
X007964Y001610D01*
X007964Y001830D01*
X008185Y001830D02*
X008332Y001830D01*
X008258Y001830D02*
X008258Y001610D01*
X008406Y001647D02*
X008553Y001793D01*
X008553Y001647D01*
X008516Y001610D01*
X008443Y001610D01*
X008406Y001647D01*
X008406Y001793D01*
X008443Y001830D01*
X008516Y001830D01*
X008553Y001793D01*
X008627Y001793D02*
X008664Y001830D01*
X008737Y001830D01*
X008774Y001793D01*
X008774Y001757D01*
X008627Y001610D01*
X008774Y001610D01*
X007632Y001610D02*
X007632Y001830D01*
X007522Y001720D01*
D23*
X001713Y017120D03*
M02*
