G75*
%MOIN*%
%OFA0B0*%
%FSLAX24Y24*%
%IPPOS*%
%LPD*%
%AMOC8*
5,1,8,0,0,1.08239X$1,22.5*
%
%ADD10R,0.0433X0.0394*%
%ADD11R,0.0157X0.0531*%
%ADD12R,0.0591X0.0748*%
%ADD13C,0.0437*%
%ADD14R,0.0472X0.0472*%
%ADD15R,0.0472X0.0276*%
%ADD16R,0.0276X0.0472*%
%ADD17R,0.0945X0.0748*%
%ADD18R,0.0256X0.0492*%
%ADD19R,0.0394X0.0433*%
%ADD20R,0.0315X0.0315*%
%ADD21R,0.0433X0.0551*%
%ADD22R,0.0866X0.0413*%
%ADD23R,0.0413X0.0394*%
%ADD24R,0.0394X0.0591*%
%ADD25C,0.0690*%
%ADD26R,0.0315X0.0118*%
%ADD27R,0.0118X0.0315*%
%ADD28R,0.0354X0.0276*%
%ADD29R,0.0276X0.0354*%
%ADD30C,0.0640*%
%ADD31C,0.0358*%
%ADD32R,0.1050X0.0900*%
%ADD33R,0.0300X0.0500*%
%ADD34C,0.0278*%
%ADD35C,0.0080*%
%ADD36C,0.0240*%
%ADD37C,0.0200*%
%ADD38C,0.0160*%
%ADD39C,0.0100*%
%ADD40C,0.0120*%
D10*
X006948Y001540D03*
X007617Y001540D03*
X007192Y013090D03*
X006523Y013090D03*
X006268Y014785D03*
X006268Y015455D03*
X004193Y015475D03*
X004193Y014805D03*
X003927Y013090D03*
X003258Y013090D03*
D11*
X004731Y015987D03*
X004987Y015987D03*
X005243Y015987D03*
X005499Y015987D03*
X005755Y015987D03*
D12*
X005637Y017040D03*
X004849Y017036D03*
D13*
X004150Y016822D02*
X004150Y017258D01*
X006335Y017258D02*
X006335Y016822D01*
D14*
X007546Y012383D03*
X007546Y006674D03*
X002940Y006674D03*
X002940Y012383D03*
D15*
X002940Y011654D03*
X002940Y011182D03*
X002940Y010709D03*
X002940Y010237D03*
X002940Y009764D03*
X002940Y009292D03*
X002940Y008820D03*
X002940Y008347D03*
X002940Y007875D03*
X002940Y007402D03*
X007546Y007402D03*
X007546Y007875D03*
X007546Y008347D03*
X007546Y008820D03*
X007546Y009292D03*
X007546Y009764D03*
X007546Y010237D03*
X007546Y010709D03*
X007546Y011182D03*
X007546Y011654D03*
D16*
X006896Y012383D03*
X006424Y012383D03*
X005951Y012383D03*
X005479Y012383D03*
X005007Y012383D03*
X004534Y012383D03*
X004062Y012383D03*
X003589Y012383D03*
X003589Y006674D03*
X004062Y006674D03*
X004534Y006674D03*
X005007Y006674D03*
X005479Y006674D03*
X005951Y006674D03*
X006424Y006674D03*
X006896Y006674D03*
D17*
X006089Y008111D03*
X006089Y009528D03*
X006089Y010946D03*
X004396Y010946D03*
X004396Y009528D03*
X004396Y008111D03*
D18*
X003548Y013952D03*
X002938Y013952D03*
X002938Y015428D03*
X003548Y015428D03*
X006943Y015403D03*
X007553Y015403D03*
X007553Y013927D03*
X006943Y013927D03*
D19*
X005577Y013090D03*
X004908Y013090D03*
X003427Y016210D03*
X002758Y016210D03*
X006898Y003125D03*
X006898Y002455D03*
D20*
X007388Y017195D03*
X007978Y017195D03*
D21*
X005597Y014911D03*
X004888Y014911D03*
X004888Y013769D03*
X005597Y013769D03*
D22*
X007603Y005306D03*
X007603Y004144D03*
D23*
X007001Y004725D03*
D24*
X006938Y000530D03*
X003788Y000530D03*
D25*
X001743Y005040D03*
X001743Y006040D03*
X001743Y007040D03*
X001743Y008040D03*
X001743Y009040D03*
X001743Y010040D03*
X001743Y011040D03*
X001743Y012040D03*
X001743Y013040D03*
X001743Y014040D03*
X001743Y015040D03*
X001743Y016040D03*
X008743Y016040D03*
X008743Y015040D03*
X008743Y014040D03*
X008743Y013040D03*
X008743Y012040D03*
X008743Y011040D03*
X008743Y010040D03*
X008743Y009040D03*
X008743Y008040D03*
X008743Y007040D03*
X008743Y006040D03*
X008743Y005040D03*
D26*
X004725Y003462D03*
X004725Y003265D03*
X004725Y003068D03*
X004725Y002872D03*
X004725Y002675D03*
X004725Y002478D03*
X003150Y002478D03*
X003150Y002675D03*
X003150Y002872D03*
X003150Y003068D03*
X003150Y003265D03*
X003150Y003462D03*
D27*
X003446Y003757D03*
X003643Y003757D03*
X003839Y003757D03*
X004036Y003757D03*
X004233Y003757D03*
X004430Y003757D03*
X004430Y002183D03*
X004233Y002183D03*
X004036Y002183D03*
X003839Y002183D03*
X003643Y002183D03*
X003446Y002183D03*
D28*
X005438Y002669D03*
X005438Y003181D03*
X006163Y003191D03*
X006163Y002679D03*
D29*
X006094Y003720D03*
X006094Y004220D03*
X005582Y004220D03*
X005582Y003720D03*
X004744Y004170D03*
X004232Y004170D03*
X004882Y002070D03*
X005394Y002070D03*
X004334Y001600D03*
X003822Y001600D03*
D30*
X001743Y002040D03*
X001743Y003040D03*
X001743Y004040D03*
D31*
X007615Y003560D03*
X007617Y002911D03*
X007617Y002261D03*
X008539Y002261D03*
X008539Y002911D03*
X008539Y003560D03*
D32*
X002363Y017120D03*
D33*
X003288Y017120D03*
D34*
X003673Y016640D03*
X003893Y015920D03*
X004843Y017240D03*
X005643Y017240D03*
X006388Y016345D03*
X006838Y016260D03*
X006858Y016260D03*
X007688Y016690D03*
X007983Y015890D03*
X007973Y015305D03*
X007973Y015295D03*
X007848Y014980D03*
X007853Y014970D03*
X008148Y014560D03*
X007348Y014540D03*
X006973Y014630D03*
X006583Y014055D03*
X006478Y013505D03*
X006038Y013910D03*
X005488Y011925D03*
X005468Y011585D03*
X005113Y011185D03*
X005068Y010655D03*
X005038Y010120D03*
X005443Y010240D03*
X005963Y010310D03*
X006493Y011525D03*
X006828Y011655D03*
X007093Y011440D03*
X007093Y011435D03*
X007698Y012975D03*
X008033Y013095D03*
X008243Y011540D03*
X006838Y009315D03*
X007063Y008360D03*
X006823Y007290D03*
X006403Y007290D03*
X006043Y007240D03*
X005943Y008660D03*
X006018Y011825D03*
X004813Y011790D03*
X004148Y011925D03*
X004118Y011575D03*
X003602Y011650D03*
X003841Y013538D03*
X003903Y014120D03*
X004423Y014130D03*
X002553Y013300D03*
X002343Y013600D03*
X002383Y014020D03*
X002343Y015990D03*
X002293Y016380D03*
X001563Y016700D03*
X002493Y011460D03*
X005533Y005165D03*
X005572Y004755D03*
X005903Y005160D03*
X005118Y004920D03*
X005118Y004170D03*
X005098Y004170D03*
X004723Y003695D03*
X005063Y003050D03*
X005093Y002725D03*
X005793Y003360D03*
X005798Y003365D03*
X006078Y002310D03*
X006098Y002280D03*
X006393Y001270D03*
X005293Y001270D03*
X004893Y001450D03*
X004193Y001270D03*
X003093Y001270D03*
X004103Y002980D03*
X003693Y003175D03*
X003158Y004085D03*
X002853Y003805D03*
X002613Y004600D03*
X003193Y004670D03*
X003638Y004370D03*
X001993Y001270D03*
X007843Y001270D03*
X008048Y002275D03*
X008053Y002920D03*
X008033Y003580D03*
X008943Y001270D03*
X008073Y007400D03*
D35*
X001408Y001735D02*
X001410Y001110D01*
X002808Y001110D01*
X002808Y001735D01*
X002032Y001735D01*
X001981Y001684D01*
X001826Y001620D01*
X001659Y001620D01*
X001505Y001684D01*
X001454Y001735D01*
X001408Y001735D01*
X001408Y001717D02*
X001472Y001717D01*
X001408Y001638D02*
X001616Y001638D01*
X001408Y001560D02*
X002808Y001560D01*
X002808Y001638D02*
X001870Y001638D01*
X002013Y001717D02*
X002808Y001717D01*
X002713Y001890D02*
X002713Y003455D01*
X003063Y003455D01*
X003148Y003465D01*
X003150Y003462D02*
X003623Y003462D01*
X003688Y003457D01*
X003693Y003175D01*
X003623Y003462D02*
X004725Y003462D01*
X004725Y003577D01*
X004723Y003695D01*
X004725Y002872D02*
X004876Y002872D01*
X005093Y002725D01*
X005388Y002470D02*
X004733Y002470D01*
X004882Y002070D02*
X004882Y001866D01*
X004893Y001450D01*
X004238Y001560D02*
X004238Y002118D01*
X004233Y002183D02*
X004233Y001701D01*
X004038Y001566D02*
X004038Y002133D01*
X003888Y002005D02*
X003773Y001890D01*
X002713Y001890D01*
X002808Y001481D02*
X001409Y001481D01*
X001409Y001403D02*
X002808Y001403D01*
X002808Y001324D02*
X001409Y001324D01*
X001409Y001246D02*
X002808Y001246D01*
X002808Y001167D02*
X001410Y001167D01*
X001743Y003040D02*
X002788Y004085D01*
X003158Y004085D01*
X003398Y003750D01*
X003438Y003750D01*
X003643Y003757D02*
X003638Y004370D01*
X003381Y004820D02*
X003328Y004873D01*
X003240Y004909D01*
X003145Y004909D01*
X003057Y004873D01*
X002990Y004805D01*
X002954Y004718D01*
X002954Y004622D01*
X002990Y004535D01*
X003008Y004517D01*
X002837Y004517D01*
X002852Y004552D01*
X002852Y004648D01*
X002815Y004735D01*
X002748Y004803D01*
X002660Y004839D01*
X002565Y004839D01*
X002477Y004803D01*
X002410Y004735D01*
X002394Y004696D01*
X002422Y009659D01*
X002537Y009544D01*
X002644Y009544D01*
X002660Y009528D01*
X002603Y009471D01*
X002603Y009113D01*
X002662Y009054D01*
X003217Y009054D01*
X003276Y009113D01*
X003276Y009471D01*
X003219Y009528D01*
X003276Y009585D01*
X003276Y009944D01*
X003217Y010002D01*
X002713Y010002D01*
X002713Y011366D01*
X002732Y011412D01*
X002732Y011416D01*
X003217Y011416D01*
X003276Y011475D01*
X003276Y011833D01*
X003217Y011892D01*
X002713Y011892D01*
X002713Y012619D01*
X002944Y012850D01*
X003000Y012793D01*
X003516Y012793D01*
X003575Y012852D01*
X003575Y013240D01*
X004313Y013240D01*
X004313Y013212D01*
X004395Y013130D01*
X004575Y012950D01*
X004611Y012950D01*
X004611Y012832D01*
X004670Y012773D01*
X005146Y012773D01*
X005205Y012832D01*
X005205Y013161D01*
X005281Y013236D01*
X005281Y012832D01*
X005339Y012773D01*
X005816Y012773D01*
X005874Y012832D01*
X005874Y012950D01*
X006021Y012950D01*
X006241Y013170D01*
X006311Y013240D01*
X006876Y013240D01*
X006876Y012852D01*
X006918Y012810D01*
X006918Y012792D01*
X007033Y012677D01*
X007115Y012595D01*
X008039Y012595D01*
X008037Y012227D01*
X007880Y012070D01*
X007138Y012070D01*
X007135Y012072D01*
X007080Y012070D01*
X007025Y012070D01*
X007023Y012068D01*
X007020Y012068D01*
X006982Y012027D01*
X006943Y011988D01*
X006943Y011985D01*
X006859Y011894D01*
X006780Y011894D01*
X006692Y011858D01*
X006625Y011790D01*
X006603Y011738D01*
X006540Y011764D01*
X006445Y011764D01*
X006433Y011759D01*
X006433Y012046D01*
X006603Y012046D01*
X006662Y012105D01*
X006662Y012660D01*
X006603Y012719D01*
X006245Y012719D01*
X006188Y012662D01*
X006131Y012719D01*
X005772Y012719D01*
X005715Y012662D01*
X005658Y012719D01*
X005300Y012719D01*
X005243Y012662D01*
X005186Y012719D01*
X004827Y012719D01*
X004769Y012660D01*
X004769Y012294D01*
X004605Y012130D01*
X004430Y012130D01*
X004380Y012080D01*
X004380Y012080D01*
X004353Y012054D01*
X004350Y012060D01*
X004299Y012111D01*
X004299Y012660D01*
X004241Y012719D01*
X003882Y012719D01*
X003824Y012660D01*
X003824Y012105D01*
X003882Y012046D01*
X003902Y012046D01*
X003902Y011945D01*
X003909Y011938D01*
X003909Y011877D01*
X003945Y011790D01*
X003970Y011765D01*
X003915Y011710D01*
X003879Y011623D01*
X003879Y011527D01*
X003915Y011440D01*
X003982Y011372D01*
X004070Y011336D01*
X004165Y011336D01*
X004253Y011372D01*
X004320Y011440D01*
X004338Y011482D01*
X004398Y011422D01*
X004480Y011340D01*
X004930Y011340D01*
X004910Y011320D01*
X004874Y011233D01*
X004874Y011137D01*
X002713Y011137D01*
X002713Y011215D02*
X004874Y011215D01*
X004874Y011137D02*
X004910Y011050D01*
X004977Y010982D01*
X005065Y010946D01*
X005160Y010946D01*
X005248Y010982D01*
X005315Y011050D01*
X005352Y011137D01*
X005352Y011233D01*
X005315Y011320D01*
X005258Y011378D01*
X005258Y011463D01*
X005176Y011545D01*
X005101Y011620D01*
X004981Y011620D01*
X005015Y011655D01*
X005052Y011742D01*
X005052Y011838D01*
X005049Y011844D01*
X005111Y011905D01*
X005249Y011905D01*
X005249Y011877D01*
X005285Y011790D01*
X005310Y011765D01*
X005265Y011720D01*
X005229Y011633D01*
X005229Y011537D01*
X005265Y011450D01*
X005332Y011382D01*
X005420Y011346D01*
X005515Y011346D01*
X005603Y011382D01*
X005606Y011385D01*
X006121Y011385D01*
X006203Y011467D01*
X006254Y011518D01*
X006254Y011477D01*
X006290Y011390D01*
X006357Y011322D01*
X006445Y011286D01*
X006540Y011286D01*
X006628Y011322D01*
X006695Y011390D01*
X006717Y011442D01*
X006780Y011416D01*
X006854Y011416D01*
X006854Y011387D01*
X006890Y011300D01*
X006957Y011232D01*
X007045Y011196D01*
X007140Y011196D01*
X007228Y011232D01*
X007295Y011300D01*
X007332Y011387D01*
X007332Y011483D01*
X007332Y011488D01*
X007295Y011575D01*
X007228Y011643D01*
X007140Y011679D01*
X007067Y011679D01*
X007067Y011703D01*
X007066Y011706D01*
X007144Y011790D01*
X007996Y011790D01*
X008035Y011829D01*
X008026Y010255D01*
X008001Y010280D01*
X007904Y010377D01*
X007882Y010377D01*
X007882Y010416D01*
X007825Y010473D01*
X007882Y010530D01*
X007882Y010889D01*
X007824Y010947D01*
X007268Y010947D01*
X007210Y010889D01*
X007210Y010530D01*
X007267Y010473D01*
X007210Y010416D01*
X007210Y010058D01*
X007267Y010001D01*
X007210Y009944D01*
X007210Y009585D01*
X007267Y009528D01*
X007210Y009471D01*
X007210Y009113D01*
X007267Y009056D01*
X007210Y008999D01*
X007210Y008640D01*
X007267Y008583D01*
X007222Y008539D01*
X007198Y008563D01*
X007110Y008599D01*
X007015Y008599D01*
X006927Y008563D01*
X006860Y008495D01*
X006824Y008408D01*
X006824Y008312D01*
X006860Y008225D01*
X006927Y008157D01*
X007015Y008121D01*
X007110Y008121D01*
X007198Y008157D01*
X007210Y008169D01*
X007210Y008168D01*
X007267Y008111D01*
X007210Y008054D01*
X007210Y007695D01*
X007268Y007637D01*
X007824Y007637D01*
X007882Y007695D01*
X007882Y008054D01*
X007825Y008111D01*
X007882Y008168D01*
X007882Y008526D01*
X007825Y008583D01*
X007882Y008640D01*
X007882Y008999D01*
X007825Y009056D01*
X007882Y009113D01*
X007882Y009200D01*
X007901Y009200D01*
X007983Y009282D01*
X008020Y009320D01*
X007993Y004510D01*
X007548Y004510D01*
X007548Y004989D01*
X007496Y005114D01*
X007401Y005210D01*
X007325Y005242D01*
X007311Y005259D01*
X007148Y005343D01*
X007075Y005350D01*
X006884Y005576D01*
X006884Y006327D01*
X006902Y006370D01*
X006902Y006978D01*
X006871Y007051D01*
X006958Y007087D01*
X007025Y007155D01*
X007062Y007242D01*
X007062Y007338D01*
X007025Y007425D01*
X006958Y007493D01*
X006870Y007529D01*
X006775Y007529D01*
X006687Y007493D01*
X006620Y007425D01*
X006613Y007408D01*
X006605Y007425D01*
X006538Y007493D01*
X006450Y007529D01*
X006355Y007529D01*
X006267Y007493D01*
X006200Y007425D01*
X006199Y007422D01*
X006178Y007443D01*
X006090Y007479D01*
X005995Y007479D01*
X005907Y007443D01*
X005840Y007375D01*
X005804Y007288D01*
X005804Y007192D01*
X005840Y007105D01*
X005907Y007037D01*
X005962Y007015D01*
X005946Y006978D01*
X005946Y006370D01*
X005964Y006327D01*
X005964Y005427D01*
X005961Y005395D01*
X005950Y005399D01*
X005855Y005399D01*
X005767Y005363D01*
X005720Y005316D01*
X005668Y005368D01*
X005580Y005404D01*
X005485Y005404D01*
X005397Y005368D01*
X005330Y005300D01*
X005294Y005213D01*
X005294Y005117D01*
X005330Y005030D01*
X005397Y004962D01*
X005428Y004950D01*
X005369Y004890D01*
X005340Y004820D01*
X003381Y004820D01*
X003344Y004857D02*
X005355Y004857D01*
X005414Y004935D02*
X002395Y004935D01*
X002395Y004857D02*
X003041Y004857D01*
X002979Y004778D02*
X002773Y004778D01*
X002830Y004700D02*
X002954Y004700D01*
X002954Y004621D02*
X002852Y004621D01*
X002848Y004543D02*
X002987Y004543D01*
X002453Y004778D02*
X002394Y004778D01*
X002394Y004700D02*
X002395Y004700D01*
X002396Y005014D02*
X005346Y005014D01*
X005304Y005092D02*
X002396Y005092D01*
X002397Y005171D02*
X005294Y005171D01*
X005309Y005249D02*
X002397Y005249D01*
X002397Y005328D02*
X005357Y005328D01*
X005708Y005328D02*
X005732Y005328D01*
X005962Y005406D02*
X002398Y005406D01*
X002398Y005485D02*
X005964Y005485D01*
X005964Y005563D02*
X002399Y005563D01*
X002399Y005642D02*
X005964Y005642D01*
X005964Y005720D02*
X002400Y005720D01*
X002400Y005799D02*
X005964Y005799D01*
X005964Y005877D02*
X002401Y005877D01*
X002401Y005956D02*
X005964Y005956D01*
X005964Y006034D02*
X002402Y006034D01*
X002402Y006113D02*
X005964Y006113D01*
X005964Y006191D02*
X002402Y006191D01*
X002403Y006270D02*
X005964Y006270D01*
X005955Y006348D02*
X004251Y006348D01*
X004241Y006338D02*
X004299Y006396D01*
X004299Y006951D01*
X004241Y007010D01*
X003882Y007010D01*
X003825Y006953D01*
X003768Y007010D01*
X003410Y007010D01*
X003351Y006951D01*
X003351Y006396D01*
X003410Y006338D01*
X003768Y006338D01*
X003825Y006395D01*
X003882Y006338D01*
X004241Y006338D01*
X004299Y006427D02*
X005946Y006427D01*
X005946Y006505D02*
X004299Y006505D01*
X004299Y006584D02*
X005946Y006584D01*
X005946Y006662D02*
X004299Y006662D01*
X004299Y006741D02*
X005946Y006741D01*
X005951Y006674D02*
X005479Y006674D01*
X005007Y006674D01*
X004534Y006674D01*
X004534Y006849D01*
X004299Y006819D02*
X005946Y006819D01*
X005946Y006898D02*
X004299Y006898D01*
X004275Y006976D02*
X005946Y006976D01*
X005890Y007055D02*
X002407Y007055D01*
X002408Y007133D02*
X005828Y007133D01*
X005804Y007212D02*
X003264Y007212D01*
X003276Y007223D02*
X003217Y007164D01*
X002662Y007164D01*
X002603Y007223D01*
X002603Y007581D01*
X002660Y007638D01*
X002603Y007695D01*
X002603Y008054D01*
X002660Y008111D01*
X002603Y008168D01*
X002603Y008526D01*
X002662Y008585D01*
X003217Y008585D01*
X003276Y008526D01*
X003276Y008509D01*
X003653Y008886D01*
X003747Y008980D01*
X004917Y008980D01*
X005183Y009246D01*
X005183Y009927D01*
X005173Y009917D01*
X005085Y009881D01*
X004990Y009881D01*
X004902Y009917D01*
X004835Y009985D01*
X004799Y010072D01*
X004799Y010168D01*
X004835Y010255D01*
X004902Y010323D01*
X004990Y010359D01*
X005085Y010359D01*
X005173Y010323D01*
X005205Y010291D01*
X005240Y010375D01*
X005307Y010443D01*
X005395Y010479D01*
X005490Y010479D01*
X005578Y010443D01*
X005645Y010375D01*
X005682Y010288D01*
X005682Y010192D01*
X005645Y010105D01*
X005578Y010037D01*
X005503Y010006D01*
X005503Y009114D01*
X005049Y008660D01*
X003879Y008660D01*
X003406Y008187D01*
X003276Y008187D01*
X003276Y008168D01*
X003219Y008111D01*
X003276Y008054D01*
X003276Y007695D01*
X003219Y007638D01*
X003276Y007581D01*
X003276Y007223D01*
X003276Y007290D02*
X005805Y007290D01*
X005837Y007369D02*
X003276Y007369D01*
X003276Y007447D02*
X005918Y007447D01*
X006168Y007447D02*
X006222Y007447D01*
X006347Y007526D02*
X003276Y007526D01*
X003253Y007604D02*
X008011Y007604D01*
X008010Y007526D02*
X006879Y007526D01*
X006767Y007526D02*
X006459Y007526D01*
X006584Y007447D02*
X006642Y007447D01*
X006879Y007055D02*
X008007Y007055D01*
X008008Y007133D02*
X007004Y007133D01*
X007049Y007212D02*
X008008Y007212D01*
X008009Y007290D02*
X007062Y007290D01*
X007049Y007369D02*
X008009Y007369D01*
X008010Y007447D02*
X007004Y007447D01*
X007223Y007683D02*
X003263Y007683D01*
X003276Y007761D02*
X007210Y007761D01*
X007210Y007840D02*
X003276Y007840D01*
X003276Y007918D02*
X007210Y007918D01*
X007210Y007997D02*
X003276Y007997D01*
X003255Y008075D02*
X007231Y008075D01*
X007224Y008154D02*
X007189Y008154D01*
X007215Y008546D02*
X007229Y008546D01*
X007225Y008625D02*
X003844Y008625D01*
X003765Y008546D02*
X006911Y008546D01*
X006849Y008468D02*
X003687Y008468D01*
X003608Y008389D02*
X006824Y008389D01*
X006825Y008311D02*
X003530Y008311D01*
X003451Y008232D02*
X006857Y008232D01*
X006937Y008154D02*
X003262Y008154D01*
X003256Y008546D02*
X003313Y008546D01*
X003391Y008625D02*
X002416Y008625D01*
X002417Y008703D02*
X003470Y008703D01*
X003548Y008782D02*
X002417Y008782D01*
X002418Y008860D02*
X003627Y008860D01*
X003705Y008939D02*
X002418Y008939D01*
X002419Y009017D02*
X004954Y009017D01*
X005032Y009096D02*
X003259Y009096D01*
X003276Y009174D02*
X005111Y009174D01*
X005183Y009253D02*
X003276Y009253D01*
X003276Y009331D02*
X005183Y009331D01*
X005183Y009410D02*
X003276Y009410D01*
X003259Y009488D02*
X005183Y009488D01*
X005183Y009567D02*
X003257Y009567D01*
X003276Y009645D02*
X005183Y009645D01*
X005183Y009724D02*
X003276Y009724D01*
X003276Y009802D02*
X005183Y009802D01*
X005183Y009881D02*
X003276Y009881D01*
X003260Y009959D02*
X004861Y009959D01*
X004813Y010038D02*
X002713Y010038D01*
X002713Y010116D02*
X004799Y010116D01*
X004810Y010195D02*
X002713Y010195D01*
X002713Y010273D02*
X004853Y010273D01*
X004972Y010352D02*
X002713Y010352D01*
X002713Y010430D02*
X005295Y010430D01*
X005230Y010352D02*
X005103Y010352D01*
X005068Y010655D02*
X005077Y010709D01*
X004160Y010709D01*
X004396Y010946D01*
X004160Y010709D02*
X002940Y010709D01*
X002940Y011182D01*
X002713Y011294D02*
X004899Y011294D01*
X004907Y011058D02*
X002713Y011058D01*
X002713Y010980D02*
X004984Y010980D01*
X005113Y011185D02*
X005118Y011190D01*
X005118Y011405D01*
X005043Y011480D01*
X004538Y011480D01*
X004438Y011580D01*
X004438Y011940D01*
X004488Y011990D01*
X004663Y011990D01*
X004883Y012210D01*
X004933Y012210D01*
X004933Y012309D01*
X004769Y012314D02*
X004299Y012314D01*
X004299Y012236D02*
X004710Y012236D01*
X004632Y012157D02*
X004299Y012157D01*
X004332Y012079D02*
X004378Y012079D01*
X004493Y012190D02*
X004493Y012341D01*
X004534Y012383D01*
X004443Y012474D01*
X004443Y012690D01*
X004353Y012780D01*
X003933Y012780D01*
X003927Y012785D01*
X003927Y013090D01*
X004103Y013265D01*
X004103Y013670D01*
X003903Y013870D01*
X003903Y014120D01*
X003841Y013538D02*
X003655Y013538D01*
X003553Y013640D01*
X003553Y013947D01*
X003548Y013952D01*
X003543Y013947D01*
X003575Y013178D02*
X004347Y013178D01*
X004426Y013099D02*
X003575Y013099D01*
X003575Y013021D02*
X004504Y013021D01*
X004611Y012942D02*
X003575Y012942D01*
X003575Y012864D02*
X004611Y012864D01*
X004658Y012785D02*
X002879Y012785D01*
X002800Y012707D02*
X003870Y012707D01*
X003824Y012628D02*
X002722Y012628D01*
X002713Y012550D02*
X003824Y012550D01*
X003824Y012471D02*
X002713Y012471D01*
X002713Y012393D02*
X003824Y012393D01*
X003824Y012314D02*
X002713Y012314D01*
X002713Y012236D02*
X003824Y012236D01*
X003824Y012157D02*
X002713Y012157D01*
X002713Y012079D02*
X003850Y012079D01*
X003902Y012000D02*
X002713Y012000D01*
X002713Y011922D02*
X003909Y011922D01*
X003923Y011843D02*
X003747Y011843D01*
X003737Y011853D02*
X003649Y011889D01*
X003554Y011889D01*
X003466Y011853D01*
X003399Y011785D01*
X003363Y011698D01*
X003363Y011602D01*
X003399Y011515D01*
X003466Y011447D01*
X003554Y011411D01*
X003649Y011411D01*
X003737Y011447D01*
X003804Y011515D01*
X003841Y011602D01*
X003841Y011698D01*
X003804Y011785D01*
X003737Y011853D01*
X003813Y011765D02*
X003969Y011765D01*
X003905Y011686D02*
X003841Y011686D01*
X003841Y011608D02*
X003879Y011608D01*
X003879Y011529D02*
X003810Y011529D01*
X003740Y011451D02*
X003911Y011451D01*
X003983Y011372D02*
X002715Y011372D01*
X002713Y010901D02*
X007222Y010901D01*
X007210Y010823D02*
X002713Y010823D01*
X002713Y010744D02*
X007210Y010744D01*
X007210Y010666D02*
X002713Y010666D01*
X002713Y010587D02*
X007210Y010587D01*
X007231Y010509D02*
X002713Y010509D01*
X002940Y010709D02*
X002940Y010237D01*
X002515Y009567D02*
X002422Y009567D01*
X002422Y009645D02*
X002437Y009645D01*
X002421Y009488D02*
X002620Y009488D01*
X002603Y009410D02*
X002421Y009410D01*
X002420Y009331D02*
X002603Y009331D01*
X002603Y009253D02*
X002420Y009253D01*
X002420Y009174D02*
X002603Y009174D01*
X002621Y009096D02*
X002419Y009096D01*
X002793Y008890D02*
X002543Y008640D01*
X002543Y006840D01*
X002693Y006690D01*
X002924Y006690D01*
X002940Y006674D01*
X002615Y007212D02*
X002408Y007212D01*
X002409Y007290D02*
X002603Y007290D01*
X002603Y007369D02*
X002409Y007369D01*
X002410Y007447D02*
X002603Y007447D01*
X002603Y007526D02*
X002410Y007526D01*
X002411Y007604D02*
X002626Y007604D01*
X002616Y007683D02*
X002411Y007683D01*
X002411Y007761D02*
X002603Y007761D01*
X002603Y007840D02*
X002412Y007840D01*
X002412Y007918D02*
X002603Y007918D01*
X002603Y007997D02*
X002413Y007997D01*
X002413Y008075D02*
X002625Y008075D01*
X002618Y008154D02*
X002414Y008154D01*
X002414Y008232D02*
X002603Y008232D01*
X002603Y008311D02*
X002415Y008311D01*
X002415Y008389D02*
X002603Y008389D01*
X002603Y008468D02*
X002415Y008468D01*
X002416Y008546D02*
X002623Y008546D01*
X002793Y008890D02*
X003010Y008890D01*
X002940Y008820D01*
X002940Y008347D02*
X002947Y008340D01*
X002940Y007875D02*
X002940Y007402D01*
X003351Y006898D02*
X002406Y006898D01*
X002407Y006976D02*
X003376Y006976D01*
X003351Y006819D02*
X002406Y006819D01*
X002406Y006741D02*
X003351Y006741D01*
X003351Y006662D02*
X002405Y006662D01*
X002405Y006584D02*
X003351Y006584D01*
X003351Y006505D02*
X002404Y006505D01*
X002404Y006427D02*
X003351Y006427D01*
X003400Y006348D02*
X002403Y006348D01*
X003589Y006674D02*
X004062Y006674D01*
X003848Y006976D02*
X003803Y006976D01*
X003779Y006348D02*
X003872Y006348D01*
X005092Y008703D02*
X007210Y008703D01*
X007210Y008782D02*
X005171Y008782D01*
X005249Y008860D02*
X007210Y008860D01*
X007210Y008939D02*
X005328Y008939D01*
X005406Y009017D02*
X007228Y009017D01*
X007227Y009096D02*
X006933Y009096D01*
X006973Y009112D02*
X006885Y009076D01*
X006790Y009076D01*
X006702Y009112D01*
X006635Y009180D01*
X006599Y009267D01*
X006599Y009363D01*
X006635Y009450D01*
X006702Y009518D01*
X006790Y009554D01*
X006885Y009554D01*
X006973Y009518D01*
X007040Y009450D01*
X007077Y009363D01*
X007077Y009267D01*
X007040Y009180D01*
X006973Y009112D01*
X007035Y009174D02*
X007210Y009174D01*
X007210Y009253D02*
X007071Y009253D01*
X007077Y009331D02*
X007210Y009331D01*
X007210Y009410D02*
X007057Y009410D01*
X007003Y009488D02*
X007227Y009488D01*
X007228Y009567D02*
X005503Y009567D01*
X005503Y009645D02*
X007210Y009645D01*
X007210Y009724D02*
X005503Y009724D01*
X005503Y009802D02*
X007210Y009802D01*
X007210Y009881D02*
X005503Y009881D01*
X005503Y009959D02*
X007225Y009959D01*
X007230Y010038D02*
X005578Y010038D01*
X005650Y010116D02*
X007210Y010116D01*
X007210Y010195D02*
X005682Y010195D01*
X005682Y010273D02*
X007210Y010273D01*
X007210Y010352D02*
X005655Y010352D01*
X005591Y010430D02*
X007224Y010430D01*
X007546Y010237D02*
X007846Y010237D01*
X007943Y010140D01*
X007943Y009440D01*
X007843Y009340D01*
X007594Y009340D01*
X007546Y009292D01*
X007865Y009096D02*
X008019Y009096D01*
X008020Y009174D02*
X007882Y009174D01*
X007953Y009253D02*
X008020Y009253D01*
X008019Y009017D02*
X007864Y009017D01*
X007882Y008939D02*
X008018Y008939D01*
X008018Y008860D02*
X007882Y008860D01*
X007882Y008782D02*
X008017Y008782D01*
X008017Y008703D02*
X007882Y008703D01*
X007866Y008625D02*
X008016Y008625D01*
X008016Y008546D02*
X007862Y008546D01*
X007882Y008468D02*
X008015Y008468D01*
X008015Y008389D02*
X007882Y008389D01*
X007882Y008311D02*
X008015Y008311D01*
X008014Y008232D02*
X007882Y008232D01*
X007868Y008154D02*
X008014Y008154D01*
X008013Y008075D02*
X007861Y008075D01*
X007882Y007997D02*
X008013Y007997D01*
X008012Y007918D02*
X007882Y007918D01*
X007882Y007840D02*
X008012Y007840D01*
X008011Y007761D02*
X007882Y007761D01*
X007869Y007683D02*
X008011Y007683D01*
X008007Y006976D02*
X006902Y006976D01*
X006902Y006898D02*
X008006Y006898D01*
X008006Y006819D02*
X006902Y006819D01*
X006902Y006741D02*
X008006Y006741D01*
X008005Y006662D02*
X006902Y006662D01*
X006902Y006584D02*
X008005Y006584D01*
X008004Y006505D02*
X006902Y006505D01*
X006902Y006427D02*
X008004Y006427D01*
X008003Y006348D02*
X006893Y006348D01*
X006884Y006270D02*
X008003Y006270D01*
X008002Y006191D02*
X006884Y006191D01*
X006884Y006113D02*
X008002Y006113D01*
X008002Y006034D02*
X006884Y006034D01*
X006884Y005956D02*
X008001Y005956D01*
X008001Y005877D02*
X006884Y005877D01*
X006884Y005799D02*
X008000Y005799D01*
X008000Y005720D02*
X006884Y005720D01*
X006884Y005642D02*
X007999Y005642D01*
X007999Y005563D02*
X006895Y005563D01*
X006961Y005485D02*
X007998Y005485D01*
X007998Y005406D02*
X007028Y005406D01*
X007179Y005328D02*
X007997Y005328D01*
X007997Y005249D02*
X007319Y005249D01*
X007440Y005171D02*
X007997Y005171D01*
X007996Y005092D02*
X007506Y005092D01*
X007538Y005014D02*
X007996Y005014D01*
X007995Y004935D02*
X007548Y004935D01*
X007548Y004857D02*
X007995Y004857D01*
X007994Y004778D02*
X007548Y004778D01*
X007548Y004700D02*
X007994Y004700D01*
X007993Y004621D02*
X007548Y004621D01*
X007548Y004543D02*
X007993Y004543D01*
X007546Y006674D02*
X007546Y006737D01*
X007546Y007402D02*
X007305Y007402D01*
X006743Y009096D02*
X005485Y009096D01*
X005503Y009174D02*
X006641Y009174D01*
X006605Y009253D02*
X005503Y009253D01*
X005503Y009331D02*
X006599Y009331D01*
X006618Y009410D02*
X005503Y009410D01*
X005503Y009488D02*
X006673Y009488D01*
X006127Y009490D02*
X006089Y009528D01*
X005993Y010340D02*
X005993Y010849D01*
X006089Y010946D01*
X006308Y011372D02*
X005578Y011372D01*
X005518Y011525D02*
X005468Y011585D01*
X005518Y011525D02*
X006063Y011525D01*
X006293Y011755D01*
X006293Y012251D01*
X006424Y012383D02*
X006327Y012479D01*
X006233Y012707D02*
X006143Y012707D01*
X006091Y013021D02*
X006876Y013021D01*
X006876Y013099D02*
X006170Y013099D01*
X006248Y013178D02*
X006876Y013178D01*
X007058Y013090D02*
X007058Y012850D01*
X007173Y012735D01*
X008348Y012735D01*
X008348Y014395D01*
X008743Y014790D01*
X008743Y015040D01*
X008268Y014675D02*
X008268Y016195D01*
X008278Y016205D01*
X008073Y016410D01*
X008073Y017090D01*
X007978Y017195D01*
X008293Y017181D02*
X009118Y017181D01*
X009118Y017103D02*
X008293Y017103D01*
X008293Y017024D02*
X009118Y017024D01*
X009118Y016946D02*
X008293Y016946D01*
X008293Y016867D02*
X009118Y016867D01*
X009118Y016789D02*
X008293Y016789D01*
X008293Y016710D02*
X009118Y016710D01*
X009118Y016632D02*
X008293Y016632D01*
X008293Y016590D02*
X009118Y016590D01*
X009118Y017540D01*
X008293Y017540D01*
X008293Y016590D01*
X008293Y017260D02*
X009118Y017260D01*
X009118Y017338D02*
X008293Y017338D01*
X008293Y017417D02*
X009118Y017417D01*
X009118Y017495D02*
X008293Y017495D01*
X007428Y015050D02*
X007863Y014615D01*
X007863Y014450D01*
X008088Y014225D01*
X008088Y013130D01*
X008033Y013095D01*
X007678Y013315D02*
X007868Y013505D01*
X007868Y014190D01*
X007693Y014365D01*
X007693Y014375D01*
X007678Y014390D01*
X007678Y014585D01*
X007373Y014890D01*
X006758Y014890D01*
X006653Y014785D01*
X006268Y014785D01*
X006307Y014840D01*
X006018Y015135D02*
X006663Y015135D01*
X006748Y015050D01*
X007428Y015050D01*
X007348Y014540D02*
X007143Y014335D01*
X005148Y014335D01*
X004888Y014594D01*
X004888Y014911D01*
X004608Y015335D02*
X005818Y015335D01*
X006018Y015135D01*
X005597Y014911D02*
X005597Y014601D01*
X005723Y014475D01*
X006818Y014475D01*
X006973Y014630D01*
X006978Y013945D02*
X006943Y013927D01*
X006781Y013815D01*
X006293Y013815D01*
X006183Y013705D01*
X006183Y013310D01*
X005963Y013090D01*
X005577Y013090D01*
X005328Y012785D02*
X005158Y012785D01*
X005198Y012707D02*
X005288Y012707D01*
X005281Y012864D02*
X005205Y012864D01*
X005205Y012942D02*
X005281Y012942D01*
X005281Y013021D02*
X005205Y013021D01*
X005205Y013099D02*
X005281Y013099D01*
X005281Y013178D02*
X005222Y013178D01*
X004908Y013090D02*
X004633Y013090D01*
X004453Y013270D01*
X004453Y014100D01*
X004423Y014130D01*
X004888Y014141D02*
X004888Y013769D01*
X004888Y014141D02*
X004933Y014185D01*
X006163Y014185D01*
X006263Y014085D01*
X006553Y014085D01*
X006583Y014055D01*
X006978Y013945D02*
X007203Y013720D01*
X007203Y013115D01*
X007192Y013090D01*
X007058Y013090D01*
X006876Y012942D02*
X005874Y012942D01*
X005874Y012864D02*
X006876Y012864D01*
X006925Y012785D02*
X005827Y012785D01*
X005760Y012707D02*
X005670Y012707D01*
X005479Y012383D02*
X005479Y012321D01*
X005203Y012045D01*
X005053Y012045D01*
X004898Y011890D01*
X004893Y011795D01*
X004813Y011790D01*
X005029Y011686D02*
X005251Y011686D01*
X005229Y011608D02*
X005113Y011608D01*
X005192Y011529D02*
X005232Y011529D01*
X005258Y011451D02*
X005265Y011451D01*
X005264Y011372D02*
X005357Y011372D01*
X005327Y011294D02*
X006427Y011294D01*
X006265Y011451D02*
X006186Y011451D01*
X006433Y011765D02*
X006614Y011765D01*
X006678Y011843D02*
X006433Y011843D01*
X006433Y011922D02*
X006884Y011922D01*
X006955Y012000D02*
X006433Y012000D01*
X006635Y012079D02*
X007888Y012079D01*
X007967Y012157D02*
X006662Y012157D01*
X006662Y012236D02*
X008037Y012236D01*
X008038Y012314D02*
X006662Y012314D01*
X006662Y012393D02*
X008038Y012393D01*
X008070Y012383D02*
X007546Y012383D01*
X006896Y012383D01*
X006662Y012471D02*
X008038Y012471D01*
X008039Y012550D02*
X006662Y012550D01*
X006662Y012628D02*
X007082Y012628D01*
X007003Y012707D02*
X006615Y012707D01*
X007083Y011930D02*
X006828Y011655D01*
X006860Y011372D02*
X006678Y011372D01*
X006559Y011294D02*
X006896Y011294D01*
X006999Y011215D02*
X005352Y011215D01*
X005351Y011137D02*
X008031Y011137D01*
X008031Y011215D02*
X007187Y011215D01*
X007289Y011294D02*
X008032Y011294D01*
X008032Y011372D02*
X007325Y011372D01*
X007332Y011451D02*
X008033Y011451D01*
X008033Y011529D02*
X007315Y011529D01*
X007263Y011608D02*
X008033Y011608D01*
X008034Y011686D02*
X007067Y011686D01*
X007120Y011765D02*
X008034Y011765D01*
X007938Y011930D02*
X008348Y012340D01*
X008348Y012735D01*
X007938Y011930D02*
X007083Y011930D01*
X007678Y012925D02*
X007698Y012975D01*
X007678Y012925D02*
X007678Y013315D01*
X008148Y014560D02*
X008153Y014560D01*
X008268Y014675D01*
X008233Y011550D02*
X008243Y011540D01*
X008030Y011058D02*
X005319Y011058D01*
X005242Y010980D02*
X008030Y010980D01*
X008029Y010901D02*
X007870Y010901D01*
X007882Y010823D02*
X008029Y010823D01*
X008029Y010744D02*
X007882Y010744D01*
X007882Y010666D02*
X008028Y010666D01*
X008028Y010587D02*
X007882Y010587D01*
X007861Y010509D02*
X008027Y010509D01*
X008027Y010430D02*
X007868Y010430D01*
X007929Y010352D02*
X008026Y010352D01*
X008026Y010273D02*
X008008Y010273D01*
X005951Y012219D02*
X005708Y011975D01*
X005538Y011975D01*
X005488Y011925D01*
X005263Y011843D02*
X005050Y011843D01*
X005052Y011765D02*
X005309Y011765D01*
X004769Y012393D02*
X004299Y012393D01*
X004299Y012471D02*
X004769Y012471D01*
X004769Y012550D02*
X004299Y012550D01*
X004299Y012628D02*
X004769Y012628D01*
X004815Y012707D02*
X004253Y012707D01*
X003933Y012780D02*
X003693Y012780D01*
X003589Y012676D01*
X003589Y012383D01*
X003593Y012386D01*
X003589Y012383D02*
X002940Y012383D01*
X003266Y011843D02*
X003457Y011843D01*
X003390Y011765D02*
X003276Y011765D01*
X003276Y011686D02*
X003363Y011686D01*
X003363Y011608D02*
X003276Y011608D01*
X003276Y011529D02*
X003393Y011529D01*
X003463Y011451D02*
X003251Y011451D01*
X004253Y011372D02*
X004448Y011372D01*
X004369Y011451D02*
X004325Y011451D01*
X005951Y012219D02*
X005951Y012383D01*
X005951Y012266D01*
X005951Y012383D02*
X005970Y012383D01*
X006008Y012420D01*
X004193Y014920D02*
X004608Y015335D01*
X004193Y014920D02*
X004193Y014805D01*
X004163Y014775D01*
X005582Y003720D02*
X005443Y003581D01*
X005438Y003181D01*
X004488Y002470D02*
X004238Y002720D01*
X003688Y002720D01*
X003339Y003068D01*
X003150Y003068D01*
X003638Y002670D02*
X003638Y002187D01*
X003838Y002184D02*
X003838Y002470D01*
X003888Y002520D01*
X003888Y002005D01*
X004233Y002215D02*
X004233Y002375D01*
X004088Y002520D01*
X003888Y002520D01*
X003688Y002720D02*
X003638Y002670D01*
X007617Y002261D02*
X008024Y002261D01*
X008048Y002275D01*
D36*
X006898Y002455D02*
X006898Y001710D01*
X006948Y001540D01*
X006933Y000534D01*
X006938Y000530D01*
X006898Y003125D02*
X006893Y003130D01*
X006893Y004570D01*
X007031Y004709D01*
X007001Y004725D01*
X006424Y005408D01*
X006424Y006674D01*
X007016Y004893D02*
X007001Y004725D01*
X007546Y007402D02*
X008071Y007402D01*
X008073Y007400D01*
X007546Y011182D02*
X007546Y011654D01*
X007660Y011540D01*
X008243Y011540D01*
X007553Y015403D02*
X007553Y015840D01*
X007552Y015840D01*
X007933Y015840D01*
X007983Y015890D01*
X007553Y015840D02*
X007553Y016105D01*
X007143Y016515D01*
X007143Y017039D01*
X007142Y017040D01*
X006335Y017040D01*
X006390Y016985D01*
X006388Y016345D02*
X006398Y016335D01*
X006398Y016020D01*
X006233Y015855D01*
X005758Y015855D01*
X007142Y017040D02*
X007297Y017195D01*
X007388Y017195D01*
X003673Y016640D02*
X003303Y017010D01*
X003288Y017010D01*
X003288Y017120D01*
X003288Y017010D02*
X003288Y016955D01*
X002363Y017020D02*
X001763Y016420D01*
X001763Y016060D01*
X001743Y016040D01*
X002131Y015428D02*
X001743Y015040D01*
X002131Y015428D02*
X002938Y015428D01*
X002363Y017020D02*
X002363Y017120D01*
X002873Y013090D02*
X003258Y013090D01*
X002873Y013090D02*
X002493Y012710D01*
X002493Y011660D01*
X002934Y011660D01*
X002940Y011654D01*
X002493Y011660D02*
X002493Y011460D01*
X002493Y009900D01*
X002628Y009764D01*
X002940Y009764D01*
D37*
X006523Y013090D02*
X006443Y013205D01*
D38*
X006443Y013470D01*
X006478Y013505D01*
X006363Y013463D02*
X007023Y013463D01*
X007023Y013427D02*
X006918Y013427D01*
X006836Y013345D01*
X006836Y012835D01*
X006878Y012793D01*
X006878Y012775D01*
X006955Y012699D01*
X006896Y012699D01*
X006743Y012699D01*
X006713Y012687D01*
X006702Y012675D01*
X006702Y012677D01*
X006620Y012759D01*
X006228Y012759D01*
X006188Y012718D01*
X006147Y012759D01*
X005858Y012759D01*
X005914Y012815D01*
X005914Y012910D01*
X006037Y012910D01*
X006236Y013108D01*
X006505Y013108D01*
X006505Y013072D01*
X006227Y013072D01*
X006227Y012877D01*
X006239Y012848D01*
X006261Y012825D01*
X006291Y012813D01*
X006505Y012813D01*
X006505Y013072D01*
X006542Y013072D01*
X006542Y013108D01*
X006820Y013108D01*
X006820Y013303D01*
X006808Y013332D01*
X006785Y013355D01*
X006756Y013367D01*
X006542Y013367D01*
X006542Y013108D01*
X006505Y013108D01*
X006505Y013367D01*
X006363Y013367D01*
X006363Y013630D01*
X006367Y013635D01*
X006675Y013635D01*
X006675Y013623D01*
X006757Y013541D01*
X007023Y013541D01*
X007023Y013427D01*
X006836Y013305D02*
X006819Y013305D01*
X006820Y013146D02*
X006836Y013146D01*
X006820Y013072D02*
X006542Y013072D01*
X006542Y012813D01*
X006756Y012813D01*
X006785Y012825D01*
X006808Y012848D01*
X006820Y012877D01*
X006820Y013072D01*
X006820Y012988D02*
X006836Y012988D01*
X006842Y012829D02*
X006789Y012829D01*
X006896Y012699D02*
X006896Y012383D01*
X006896Y012383D01*
X006896Y012699D01*
X006896Y012671D02*
X006896Y012671D01*
X006896Y012512D02*
X006896Y012512D01*
X006896Y012383D02*
X007114Y012383D01*
X007114Y012555D01*
X007230Y012555D01*
X007230Y012421D01*
X007508Y012421D01*
X007508Y012344D01*
X007230Y012344D01*
X007230Y012130D01*
X007238Y012110D01*
X007153Y012110D01*
X007151Y012113D01*
X007106Y012111D01*
X007114Y012130D01*
X007114Y012383D01*
X006896Y012383D01*
X006896Y012383D01*
X006896Y012383D01*
X006896Y012066D01*
X006743Y012066D01*
X006713Y012078D01*
X006702Y012090D01*
X006702Y012088D01*
X006620Y012006D01*
X006473Y012006D01*
X006473Y011830D01*
X006473Y011804D01*
X006548Y011804D01*
X006582Y011790D01*
X006591Y011813D01*
X006670Y011892D01*
X006772Y011934D01*
X006841Y011934D01*
X006903Y012001D01*
X006903Y012005D01*
X006953Y012055D01*
X006964Y012066D01*
X006896Y012066D01*
X006896Y012383D01*
X006896Y012354D02*
X006896Y012354D01*
X006896Y012195D02*
X006896Y012195D01*
X006935Y012037D02*
X006650Y012037D01*
X006656Y011878D02*
X006473Y011878D01*
X006739Y011390D02*
X006772Y011376D01*
X006815Y011376D01*
X006856Y011277D01*
X006935Y011198D01*
X007037Y011156D01*
X007148Y011156D01*
X007230Y011190D01*
X007230Y011182D01*
X007546Y011182D01*
X007546Y011182D01*
X007546Y011400D01*
X007798Y011400D01*
X007827Y011387D01*
X007850Y011365D01*
X007862Y011335D01*
X007862Y011182D01*
X007546Y011182D01*
X007546Y011400D01*
X007372Y011400D01*
X007372Y011436D01*
X007546Y011436D01*
X007798Y011436D01*
X007827Y011449D01*
X007850Y011471D01*
X007862Y011500D01*
X007862Y011654D01*
X007546Y011654D01*
X007546Y011436D01*
X007546Y011654D01*
X007546Y011654D01*
X007546Y011654D01*
X007862Y011654D01*
X007862Y011750D01*
X008012Y011750D01*
X008258Y011995D01*
X008258Y011944D01*
X008332Y011765D01*
X008468Y011629D01*
X008646Y011555D01*
X008839Y011555D01*
X009018Y011629D01*
X009080Y011691D01*
X009080Y011389D01*
X009018Y011451D01*
X008839Y011525D01*
X008646Y011525D01*
X008468Y011451D01*
X008332Y011315D01*
X008258Y011136D01*
X008258Y010944D01*
X008332Y010765D01*
X008468Y010629D01*
X008646Y010555D01*
X008839Y010555D01*
X009018Y010629D01*
X009080Y010691D01*
X009080Y010389D01*
X009018Y010451D01*
X008839Y010525D01*
X008646Y010525D01*
X008468Y010451D01*
X008332Y010315D01*
X008258Y010136D01*
X008258Y009944D01*
X008332Y009765D01*
X008468Y009629D01*
X008646Y009555D01*
X008839Y009555D01*
X009018Y009629D01*
X009080Y009691D01*
X009080Y009389D01*
X009018Y009451D01*
X008839Y009525D01*
X008646Y009525D01*
X008468Y009451D01*
X008332Y009315D01*
X008258Y009136D01*
X008258Y008944D01*
X008332Y008765D01*
X008468Y008629D01*
X008646Y008555D01*
X008839Y008555D01*
X009018Y008629D01*
X009080Y008692D01*
X009080Y008388D01*
X009018Y008451D01*
X008839Y008525D01*
X008646Y008525D01*
X008468Y008451D01*
X008332Y008315D01*
X008258Y008136D01*
X008258Y007944D01*
X008332Y007765D01*
X008468Y007629D01*
X008646Y007555D01*
X008839Y007555D01*
X009018Y007629D01*
X009081Y007692D01*
X009081Y007388D01*
X009018Y007451D01*
X008839Y007525D01*
X008646Y007525D01*
X008468Y007451D01*
X008332Y007315D01*
X008258Y007136D01*
X008258Y006944D01*
X008332Y006765D01*
X008468Y006629D01*
X008646Y006555D01*
X008839Y006555D01*
X009018Y006629D01*
X009081Y006692D01*
X009081Y006388D01*
X009018Y006451D01*
X008839Y006525D01*
X008646Y006525D01*
X008468Y006451D01*
X008332Y006315D01*
X008258Y006136D01*
X008258Y005944D01*
X008332Y005765D01*
X008468Y005629D01*
X008646Y005555D01*
X008839Y005555D01*
X009018Y005629D01*
X009081Y005693D01*
X009081Y005387D01*
X009018Y005451D01*
X008839Y005525D01*
X008646Y005525D01*
X008468Y005451D01*
X008332Y005315D01*
X008258Y005136D01*
X008258Y004944D01*
X008332Y004765D01*
X008468Y004629D01*
X008646Y004555D01*
X008839Y004555D01*
X009018Y004629D01*
X009082Y004693D01*
X009082Y004287D01*
X008116Y004287D01*
X008116Y004367D01*
X008104Y004396D01*
X008081Y004419D01*
X008052Y004431D01*
X007626Y004431D01*
X007626Y004287D01*
X007579Y004287D01*
X007579Y004431D01*
X007588Y004453D01*
X007588Y004997D01*
X007579Y005019D01*
X007579Y005019D01*
X007579Y005282D01*
X007626Y005282D01*
X007626Y005019D01*
X008052Y005019D01*
X008081Y005031D01*
X008104Y005054D01*
X008116Y005083D01*
X008116Y005282D01*
X007626Y005282D01*
X007626Y005329D01*
X007579Y005329D01*
X007579Y005592D01*
X007154Y005592D01*
X007124Y005580D01*
X007102Y005558D01*
X007090Y005528D01*
X007090Y005395D01*
X006924Y005591D01*
X006924Y006319D01*
X006940Y006358D01*
X007050Y006358D01*
X007079Y006370D01*
X007102Y006392D01*
X007114Y006422D01*
X007114Y006674D01*
X007114Y006926D01*
X007102Y006955D01*
X007079Y006978D01*
X007050Y006990D01*
X006940Y006990D01*
X006923Y007030D01*
X006981Y007053D01*
X007059Y007132D01*
X007102Y007234D01*
X007102Y007346D01*
X007059Y007448D01*
X006981Y007527D01*
X006878Y007569D01*
X006767Y007569D01*
X006665Y007527D01*
X006613Y007475D01*
X006561Y007527D01*
X006458Y007569D01*
X006347Y007569D01*
X006245Y007527D01*
X006197Y007478D01*
X006098Y007519D01*
X005987Y007519D01*
X005885Y007477D01*
X005806Y007398D01*
X005764Y007296D01*
X005764Y007184D01*
X005806Y007082D01*
X005885Y007003D01*
X005909Y006993D01*
X005908Y006990D01*
X005798Y006990D01*
X005768Y006978D01*
X005746Y006955D01*
X005734Y006926D01*
X005734Y006674D01*
X005906Y006674D01*
X005906Y006674D01*
X005734Y006674D01*
X005734Y006422D01*
X005746Y006392D01*
X005768Y006370D01*
X005798Y006358D01*
X005908Y006358D01*
X005924Y006319D01*
X005924Y005439D01*
X005847Y005439D01*
X005745Y005397D01*
X005720Y005372D01*
X005691Y005402D01*
X005588Y005444D01*
X005477Y005444D01*
X005375Y005402D01*
X005296Y005323D01*
X005254Y005221D01*
X002193Y005221D01*
X002228Y005136D02*
X002154Y005315D01*
X002018Y005451D01*
X001839Y005525D01*
X001646Y005525D01*
X001468Y005451D01*
X001436Y005419D01*
X001435Y005661D01*
X001468Y005629D01*
X001646Y005555D01*
X001839Y005555D01*
X002018Y005629D01*
X002154Y005765D01*
X002228Y005944D01*
X002228Y006136D01*
X002154Y006315D01*
X002018Y006451D01*
X001839Y006525D01*
X001646Y006525D01*
X001468Y006451D01*
X001433Y006416D01*
X001432Y006665D01*
X001468Y006629D01*
X001646Y006555D01*
X001839Y006555D01*
X002018Y006629D01*
X002154Y006765D01*
X002228Y006944D01*
X002228Y007136D01*
X002154Y007315D01*
X002018Y007451D01*
X001839Y007525D01*
X001646Y007525D01*
X001468Y007451D01*
X001430Y007413D01*
X001429Y007668D01*
X001468Y007629D01*
X001646Y007555D01*
X001839Y007555D01*
X002018Y007629D01*
X002154Y007765D01*
X002228Y007944D01*
X002228Y008136D01*
X002154Y008315D01*
X002018Y008451D01*
X001839Y008525D01*
X001646Y008525D01*
X001468Y008451D01*
X001427Y008410D01*
X001426Y008671D01*
X001468Y008629D01*
X001646Y008555D01*
X001839Y008555D01*
X002018Y008629D01*
X002154Y008765D01*
X002228Y008944D01*
X002228Y009136D01*
X002154Y009315D01*
X002018Y009451D01*
X001839Y009525D01*
X001646Y009525D01*
X001468Y009451D01*
X001424Y009407D01*
X001423Y009674D01*
X001468Y009629D01*
X001646Y009555D01*
X001839Y009555D01*
X002018Y009629D01*
X002154Y009765D01*
X002228Y009944D01*
X002228Y010136D01*
X002154Y010315D01*
X002018Y010451D01*
X001839Y010525D01*
X001646Y010525D01*
X001468Y010451D01*
X001421Y010404D01*
X001420Y010677D01*
X001468Y010629D01*
X001646Y010555D01*
X001839Y010555D01*
X002018Y010629D01*
X002154Y010765D01*
X002228Y010944D01*
X002228Y011136D01*
X002154Y011315D01*
X002018Y011451D01*
X001839Y011525D01*
X001646Y011525D01*
X001468Y011451D01*
X001417Y011401D01*
X001417Y011680D01*
X001468Y011629D01*
X001646Y011555D01*
X001839Y011555D01*
X002018Y011629D01*
X002154Y011765D01*
X002228Y011944D01*
X002228Y012136D01*
X002154Y012315D01*
X002018Y012451D01*
X001839Y012525D01*
X001646Y012525D01*
X001468Y012451D01*
X001414Y012397D01*
X001413Y012683D01*
X001468Y012629D01*
X001646Y012555D01*
X001839Y012555D01*
X002018Y012629D01*
X002154Y012765D01*
X002228Y012944D01*
X002228Y013136D01*
X002154Y013315D01*
X002018Y013451D01*
X001839Y013525D01*
X001646Y013525D01*
X001468Y013451D01*
X001411Y013394D01*
X001410Y013687D01*
X001468Y013629D01*
X001646Y013555D01*
X001839Y013555D01*
X002018Y013629D01*
X002078Y013689D01*
X002064Y013656D01*
X002064Y013544D01*
X002106Y013442D01*
X002185Y013363D01*
X002274Y013327D01*
X002274Y013244D01*
X002316Y013142D01*
X002395Y013063D01*
X002454Y013039D01*
X002272Y012857D01*
X002233Y012762D01*
X002233Y011562D01*
X002214Y011516D01*
X002214Y011404D01*
X002233Y011358D01*
X002233Y009848D01*
X002272Y009753D01*
X002346Y009680D01*
X002408Y009617D01*
X002481Y009544D01*
X002577Y009504D01*
X002580Y009504D01*
X002563Y009488D01*
X002563Y009096D01*
X002645Y009014D01*
X002647Y009014D01*
X002636Y009003D01*
X002623Y008973D01*
X002623Y008820D01*
X002940Y008820D01*
X003256Y008820D01*
X003256Y008973D01*
X003244Y009003D01*
X003232Y009014D01*
X003234Y009014D01*
X003316Y009096D01*
X003316Y009488D01*
X003275Y009528D01*
X003316Y009569D01*
X003316Y009960D01*
X003234Y010042D01*
X003232Y010042D01*
X003244Y010054D01*
X003256Y010083D01*
X003256Y010237D01*
X003256Y010391D01*
X003244Y010420D01*
X003221Y010442D01*
X003192Y010455D01*
X002940Y010455D01*
X002940Y010237D01*
X003256Y010237D01*
X002940Y010237D01*
X002940Y010237D01*
X002940Y010237D01*
X002940Y010455D01*
X002753Y010455D01*
X002753Y010491D01*
X002940Y010491D01*
X003192Y010491D01*
X003221Y010504D01*
X003244Y010526D01*
X003256Y010556D01*
X003256Y010709D01*
X002940Y010709D01*
X002940Y010709D01*
X002940Y010491D01*
X002940Y010709D01*
X002940Y010709D01*
X003256Y010709D01*
X003256Y010863D01*
X003244Y010892D01*
X003221Y010915D01*
X003192Y010927D01*
X004316Y010927D01*
X004316Y010866D02*
X003844Y010866D01*
X003844Y010556D01*
X003856Y010526D01*
X003879Y010504D01*
X003908Y010491D01*
X004316Y010491D01*
X004316Y010866D01*
X004316Y011026D01*
X004316Y011379D01*
X004350Y011413D01*
X004358Y011405D01*
X004463Y011300D01*
X004476Y011300D01*
X004476Y011026D01*
X004316Y011026D01*
X003844Y011026D01*
X003844Y011335D01*
X003856Y011365D01*
X003879Y011387D01*
X003901Y011397D01*
X003881Y011417D01*
X003844Y011506D01*
X003838Y011492D01*
X003760Y011413D01*
X003657Y011371D01*
X003546Y011371D01*
X003444Y011413D01*
X003365Y011492D01*
X003323Y011594D01*
X003323Y011706D01*
X003365Y011808D01*
X003444Y011887D01*
X003546Y011929D01*
X003657Y011929D01*
X003760Y011887D01*
X003838Y011808D01*
X003875Y011719D01*
X003881Y011733D01*
X003913Y011765D01*
X003911Y011767D01*
X003869Y011869D01*
X003869Y011921D01*
X003862Y011928D01*
X003862Y012011D01*
X003784Y012088D01*
X003784Y012090D01*
X003772Y012078D01*
X003743Y012066D01*
X003589Y012066D01*
X003589Y012383D01*
X003589Y012699D01*
X003436Y012699D01*
X003406Y012687D01*
X003384Y012664D01*
X003371Y012635D01*
X003371Y012383D01*
X003589Y012383D01*
X003589Y012383D01*
X003589Y012383D01*
X003589Y012699D01*
X003743Y012699D01*
X003772Y012687D01*
X003784Y012675D01*
X003784Y012677D01*
X003866Y012759D01*
X004257Y012759D01*
X004339Y012677D01*
X004339Y012675D01*
X004351Y012687D01*
X004380Y012699D01*
X004534Y012699D01*
X004534Y012383D01*
X004534Y012383D01*
X004534Y012699D01*
X004688Y012699D01*
X004717Y012687D01*
X004729Y012675D01*
X004729Y012677D01*
X004786Y012733D01*
X004653Y012733D01*
X004571Y012815D01*
X004571Y012910D01*
X004558Y012910D01*
X004378Y013090D01*
X004273Y013195D01*
X004273Y013890D01*
X004265Y013893D01*
X004186Y013972D01*
X004144Y014074D01*
X004144Y014186D01*
X004186Y014288D01*
X004265Y014367D01*
X004367Y014409D01*
X004478Y014409D01*
X004581Y014367D01*
X004659Y014288D01*
X004702Y014186D01*
X004702Y014185D01*
X004708Y014185D01*
X004708Y014215D01*
X004753Y014260D01*
X004858Y014365D01*
X004863Y014365D01*
X004733Y014495D01*
X004614Y014495D01*
X004549Y014560D01*
X004549Y014551D01*
X004467Y014469D01*
X003918Y014469D01*
X003836Y014551D01*
X003836Y015060D01*
X003916Y015140D01*
X003836Y015220D01*
X003836Y015729D01*
X003918Y015811D01*
X003993Y015811D01*
X003993Y015967D01*
X003950Y016010D01*
X003764Y016010D01*
X003764Y015935D01*
X003682Y015853D01*
X003173Y015853D01*
X003093Y015933D01*
X003013Y015853D01*
X002588Y015853D01*
X002579Y015832D01*
X002501Y015753D01*
X002398Y015711D01*
X002287Y015711D01*
X002185Y015753D01*
X002160Y015779D01*
X002154Y015765D01*
X002018Y015629D01*
X001839Y015555D01*
X001646Y015555D01*
X001468Y015629D01*
X001404Y015693D01*
X001405Y015298D01*
X001419Y015317D01*
X001466Y015364D01*
X001520Y015403D01*
X001580Y015434D01*
X001643Y015455D01*
X001709Y015465D01*
X001735Y015465D01*
X001735Y015048D01*
X001750Y015048D01*
X001735Y015048D01*
X001750Y015048D02*
X001750Y015465D01*
X001776Y015465D01*
X001842Y015455D01*
X001906Y015434D01*
X001966Y015403D01*
X002020Y015364D01*
X002067Y015317D01*
X002106Y015263D01*
X002137Y015203D01*
X002157Y015140D01*
X002168Y015073D01*
X002168Y015048D01*
X003356Y015048D01*
X003362Y015042D02*
X003734Y015042D01*
X003816Y015124D01*
X003816Y015732D01*
X003734Y015814D01*
X003362Y015814D01*
X003280Y015732D01*
X003280Y015124D01*
X003362Y015042D01*
X003280Y015207D02*
X003146Y015207D01*
X003146Y015166D02*
X003146Y015428D01*
X002938Y015428D01*
X002938Y015428D01*
X002938Y015102D01*
X003082Y015102D01*
X003111Y015114D01*
X003133Y015137D01*
X003146Y015166D01*
X003146Y015365D02*
X003280Y015365D01*
X003280Y015524D02*
X003146Y015524D01*
X003146Y015428D02*
X003146Y015690D01*
X003133Y015720D01*
X003111Y015742D01*
X003082Y015754D01*
X002938Y015754D01*
X002938Y015428D01*
X002938Y015428D01*
X003146Y015428D01*
X002938Y015428D02*
X002938Y015428D01*
X002938Y015102D01*
X002794Y015102D01*
X002764Y015114D01*
X002742Y015137D01*
X002730Y015166D01*
X002730Y015428D01*
X002938Y015428D01*
X002938Y015428D01*
X002938Y015754D01*
X002794Y015754D01*
X002764Y015742D01*
X002742Y015720D01*
X002730Y015690D01*
X002730Y015428D01*
X002938Y015428D01*
X002938Y015365D02*
X002938Y015365D01*
X002938Y015207D02*
X002938Y015207D01*
X002730Y015207D02*
X002135Y015207D01*
X002168Y015048D02*
X001750Y015048D01*
X001750Y015032D01*
X001750Y014615D01*
X001776Y014615D01*
X001842Y014625D01*
X001906Y014646D01*
X001966Y014677D01*
X002020Y014716D01*
X002067Y014763D01*
X002106Y014817D01*
X002137Y014877D01*
X002157Y014940D01*
X002168Y015007D01*
X002168Y015032D01*
X001750Y015032D01*
X001735Y015032D01*
X001735Y014615D01*
X001709Y014615D01*
X001643Y014625D01*
X001580Y014646D01*
X001520Y014677D01*
X001466Y014716D01*
X001419Y014763D01*
X001407Y014779D01*
X001408Y014391D01*
X001468Y014451D01*
X001646Y014525D01*
X001839Y014525D01*
X002018Y014451D01*
X002154Y014315D01*
X002192Y014224D01*
X002225Y014257D01*
X002327Y014299D01*
X002438Y014299D01*
X002541Y014257D01*
X002619Y014178D01*
X002662Y014076D01*
X002662Y013964D01*
X002619Y013862D01*
X002547Y013790D01*
X002579Y013758D01*
X002622Y013656D01*
X002622Y013573D01*
X002711Y013537D01*
X002789Y013458D01*
X002832Y013356D01*
X002832Y013350D01*
X002907Y013350D01*
X002984Y013427D01*
X003511Y013427D01*
X003478Y013460D01*
X003373Y013565D01*
X003373Y013566D01*
X003362Y013566D01*
X003280Y013648D01*
X003280Y014256D01*
X003362Y014338D01*
X003734Y014338D01*
X003816Y014256D01*
X003816Y013817D01*
X003897Y013817D01*
X003999Y013774D01*
X004078Y013696D01*
X004120Y013593D01*
X004120Y013482D01*
X004078Y013380D01*
X004065Y013367D01*
X004160Y013367D01*
X004189Y013355D01*
X004212Y013332D01*
X004224Y013303D01*
X004224Y013108D01*
X003946Y013108D01*
X003946Y013072D01*
X004224Y013072D01*
X004224Y012877D01*
X004212Y012848D01*
X004189Y012825D01*
X004160Y012813D01*
X003946Y012813D01*
X003946Y013072D01*
X003909Y013072D01*
X003631Y013072D01*
X003631Y012877D01*
X003643Y012848D01*
X003666Y012825D01*
X003695Y012813D01*
X003909Y012813D01*
X003909Y013072D01*
X003909Y013108D01*
X003631Y013108D01*
X003631Y013303D01*
X003643Y013332D01*
X003648Y013337D01*
X003627Y013358D01*
X003602Y013358D01*
X003615Y013345D01*
X003615Y012835D01*
X003533Y012753D01*
X002984Y012753D01*
X002944Y012793D01*
X002849Y012699D01*
X002902Y012699D01*
X002902Y012421D01*
X002978Y012421D01*
X002978Y012699D01*
X003192Y012699D01*
X003221Y012687D01*
X003244Y012664D01*
X003256Y012635D01*
X003256Y012421D01*
X002978Y012421D01*
X002978Y012344D01*
X002978Y012066D01*
X003192Y012066D01*
X003221Y012078D01*
X003244Y012101D01*
X003256Y012130D01*
X003256Y012344D01*
X002978Y012344D01*
X002902Y012344D01*
X002902Y012066D01*
X002753Y012066D01*
X002753Y011932D01*
X003234Y011932D01*
X003316Y011850D01*
X003316Y011458D01*
X003234Y011376D01*
X003232Y011376D01*
X003244Y011365D01*
X003256Y011335D01*
X003256Y011182D01*
X002940Y011182D01*
X002940Y011182D01*
X003256Y011182D01*
X003256Y011028D01*
X003244Y010999D01*
X003221Y010976D01*
X003192Y010964D01*
X002940Y010964D01*
X002940Y011182D01*
X002940Y011182D01*
X002940Y010964D01*
X002753Y010964D01*
X002753Y010927D01*
X002940Y010927D01*
X002940Y010927D01*
X002940Y010709D01*
X002940Y010709D01*
X002940Y010927D01*
X003192Y010927D01*
X003256Y010769D02*
X003844Y010769D01*
X003844Y010610D02*
X003256Y010610D01*
X003199Y010452D02*
X005260Y010452D01*
X005285Y010477D02*
X005206Y010398D01*
X005190Y010359D01*
X005093Y010399D01*
X004982Y010399D01*
X004880Y010357D01*
X004801Y010278D01*
X004759Y010176D01*
X004759Y010064D01*
X004793Y009982D01*
X004476Y009982D01*
X004476Y009608D01*
X004316Y009608D01*
X004316Y009448D01*
X003844Y009448D01*
X003844Y009138D01*
X003856Y009109D01*
X003879Y009086D01*
X003908Y009074D01*
X004316Y009074D01*
X004316Y009448D01*
X004476Y009448D01*
X004476Y009074D01*
X004885Y009074D01*
X004914Y009086D01*
X004937Y009109D01*
X004949Y009138D01*
X004949Y009448D01*
X004476Y009448D01*
X004476Y009608D01*
X004949Y009608D01*
X004949Y009855D01*
X004982Y009841D01*
X005093Y009841D01*
X005143Y009861D01*
X005143Y009263D01*
X004900Y009020D01*
X003730Y009020D01*
X003613Y008903D01*
X003284Y008574D01*
X003234Y008625D01*
X003232Y008625D01*
X003244Y008636D01*
X003256Y008666D01*
X003256Y008820D01*
X002940Y008820D01*
X002940Y008820D01*
X002940Y008820D01*
X002623Y008820D01*
X002623Y008666D01*
X002636Y008636D01*
X002647Y008625D01*
X002645Y008625D01*
X002563Y008543D01*
X002563Y008151D01*
X002604Y008111D01*
X002563Y008070D01*
X002563Y007679D01*
X002604Y007638D01*
X002563Y007598D01*
X002563Y007206D01*
X002645Y007124D01*
X003234Y007124D01*
X003316Y007206D01*
X003316Y007598D01*
X003275Y007638D01*
X003316Y007679D01*
X003316Y008070D01*
X003275Y008111D01*
X003312Y008147D01*
X003423Y008147D01*
X003896Y008620D01*
X005066Y008620D01*
X005426Y008980D01*
X005543Y009097D01*
X005543Y009124D01*
X005549Y009109D01*
X005572Y009086D01*
X005601Y009074D01*
X006009Y009074D01*
X006009Y009448D01*
X006169Y009448D01*
X006169Y009074D01*
X006578Y009074D01*
X006607Y009086D01*
X006630Y009109D01*
X006635Y009123D01*
X006680Y009078D01*
X006782Y009036D01*
X006893Y009036D01*
X006996Y009078D01*
X007074Y009157D01*
X007117Y009259D01*
X007117Y009371D01*
X007074Y009473D01*
X006996Y009552D01*
X006893Y009594D01*
X006782Y009594D01*
X006680Y009552D01*
X006601Y009473D01*
X006591Y009448D01*
X006169Y009448D01*
X006169Y009608D01*
X006009Y009608D01*
X006009Y009982D01*
X005601Y009982D01*
X005572Y009970D01*
X005549Y009948D01*
X005543Y009933D01*
X005543Y009979D01*
X005601Y010003D01*
X005679Y010082D01*
X005722Y010184D01*
X005722Y010296D01*
X005679Y010398D01*
X005601Y010477D01*
X005498Y010519D01*
X005387Y010519D01*
X005285Y010477D01*
X005168Y010906D02*
X005057Y010906D01*
X004955Y010948D01*
X004878Y011026D01*
X004476Y011026D01*
X004476Y010866D01*
X004949Y010866D01*
X004949Y010556D01*
X004937Y010526D01*
X004914Y010504D01*
X004885Y010491D01*
X004476Y010491D01*
X004476Y010866D01*
X004316Y010866D01*
X004316Y010769D02*
X004476Y010769D01*
X004476Y010927D02*
X005006Y010927D01*
X004949Y010769D02*
X005537Y010769D01*
X005537Y010866D02*
X005537Y010556D01*
X005549Y010526D01*
X005572Y010504D01*
X005601Y010491D01*
X006009Y010491D01*
X006009Y010866D01*
X005537Y010866D01*
X005537Y011026D02*
X006009Y011026D01*
X006009Y010866D01*
X006169Y010866D01*
X006169Y011026D01*
X006642Y011026D01*
X006642Y011285D01*
X006651Y011288D01*
X006729Y011367D01*
X006739Y011390D01*
X006642Y011244D02*
X006889Y011244D01*
X006642Y011086D02*
X007230Y011086D01*
X007230Y011028D02*
X007242Y010999D01*
X007253Y010987D01*
X007252Y010987D01*
X007170Y010905D01*
X007170Y010514D01*
X007210Y010473D01*
X007170Y010433D01*
X007170Y010041D01*
X007210Y010001D01*
X007170Y009960D01*
X007170Y009569D01*
X007210Y009528D01*
X007170Y009488D01*
X007170Y009096D01*
X007210Y009056D01*
X007170Y009015D01*
X007170Y008624D01*
X007180Y008614D01*
X007118Y008639D01*
X007007Y008639D01*
X006905Y008597D01*
X006826Y008518D01*
X006784Y008416D01*
X006784Y008304D01*
X006826Y008202D01*
X006905Y008123D01*
X007007Y008081D01*
X007118Y008081D01*
X007204Y008117D01*
X007210Y008111D01*
X007170Y008070D01*
X007170Y007679D01*
X007252Y007597D01*
X007253Y007597D01*
X007242Y007585D01*
X007230Y007556D01*
X007230Y007402D01*
X007230Y007248D01*
X007242Y007219D01*
X007264Y007197D01*
X007294Y007184D01*
X007546Y007184D01*
X007798Y007184D01*
X007827Y007197D01*
X007850Y007219D01*
X007862Y007248D01*
X007862Y007402D01*
X007546Y007402D01*
X007546Y007184D01*
X007546Y007402D01*
X007546Y007402D01*
X007546Y007402D01*
X007230Y007402D01*
X007546Y007402D01*
X007546Y007402D01*
X007862Y007402D01*
X007862Y007556D01*
X007850Y007585D01*
X007838Y007597D01*
X007840Y007597D01*
X007922Y007679D01*
X007922Y008070D01*
X007882Y008111D01*
X007922Y008151D01*
X007922Y008543D01*
X007882Y008583D01*
X007922Y008624D01*
X007922Y009015D01*
X007882Y009056D01*
X007922Y009096D01*
X007922Y009165D01*
X008023Y009265D01*
X008123Y009365D01*
X008123Y010215D01*
X008017Y010320D01*
X007922Y010415D01*
X007922Y010433D01*
X007882Y010473D01*
X007922Y010514D01*
X007922Y010905D01*
X007840Y010987D01*
X007838Y010987D01*
X007850Y010999D01*
X007862Y011028D01*
X007862Y011182D01*
X007546Y011182D01*
X007546Y011182D01*
X007546Y011182D01*
X007230Y011182D01*
X007230Y011028D01*
X007192Y010927D02*
X006169Y010927D01*
X006169Y010866D02*
X006642Y010866D01*
X006642Y010556D01*
X006630Y010526D01*
X006607Y010504D01*
X006578Y010491D01*
X006169Y010491D01*
X006169Y010866D01*
X006169Y010769D02*
X006009Y010769D01*
X006009Y010927D02*
X005219Y010927D01*
X005168Y010906D02*
X005271Y010948D01*
X005349Y011027D01*
X005392Y011129D01*
X005392Y011241D01*
X005355Y011330D01*
X005412Y011306D01*
X005523Y011306D01*
X005537Y011312D01*
X005537Y011026D01*
X005537Y011086D02*
X005374Y011086D01*
X005390Y011244D02*
X005537Y011244D01*
X005537Y010610D02*
X004949Y010610D01*
X004816Y010293D02*
X003256Y010293D01*
X003256Y010135D02*
X004759Y010135D01*
X004949Y009818D02*
X005143Y009818D01*
X005143Y009659D02*
X004949Y009659D01*
X004949Y009342D02*
X005143Y009342D01*
X005143Y009501D02*
X004476Y009501D01*
X004476Y009659D02*
X004316Y009659D01*
X004316Y009608D02*
X004316Y009982D01*
X003908Y009982D01*
X003879Y009970D01*
X003856Y009948D01*
X003844Y009918D01*
X003844Y009608D01*
X004316Y009608D01*
X004316Y009501D02*
X003303Y009501D01*
X003316Y009659D02*
X003844Y009659D01*
X003844Y009818D02*
X003316Y009818D01*
X003300Y009976D02*
X003893Y009976D01*
X003844Y009342D02*
X003316Y009342D01*
X003316Y009184D02*
X003844Y009184D01*
X003576Y008867D02*
X003256Y008867D01*
X003245Y009025D02*
X004905Y009025D01*
X004949Y009184D02*
X005063Y009184D01*
X005312Y008867D02*
X007170Y008867D01*
X007179Y009025D02*
X005471Y009025D01*
X005601Y008565D02*
X005572Y008553D01*
X005549Y008530D01*
X005537Y008501D01*
X005537Y008191D01*
X006009Y008191D01*
X006009Y008031D01*
X005537Y008031D01*
X005537Y007721D01*
X005549Y007692D01*
X005572Y007669D01*
X005601Y007657D01*
X006009Y007657D01*
X006009Y008031D01*
X006169Y008031D01*
X006169Y007657D01*
X006578Y007657D01*
X006607Y007669D01*
X006630Y007692D01*
X006642Y007721D01*
X006642Y008031D01*
X006169Y008031D01*
X006169Y008191D01*
X006009Y008191D01*
X006009Y008565D01*
X005601Y008565D01*
X005568Y008550D02*
X004917Y008550D01*
X004914Y008553D02*
X004885Y008565D01*
X004476Y008565D01*
X004476Y008191D01*
X004316Y008191D01*
X004316Y008031D01*
X003844Y008031D01*
X003844Y007721D01*
X003856Y007692D01*
X003879Y007669D01*
X003908Y007657D01*
X004316Y007657D01*
X004316Y008031D01*
X004476Y008031D01*
X004476Y007657D01*
X004885Y007657D01*
X004914Y007669D01*
X004937Y007692D01*
X004949Y007721D01*
X004949Y008031D01*
X004476Y008031D01*
X004476Y008191D01*
X004949Y008191D01*
X004949Y008501D01*
X004937Y008530D01*
X004914Y008553D01*
X004949Y008391D02*
X005537Y008391D01*
X005537Y008233D02*
X004949Y008233D01*
X004949Y007916D02*
X005537Y007916D01*
X005537Y007757D02*
X004949Y007757D01*
X005007Y006990D02*
X004853Y006990D01*
X004823Y006978D01*
X004801Y006955D01*
X004789Y006926D01*
X004789Y006674D01*
X005007Y006674D01*
X005224Y006674D01*
X005224Y006926D01*
X005212Y006955D01*
X005190Y006978D01*
X005160Y006990D01*
X005007Y006990D01*
X005007Y006674D01*
X005007Y006674D01*
X005224Y006674D01*
X005224Y006422D01*
X005212Y006392D01*
X005190Y006370D01*
X005160Y006358D01*
X005007Y006358D01*
X005007Y006674D01*
X005007Y006674D01*
X005007Y006674D01*
X005007Y006990D01*
X005007Y006965D02*
X005007Y006965D01*
X005007Y006806D02*
X005007Y006806D01*
X005007Y006674D02*
X005007Y006674D01*
X005007Y006358D01*
X004853Y006358D01*
X004823Y006370D01*
X004801Y006392D01*
X004789Y006422D01*
X004789Y006674D01*
X005007Y006674D01*
X005007Y006648D02*
X005007Y006648D01*
X005007Y006489D02*
X005007Y006489D01*
X004789Y006489D02*
X004752Y006489D01*
X004752Y006422D02*
X004752Y006674D01*
X004752Y006926D01*
X004740Y006955D01*
X004717Y006978D01*
X004688Y006990D01*
X004534Y006990D01*
X004380Y006990D01*
X004351Y006978D01*
X004339Y006966D01*
X004339Y006968D01*
X004257Y007050D01*
X003866Y007050D01*
X003825Y007010D01*
X003785Y007050D01*
X003393Y007050D01*
X003311Y006968D01*
X003311Y006380D01*
X003393Y006298D01*
X003785Y006298D01*
X003825Y006338D01*
X003866Y006298D01*
X004257Y006298D01*
X004339Y006380D01*
X004339Y006381D01*
X004351Y006370D01*
X004380Y006358D01*
X004534Y006358D01*
X004534Y006674D01*
X004534Y006990D01*
X004534Y006674D01*
X004534Y006674D01*
X004752Y006674D01*
X004534Y006674D01*
X004534Y006674D01*
X004534Y006674D01*
X004534Y006358D01*
X004688Y006358D01*
X004717Y006370D01*
X004740Y006392D01*
X004752Y006422D01*
X004752Y006648D02*
X004789Y006648D01*
X004789Y006806D02*
X004752Y006806D01*
X004731Y006965D02*
X004810Y006965D01*
X004534Y006965D02*
X004534Y006965D01*
X004534Y006806D02*
X004534Y006806D01*
X004534Y006648D02*
X004534Y006648D01*
X004534Y006489D02*
X004534Y006489D01*
X004290Y006331D02*
X005919Y006331D01*
X005924Y006172D02*
X002213Y006172D01*
X002228Y006014D02*
X005924Y006014D01*
X005924Y005855D02*
X002191Y005855D01*
X002085Y005697D02*
X005924Y005697D01*
X005924Y005538D02*
X001436Y005538D01*
X001439Y004658D02*
X001468Y004629D01*
X001646Y004555D01*
X001839Y004555D01*
X002018Y004629D01*
X002154Y004765D01*
X002228Y004944D01*
X002228Y005136D01*
X002228Y005063D02*
X005273Y005063D01*
X005254Y005109D02*
X005296Y005007D01*
X005363Y004940D01*
X005335Y004913D01*
X005313Y004860D01*
X003397Y004860D01*
X003351Y004907D01*
X003248Y004949D01*
X003137Y004949D01*
X003035Y004907D01*
X002956Y004828D01*
X002914Y004726D01*
X002914Y004614D01*
X002938Y004557D01*
X002892Y004557D01*
X002892Y004656D01*
X002849Y004758D01*
X002771Y004837D01*
X002668Y004879D01*
X002557Y004879D01*
X002455Y004837D01*
X002376Y004758D01*
X002334Y004656D01*
X002334Y004559D01*
X002122Y004560D01*
X002119Y004563D01*
X002044Y004560D01*
X001970Y004560D01*
X001966Y004557D01*
X001962Y004557D01*
X001911Y004502D01*
X001887Y004478D01*
X001834Y004500D01*
X001651Y004500D01*
X001482Y004430D01*
X001439Y004387D01*
X001439Y004658D01*
X001439Y004587D02*
X001569Y004587D01*
X001481Y004429D02*
X001439Y004429D01*
X001917Y004587D02*
X002334Y004587D01*
X002371Y004746D02*
X002134Y004746D01*
X002211Y004904D02*
X003032Y004904D01*
X002922Y004746D02*
X002855Y004746D01*
X002892Y004587D02*
X002925Y004587D01*
X003353Y004904D02*
X005332Y004904D01*
X005254Y005109D02*
X005254Y005221D01*
X005353Y005380D02*
X002089Y005380D01*
X002138Y006331D02*
X003361Y006331D01*
X003244Y006392D02*
X003256Y006422D01*
X003256Y006636D01*
X002978Y006636D01*
X002978Y006712D01*
X003256Y006712D01*
X003256Y006926D01*
X003244Y006955D01*
X003221Y006978D01*
X003192Y006990D01*
X002978Y006990D01*
X002978Y006712D01*
X002902Y006712D01*
X002902Y006990D01*
X002688Y006990D01*
X002658Y006978D01*
X002636Y006955D01*
X002623Y006926D01*
X002623Y006712D01*
X002902Y006712D01*
X002902Y006636D01*
X002978Y006636D01*
X002978Y006358D01*
X003192Y006358D01*
X003221Y006370D01*
X003244Y006392D01*
X003256Y006489D02*
X003311Y006489D01*
X003311Y006648D02*
X002978Y006648D01*
X002902Y006648D02*
X002036Y006648D01*
X001926Y006489D02*
X002623Y006489D01*
X002623Y006422D02*
X002636Y006392D01*
X002658Y006370D01*
X002688Y006358D01*
X002902Y006358D01*
X002902Y006636D01*
X002623Y006636D01*
X002623Y006422D01*
X002623Y006806D02*
X002171Y006806D01*
X002228Y006965D02*
X002645Y006965D01*
X002563Y007282D02*
X002168Y007282D01*
X002228Y007123D02*
X005789Y007123D01*
X005764Y007282D02*
X003316Y007282D01*
X003316Y007440D02*
X005848Y007440D01*
X006009Y007757D02*
X006169Y007757D01*
X006169Y007916D02*
X006009Y007916D01*
X006009Y008074D02*
X004476Y008074D01*
X004476Y007916D02*
X004316Y007916D01*
X004316Y008074D02*
X003312Y008074D01*
X003316Y007916D02*
X003844Y007916D01*
X003844Y007757D02*
X003316Y007757D01*
X003315Y007599D02*
X007250Y007599D01*
X007230Y007440D02*
X007063Y007440D01*
X007102Y007282D02*
X007230Y007282D01*
X007050Y007123D02*
X008258Y007123D01*
X008258Y006965D02*
X007841Y006965D01*
X007850Y006955D02*
X007827Y006978D01*
X007798Y006990D01*
X007584Y006990D01*
X007584Y006712D01*
X007508Y006712D01*
X007508Y006990D01*
X007294Y006990D01*
X007264Y006978D01*
X007242Y006955D01*
X007230Y006926D01*
X007230Y006712D01*
X007508Y006712D01*
X007508Y006636D01*
X007230Y006636D01*
X007230Y006422D01*
X007242Y006392D01*
X007264Y006370D01*
X007294Y006358D01*
X007508Y006358D01*
X007508Y006636D01*
X007584Y006636D01*
X007584Y006712D01*
X007862Y006712D01*
X007862Y006926D01*
X007850Y006955D01*
X007862Y006806D02*
X008315Y006806D01*
X008449Y006648D02*
X007584Y006648D01*
X007584Y006636D02*
X007862Y006636D01*
X007862Y006422D01*
X007850Y006392D01*
X007827Y006370D01*
X007798Y006358D01*
X007584Y006358D01*
X007584Y006636D01*
X007508Y006648D02*
X007114Y006648D01*
X007114Y006674D02*
X006942Y006674D01*
X007114Y006674D01*
X007114Y006806D02*
X007230Y006806D01*
X007251Y006965D02*
X007093Y006965D01*
X006942Y006674D02*
X006942Y006674D01*
X006929Y006331D02*
X008347Y006331D01*
X008273Y006172D02*
X006924Y006172D01*
X006924Y006014D02*
X008258Y006014D01*
X008294Y005855D02*
X006924Y005855D01*
X006924Y005697D02*
X008400Y005697D01*
X008396Y005380D02*
X008116Y005380D01*
X008116Y005329D02*
X008116Y005528D01*
X008104Y005558D01*
X008081Y005580D01*
X008052Y005592D01*
X007626Y005592D01*
X007626Y005329D01*
X008116Y005329D01*
X008116Y005221D02*
X008293Y005221D01*
X008258Y005063D02*
X008107Y005063D01*
X008274Y004904D02*
X007588Y004904D01*
X007588Y004746D02*
X008351Y004746D01*
X008569Y004587D02*
X007588Y004587D01*
X007579Y004431D02*
X007579Y004431D01*
X007579Y004429D02*
X007626Y004429D01*
X008058Y004429D02*
X009082Y004429D01*
X009082Y004587D02*
X008917Y004587D01*
X009081Y005538D02*
X008112Y005538D01*
X007626Y005538D02*
X007579Y005538D01*
X007579Y005380D02*
X007626Y005380D01*
X007626Y005221D02*
X007579Y005221D01*
X007579Y005063D02*
X007626Y005063D01*
X007094Y005538D02*
X006968Y005538D01*
X007114Y006489D02*
X007230Y006489D01*
X007508Y006489D02*
X007584Y006489D01*
X007862Y006489D02*
X008559Y006489D01*
X008926Y006489D02*
X009081Y006489D01*
X009081Y006648D02*
X009036Y006648D01*
X009029Y007440D02*
X009081Y007440D01*
X009081Y007599D02*
X008944Y007599D01*
X008541Y007599D02*
X007842Y007599D01*
X007862Y007440D02*
X008457Y007440D01*
X008318Y007282D02*
X007862Y007282D01*
X007584Y006965D02*
X007508Y006965D01*
X007508Y006806D02*
X007584Y006806D01*
X007546Y007282D02*
X007546Y007282D01*
X007170Y007757D02*
X006642Y007757D01*
X006642Y007916D02*
X007170Y007916D01*
X007173Y008074D02*
X006169Y008074D01*
X006169Y008191D02*
X006642Y008191D01*
X006642Y008501D01*
X006630Y008530D01*
X006607Y008553D01*
X006578Y008565D01*
X006169Y008565D01*
X006169Y008191D01*
X006169Y008233D02*
X006009Y008233D01*
X006009Y008391D02*
X006169Y008391D01*
X006169Y008550D02*
X006009Y008550D01*
X006009Y009184D02*
X006169Y009184D01*
X006169Y009342D02*
X006009Y009342D01*
X006009Y009659D02*
X006169Y009659D01*
X006169Y009608D02*
X006169Y009982D01*
X006578Y009982D01*
X006607Y009970D01*
X006630Y009948D01*
X006642Y009918D01*
X006642Y009608D01*
X006169Y009608D01*
X006169Y009501D02*
X006629Y009501D01*
X006642Y009659D02*
X007170Y009659D01*
X007170Y009818D02*
X006642Y009818D01*
X006593Y009976D02*
X007186Y009976D01*
X007170Y010135D02*
X005701Y010135D01*
X005722Y010293D02*
X007170Y010293D01*
X007189Y010452D02*
X005626Y010452D01*
X005586Y009976D02*
X005543Y009976D01*
X006009Y009976D02*
X006169Y009976D01*
X006169Y009818D02*
X006009Y009818D01*
X006009Y010610D02*
X006169Y010610D01*
X006642Y010610D02*
X007170Y010610D01*
X007170Y010769D02*
X006642Y010769D01*
X007047Y009501D02*
X007183Y009501D01*
X007170Y009342D02*
X007117Y009342D01*
X007085Y009184D02*
X007170Y009184D01*
X007170Y008708D02*
X005154Y008708D01*
X004476Y008550D02*
X004316Y008550D01*
X004316Y008565D02*
X004316Y008191D01*
X003844Y008191D01*
X003844Y008501D01*
X003856Y008530D01*
X003879Y008553D01*
X003908Y008565D01*
X004316Y008565D01*
X004316Y008391D02*
X004476Y008391D01*
X004476Y008233D02*
X004316Y008233D01*
X004316Y007757D02*
X004476Y007757D01*
X003844Y008233D02*
X003508Y008233D01*
X003667Y008391D02*
X003844Y008391D01*
X003825Y008550D02*
X003875Y008550D01*
X003418Y008708D02*
X003256Y008708D01*
X002623Y008708D02*
X002097Y008708D01*
X002196Y008867D02*
X002623Y008867D01*
X002635Y009025D02*
X002228Y009025D01*
X002208Y009184D02*
X002563Y009184D01*
X002563Y009342D02*
X002127Y009342D01*
X002048Y009659D02*
X002366Y009659D01*
X002346Y009680D02*
X002346Y009680D01*
X002408Y009617D02*
X002408Y009617D01*
X002576Y009501D02*
X001898Y009501D01*
X001587Y009501D02*
X001423Y009501D01*
X001423Y009659D02*
X001438Y009659D01*
X001420Y010452D02*
X001469Y010452D01*
X001513Y010610D02*
X001420Y010610D01*
X001417Y011403D02*
X001419Y011403D01*
X001417Y011561D02*
X001632Y011561D01*
X001854Y011561D02*
X002233Y011561D01*
X002233Y011720D02*
X002108Y011720D01*
X002201Y011878D02*
X002233Y011878D01*
X002228Y012037D02*
X002233Y012037D01*
X002233Y012195D02*
X002204Y012195D01*
X002233Y012354D02*
X002115Y012354D01*
X002233Y012512D02*
X001871Y012512D01*
X002059Y012671D02*
X002233Y012671D01*
X002261Y012829D02*
X002180Y012829D01*
X002228Y012988D02*
X002403Y012988D01*
X002315Y013146D02*
X002224Y013146D01*
X002274Y013305D02*
X002158Y013305D01*
X002097Y013463D02*
X001989Y013463D01*
X002000Y013622D02*
X002064Y013622D01*
X002178Y014256D02*
X002224Y014256D01*
X002055Y014414D02*
X004814Y014414D01*
X004749Y014256D02*
X004673Y014256D01*
X004220Y013939D02*
X003816Y013939D01*
X003816Y014097D02*
X004144Y014097D01*
X004173Y014256D02*
X003816Y014256D01*
X003836Y014573D02*
X001408Y014573D01*
X001407Y014731D02*
X001451Y014731D01*
X001735Y014731D02*
X001750Y014731D01*
X001735Y014890D02*
X001750Y014890D01*
X001735Y015207D02*
X001750Y015207D01*
X001735Y015365D02*
X001750Y015365D01*
X002018Y015365D02*
X002730Y015365D01*
X002730Y015524D02*
X001405Y015524D01*
X001404Y015682D02*
X001415Y015682D01*
X001405Y015365D02*
X001467Y015365D01*
X002035Y014731D02*
X003836Y014731D01*
X003836Y014890D02*
X002141Y014890D01*
X002542Y014256D02*
X002670Y014256D01*
X002752Y014338D01*
X003124Y014338D01*
X003206Y014256D01*
X003206Y013648D01*
X003124Y013566D01*
X002752Y013566D01*
X002670Y013648D01*
X002670Y014256D01*
X002653Y014097D02*
X002670Y014097D01*
X002670Y013939D02*
X002651Y013939D01*
X002670Y013780D02*
X002557Y013780D01*
X002622Y013622D02*
X002696Y013622D01*
X002784Y013463D02*
X003475Y013463D01*
X003306Y013622D02*
X003179Y013622D01*
X003206Y013780D02*
X003280Y013780D01*
X003280Y013939D02*
X003206Y013939D01*
X003206Y014097D02*
X003280Y014097D01*
X003280Y014256D02*
X003206Y014256D01*
X003740Y015048D02*
X003836Y015048D01*
X003850Y015207D02*
X003816Y015207D01*
X003816Y015365D02*
X003836Y015365D01*
X003836Y015524D02*
X003816Y015524D01*
X003816Y015682D02*
X003836Y015682D01*
X003764Y015999D02*
X003961Y015999D01*
X003993Y015841D02*
X002583Y015841D01*
X002730Y015682D02*
X002071Y015682D01*
X001503Y016472D02*
X001542Y016567D01*
X001616Y016640D01*
X001698Y016723D01*
X001698Y017515D01*
X001398Y017515D01*
X001402Y016385D01*
X001468Y016451D01*
X001503Y016466D01*
X001503Y016472D01*
X001504Y016475D02*
X001402Y016475D01*
X001401Y016633D02*
X001608Y016633D01*
X001698Y016792D02*
X001401Y016792D01*
X001400Y016950D02*
X001698Y016950D01*
X001698Y017109D02*
X001400Y017109D01*
X001399Y017267D02*
X001698Y017267D01*
X001698Y017426D02*
X001399Y017426D01*
X002938Y015682D02*
X002938Y015682D01*
X002938Y015524D02*
X002938Y015524D01*
X003146Y015682D02*
X003280Y015682D01*
X003837Y016410D02*
X003950Y016410D01*
X004116Y016410D01*
X004237Y016289D01*
X004237Y016312D01*
X004376Y016451D01*
X004574Y016451D01*
X004692Y016333D01*
X004731Y016333D01*
X004731Y015987D01*
X004731Y015987D01*
X004731Y016333D01*
X004790Y016333D01*
X004850Y016393D01*
X005853Y016393D01*
X005912Y016451D01*
X006109Y016451D01*
X006124Y016437D01*
X006151Y016503D01*
X006202Y016554D01*
X006194Y016557D01*
X006145Y016590D01*
X006104Y016631D01*
X006072Y016679D01*
X006072Y016608D01*
X005990Y016526D01*
X005283Y016526D01*
X005245Y016564D01*
X005202Y016522D01*
X004496Y016522D01*
X004414Y016604D01*
X004414Y016679D01*
X004382Y016631D01*
X004341Y016590D01*
X004292Y016557D01*
X004237Y016535D01*
X004180Y016523D01*
X004150Y016523D01*
X004150Y016748D01*
X004150Y016748D01*
X004150Y016523D01*
X004121Y016523D01*
X004063Y016535D01*
X004009Y016557D01*
X003960Y016590D01*
X003952Y016598D01*
X003952Y016584D01*
X003909Y016482D01*
X003837Y016410D01*
X003902Y016475D02*
X006139Y016475D01*
X006102Y016633D02*
X006072Y016633D01*
X006373Y016370D02*
X006388Y016345D01*
X006642Y016459D02*
X006624Y016503D01*
X006546Y016582D01*
X006526Y016590D01*
X006567Y016631D01*
X006600Y016680D01*
X006622Y016735D01*
X006634Y016792D01*
X006634Y016988D01*
X006635Y016991D01*
X006635Y017109D01*
X006634Y017112D01*
X006634Y017288D01*
X006622Y017345D01*
X006600Y017400D01*
X006567Y017449D01*
X006526Y017490D01*
X006488Y017515D01*
X009078Y017515D01*
X009078Y016391D01*
X009018Y016451D01*
X008839Y016525D01*
X008646Y016525D01*
X008468Y016451D01*
X008377Y016360D01*
X008352Y016385D01*
X008253Y016485D01*
X008253Y016957D01*
X008276Y016980D01*
X008276Y017410D01*
X008194Y017492D01*
X007763Y017492D01*
X007681Y017410D01*
X007681Y016980D01*
X007691Y016969D01*
X007632Y016969D01*
X007530Y016927D01*
X007451Y016848D01*
X007409Y016746D01*
X007409Y016634D01*
X007451Y016532D01*
X007530Y016453D01*
X007632Y016411D01*
X007743Y016411D01*
X007846Y016453D01*
X007893Y016500D01*
X007893Y016335D01*
X007998Y016230D01*
X008088Y016140D01*
X008088Y015559D01*
X008028Y015584D01*
X007917Y015584D01*
X007815Y015542D01*
X007761Y015488D01*
X007761Y015665D01*
X007749Y015695D01*
X007726Y015717D01*
X007697Y015729D01*
X007553Y015729D01*
X007553Y015403D01*
X007345Y015403D01*
X007345Y015230D01*
X007211Y015230D01*
X007211Y015707D01*
X007129Y015789D01*
X006757Y015789D01*
X006675Y015707D01*
X006675Y015315D01*
X006624Y015315D01*
X006624Y015709D01*
X006542Y015791D01*
X006537Y015791D01*
X006545Y015800D01*
X006618Y015873D01*
X006658Y015968D01*
X006658Y016045D01*
X006680Y016023D01*
X006782Y015981D01*
X006913Y015981D01*
X007016Y016023D01*
X007094Y016102D01*
X007137Y016204D01*
X007137Y016316D01*
X007912Y016316D01*
X007893Y016475D02*
X007867Y016475D01*
X008071Y016158D02*
X007117Y016158D01*
X007137Y016316D02*
X007094Y016418D01*
X007016Y016497D01*
X006913Y016539D01*
X006782Y016539D01*
X006680Y016497D01*
X006642Y016459D01*
X006636Y016475D02*
X006658Y016475D01*
X006568Y016633D02*
X007409Y016633D01*
X007428Y016792D02*
X006634Y016792D01*
X006634Y016950D02*
X007586Y016950D01*
X007590Y016970D02*
X007613Y016992D01*
X007625Y017022D01*
X007625Y017195D01*
X007625Y017368D01*
X007613Y017398D01*
X007590Y017420D01*
X007561Y017432D01*
X007388Y017432D01*
X007388Y017195D01*
X007625Y017195D01*
X007388Y017195D01*
X007388Y017195D01*
X007388Y017195D01*
X007388Y016958D01*
X007561Y016958D01*
X007590Y016970D01*
X007625Y017109D02*
X007681Y017109D01*
X007681Y017267D02*
X007625Y017267D01*
X007578Y017426D02*
X007696Y017426D01*
X007388Y017426D02*
X007388Y017426D01*
X007388Y017432D02*
X007214Y017432D01*
X007185Y017420D01*
X007162Y017398D01*
X007150Y017368D01*
X007150Y017195D01*
X007150Y017022D01*
X007162Y016992D01*
X007185Y016970D01*
X007214Y016958D01*
X007388Y016958D01*
X007388Y017195D01*
X007388Y017195D01*
X007388Y017432D01*
X007388Y017267D02*
X007388Y017267D01*
X007388Y017195D02*
X007388Y017195D01*
X007150Y017195D01*
X007388Y017195D01*
X007388Y017109D02*
X007388Y017109D01*
X007197Y017426D02*
X006583Y017426D01*
X006634Y017267D02*
X007150Y017267D01*
X007150Y017109D02*
X006635Y017109D01*
X007038Y016475D02*
X007509Y016475D01*
X007553Y015729D02*
X007409Y015729D01*
X007380Y015717D01*
X007357Y015695D01*
X007345Y015665D01*
X007345Y015403D01*
X007553Y015403D01*
X007553Y015403D01*
X007553Y015403D01*
X007553Y015729D01*
X007553Y015682D02*
X007553Y015682D01*
X007553Y015524D02*
X007553Y015524D01*
X007761Y015524D02*
X007797Y015524D01*
X007754Y015682D02*
X008088Y015682D01*
X008088Y015841D02*
X006586Y015841D01*
X006624Y015682D02*
X006675Y015682D01*
X006675Y015524D02*
X006624Y015524D01*
X006624Y015365D02*
X006675Y015365D01*
X006658Y015999D02*
X006739Y015999D01*
X006957Y015999D02*
X008088Y015999D01*
X008263Y016475D02*
X008525Y016475D01*
X008253Y016633D02*
X009078Y016633D01*
X009078Y016475D02*
X008961Y016475D01*
X009078Y016792D02*
X008253Y016792D01*
X008253Y016950D02*
X009078Y016950D01*
X009078Y017109D02*
X008276Y017109D01*
X008276Y017267D02*
X009078Y017267D01*
X009078Y017426D02*
X008260Y017426D01*
X007352Y015682D02*
X007211Y015682D01*
X007211Y015524D02*
X007345Y015524D01*
X007345Y015365D02*
X007211Y015365D01*
X006676Y013622D02*
X006363Y013622D01*
X006505Y013305D02*
X006542Y013305D01*
X006542Y013146D02*
X006505Y013146D01*
X006505Y012988D02*
X006542Y012988D01*
X006542Y012829D02*
X006505Y012829D01*
X006258Y012829D02*
X005914Y012829D01*
X006115Y012988D02*
X006227Y012988D01*
X007114Y012512D02*
X007230Y012512D01*
X007114Y012354D02*
X007508Y012354D01*
X007584Y012354D02*
X008107Y012354D01*
X008168Y012415D02*
X007863Y012110D01*
X007854Y012110D01*
X007862Y012130D01*
X007862Y012344D01*
X007584Y012344D01*
X007584Y012421D01*
X007862Y012421D01*
X007862Y012555D01*
X008168Y012555D01*
X008168Y012415D01*
X008168Y012512D02*
X007862Y012512D01*
X007862Y012195D02*
X007948Y012195D01*
X008140Y011878D02*
X008285Y011878D01*
X008377Y011720D02*
X007862Y011720D01*
X007862Y011561D02*
X008632Y011561D01*
X008854Y011561D02*
X009080Y011561D01*
X009066Y011403D02*
X009080Y011403D01*
X009080Y010610D02*
X008972Y010610D01*
X009017Y010452D02*
X009080Y010452D01*
X008513Y010610D02*
X007922Y010610D01*
X007922Y010769D02*
X008330Y010769D01*
X008265Y010927D02*
X007900Y010927D01*
X007862Y011086D02*
X008258Y011086D01*
X008302Y011244D02*
X007862Y011244D01*
X007546Y011244D02*
X007546Y011244D01*
X007372Y011403D02*
X008419Y011403D01*
X008469Y010452D02*
X007903Y010452D01*
X008044Y010293D02*
X008323Y010293D01*
X008258Y010135D02*
X008123Y010135D01*
X008123Y009976D02*
X008258Y009976D01*
X008310Y009818D02*
X008123Y009818D01*
X008123Y009659D02*
X008438Y009659D01*
X008587Y009501D02*
X008123Y009501D01*
X008099Y009342D02*
X008359Y009342D01*
X008277Y009184D02*
X007941Y009184D01*
X007912Y009025D02*
X008258Y009025D01*
X008290Y008867D02*
X007922Y008867D01*
X007922Y008708D02*
X008389Y008708D01*
X008408Y008391D02*
X007922Y008391D01*
X007922Y008233D02*
X008298Y008233D01*
X008258Y008074D02*
X007919Y008074D01*
X007922Y007916D02*
X008269Y007916D01*
X008340Y007757D02*
X007922Y007757D01*
X007916Y008550D02*
X009080Y008550D01*
X009078Y008391D02*
X009080Y008391D01*
X009080Y009501D02*
X008898Y009501D01*
X009048Y009659D02*
X009080Y009659D01*
X007546Y011561D02*
X007546Y011561D01*
X007230Y012195D02*
X007114Y012195D01*
X008528Y012476D02*
X008528Y012673D01*
X008580Y012646D01*
X008643Y012625D01*
X008709Y012615D01*
X008735Y012615D01*
X008735Y013032D01*
X008750Y013032D01*
X008750Y012615D01*
X008776Y012615D01*
X008842Y012625D01*
X008906Y012646D01*
X008966Y012677D01*
X009020Y012716D01*
X009067Y012763D01*
X009079Y012780D01*
X009079Y012389D01*
X009018Y012451D01*
X008839Y012525D01*
X008646Y012525D01*
X008528Y012476D01*
X008528Y012512D02*
X008615Y012512D01*
X008532Y012671D02*
X008528Y012671D01*
X008735Y012671D02*
X008750Y012671D01*
X008735Y012829D02*
X008750Y012829D01*
X008735Y012988D02*
X008750Y012988D01*
X008750Y013048D02*
X008735Y013048D01*
X008735Y013465D01*
X008709Y013465D01*
X008643Y013455D01*
X008580Y013434D01*
X008528Y013407D01*
X008528Y013604D01*
X008646Y013555D01*
X008839Y013555D01*
X009018Y013629D01*
X009079Y013690D01*
X009079Y013300D01*
X009067Y013317D01*
X009020Y013364D01*
X008966Y013403D01*
X008906Y013434D01*
X008842Y013455D01*
X008776Y013465D01*
X008750Y013465D01*
X008750Y013048D01*
X008750Y013146D02*
X008735Y013146D01*
X008735Y013305D02*
X008750Y013305D01*
X008735Y013463D02*
X008750Y013463D01*
X008789Y013463D02*
X009079Y013463D01*
X009076Y013305D02*
X009079Y013305D01*
X009079Y013622D02*
X009000Y013622D01*
X008697Y013463D02*
X008528Y013463D01*
X008954Y012671D02*
X009079Y012671D01*
X009079Y012512D02*
X008871Y012512D01*
X006858Y008550D02*
X006610Y008550D01*
X006642Y008391D02*
X006784Y008391D01*
X006814Y008233D02*
X006642Y008233D01*
X005755Y006965D02*
X005676Y006965D01*
X005685Y006955D02*
X005662Y006978D01*
X005633Y006990D01*
X005479Y006990D01*
X005325Y006990D01*
X005296Y006978D01*
X005273Y006955D01*
X005261Y006926D01*
X005261Y006674D01*
X005479Y006674D01*
X005479Y006990D01*
X005479Y006674D01*
X005479Y006674D01*
X005479Y006674D01*
X005697Y006674D01*
X005697Y006926D01*
X005685Y006955D01*
X005697Y006806D02*
X005734Y006806D01*
X005697Y006674D02*
X005479Y006674D01*
X005479Y006674D01*
X005261Y006674D01*
X005261Y006422D01*
X005273Y006392D01*
X005296Y006370D01*
X005325Y006358D01*
X005479Y006358D01*
X005633Y006358D01*
X005662Y006370D01*
X005685Y006392D01*
X005697Y006422D01*
X005697Y006674D01*
X005697Y006648D02*
X005734Y006648D01*
X005734Y006489D02*
X005697Y006489D01*
X005479Y006489D02*
X005479Y006489D01*
X005479Y006358D02*
X005479Y006674D01*
X005479Y006674D01*
X005479Y006358D01*
X005479Y006648D02*
X005479Y006648D01*
X005479Y006806D02*
X005479Y006806D01*
X005479Y006965D02*
X005479Y006965D01*
X005283Y006965D02*
X005203Y006965D01*
X005224Y006806D02*
X005261Y006806D01*
X005261Y006648D02*
X005224Y006648D01*
X005224Y006489D02*
X005261Y006489D01*
X005713Y005380D02*
X005728Y005380D01*
X005329Y004480D02*
X005304Y004455D01*
X005304Y004287D01*
X004962Y004287D01*
X004962Y004363D01*
X004949Y004392D01*
X004927Y004415D01*
X004897Y004427D01*
X004744Y004427D01*
X004744Y004287D01*
X004744Y004287D01*
X004744Y004427D01*
X004590Y004427D01*
X004561Y004415D01*
X004538Y004392D01*
X004526Y004363D01*
X004526Y004287D01*
X004510Y004287D01*
X004510Y004405D01*
X004435Y004480D01*
X005329Y004480D01*
X005304Y004429D02*
X004486Y004429D01*
X003833Y006331D02*
X003818Y006331D01*
X003311Y006806D02*
X003256Y006806D01*
X003235Y006965D02*
X003311Y006965D01*
X002978Y006965D02*
X002902Y006965D01*
X002902Y006806D02*
X002978Y006806D01*
X002978Y006489D02*
X002902Y006489D01*
X002563Y007440D02*
X002029Y007440D01*
X001944Y007599D02*
X002564Y007599D01*
X002563Y007757D02*
X002146Y007757D01*
X002216Y007916D02*
X002563Y007916D01*
X002567Y008074D02*
X002228Y008074D01*
X002188Y008233D02*
X002563Y008233D01*
X002563Y008391D02*
X002078Y008391D01*
X002570Y008550D02*
X001426Y008550D01*
X001429Y007599D02*
X001541Y007599D01*
X001457Y007440D02*
X001430Y007440D01*
X001432Y006648D02*
X001449Y006648D01*
X001433Y006489D02*
X001559Y006489D01*
X002176Y009818D02*
X002246Y009818D01*
X002233Y009976D02*
X002228Y009976D01*
X002228Y010135D02*
X002233Y010135D01*
X002233Y010293D02*
X002163Y010293D01*
X002233Y010452D02*
X002017Y010452D01*
X001972Y010610D02*
X002233Y010610D01*
X002233Y010769D02*
X002155Y010769D01*
X002221Y010927D02*
X002233Y010927D01*
X002228Y011086D02*
X002233Y011086D01*
X002233Y011244D02*
X002183Y011244D01*
X002215Y011403D02*
X002066Y011403D01*
X002753Y012037D02*
X003836Y012037D01*
X003869Y011878D02*
X003768Y011878D01*
X003875Y011720D02*
X003876Y011720D01*
X003896Y011403D02*
X003733Y011403D01*
X003844Y011244D02*
X003256Y011244D01*
X003256Y011086D02*
X003844Y011086D01*
X003470Y011403D02*
X003260Y011403D01*
X003316Y011561D02*
X003336Y011561D01*
X003328Y011720D02*
X003316Y011720D01*
X003288Y011878D02*
X003435Y011878D01*
X003436Y012066D02*
X003589Y012066D01*
X003589Y012383D01*
X003371Y012383D01*
X003371Y012130D01*
X003384Y012101D01*
X003406Y012078D01*
X003436Y012066D01*
X003371Y012195D02*
X003256Y012195D01*
X003371Y012354D02*
X002978Y012354D01*
X002978Y012512D02*
X002902Y012512D01*
X002902Y012671D02*
X002978Y012671D01*
X003237Y012671D02*
X003390Y012671D01*
X003371Y012512D02*
X003256Y012512D01*
X002978Y012195D02*
X002902Y012195D01*
X002940Y011086D02*
X002940Y011086D01*
X002940Y010769D02*
X002940Y010769D01*
X002940Y010610D02*
X002940Y010610D01*
X002940Y010452D02*
X002940Y010452D01*
X002940Y010293D02*
X002940Y010293D01*
X003589Y012195D02*
X003589Y012195D01*
X003589Y012354D02*
X003589Y012354D01*
X003589Y012383D02*
X003589Y012383D01*
X003589Y012512D02*
X003589Y012512D01*
X003589Y012671D02*
X003589Y012671D01*
X003609Y012829D02*
X003662Y012829D01*
X003631Y012988D02*
X003615Y012988D01*
X003615Y013146D02*
X003631Y013146D01*
X003615Y013305D02*
X003632Y013305D01*
X003909Y012988D02*
X003946Y012988D01*
X003946Y012829D02*
X003909Y012829D01*
X004193Y012829D02*
X004571Y012829D01*
X004534Y012671D02*
X004534Y012671D01*
X004534Y012512D02*
X004534Y012512D01*
X004481Y012988D02*
X004224Y012988D01*
X004224Y013146D02*
X004322Y013146D01*
X004273Y013305D02*
X004223Y013305D01*
X004273Y013463D02*
X004112Y013463D01*
X004109Y013622D02*
X004273Y013622D01*
X004273Y013780D02*
X003985Y013780D01*
X004731Y015987D02*
X004731Y017128D01*
X004843Y017240D01*
X004414Y016633D02*
X004383Y016633D01*
X004150Y016633D02*
X004150Y016633D01*
X004210Y016316D02*
X004241Y016316D01*
X004731Y016316D02*
X004731Y016316D01*
X004731Y016158D02*
X004731Y016158D01*
X004731Y015999D02*
X004731Y015999D01*
X005755Y015987D02*
X005755Y015858D01*
X005758Y015855D01*
X004361Y011403D02*
X004340Y011403D01*
X004316Y011244D02*
X004476Y011244D01*
X004476Y011086D02*
X004316Y011086D01*
X004316Y010610D02*
X004476Y010610D01*
X004476Y009976D02*
X004316Y009976D01*
X004316Y009818D02*
X004476Y009818D01*
X004476Y009342D02*
X004316Y009342D01*
X004316Y009184D02*
X004476Y009184D01*
X001615Y012512D02*
X001414Y012512D01*
X001413Y012671D02*
X001426Y012671D01*
X001411Y013463D02*
X001497Y013463D01*
X001486Y013622D02*
X001411Y013622D01*
X001408Y014414D02*
X001431Y014414D01*
D39*
X005518Y015645D02*
X005518Y015968D01*
X005499Y015987D01*
X005518Y015645D02*
X005643Y015520D01*
X006173Y015520D01*
X006218Y015475D01*
X006268Y015455D01*
X006424Y012383D02*
X006293Y012251D01*
X006424Y012383D02*
X006488Y012319D01*
X005572Y004755D02*
X005582Y004220D01*
X005582Y004226D01*
X005588Y004670D01*
X003193Y004670D01*
X003428Y004365D02*
X002048Y004370D01*
X001743Y004040D01*
X002325Y003410D02*
X002923Y003410D01*
X002943Y003430D02*
X002883Y003370D01*
X002883Y002373D01*
X002947Y002309D01*
X003277Y002309D01*
X003277Y001980D01*
X003341Y001915D01*
X003747Y001915D01*
X003807Y001975D01*
X003839Y001975D01*
X003839Y002183D01*
X003839Y002390D01*
X003807Y002390D01*
X003788Y002409D01*
X003788Y002570D01*
X004176Y002570D01*
X004310Y002435D01*
X004265Y002390D01*
X004233Y002390D01*
X004201Y002390D01*
X004141Y002450D01*
X003932Y002450D01*
X003872Y002390D01*
X003839Y002390D01*
X003839Y002183D01*
X003839Y002183D01*
X003838Y002184D01*
X003839Y002183D02*
X003839Y002122D01*
X003838Y002120D01*
X003839Y002130D02*
X003839Y002130D01*
X003839Y002183D02*
X003839Y001975D01*
X003872Y001975D01*
X003888Y001959D01*
X003888Y001887D01*
X003639Y001887D01*
X003574Y001823D01*
X003574Y001377D01*
X003639Y001313D01*
X004005Y001313D01*
X004070Y001377D01*
X004070Y001399D01*
X004078Y001398D01*
X004146Y001447D01*
X004146Y001413D01*
X004154Y001395D01*
X004168Y001380D01*
X004186Y001373D01*
X004315Y001373D01*
X004315Y001581D01*
X004353Y001581D01*
X004353Y001619D01*
X004522Y001619D01*
X004522Y001787D01*
X004514Y001805D01*
X004500Y001820D01*
X004481Y001827D01*
X004353Y001827D01*
X004353Y001619D01*
X004315Y001619D01*
X004315Y001827D01*
X004188Y001827D01*
X004188Y001962D01*
X004201Y001975D01*
X004233Y001975D01*
X004233Y002183D01*
X004233Y002390D01*
X004233Y002183D01*
X004233Y002183D01*
X004233Y002215D01*
X004238Y002220D01*
X004233Y002228D02*
X004233Y002228D01*
X004233Y002183D02*
X004238Y002118D01*
X004233Y002130D02*
X004233Y002130D01*
X004233Y002183D02*
X004233Y001975D01*
X004265Y001975D01*
X004325Y001915D01*
X004471Y001915D01*
X004476Y001910D01*
X004634Y001910D01*
X004634Y001847D01*
X004699Y001783D01*
X004734Y001783D01*
X004738Y001647D01*
X004682Y001591D01*
X004644Y001500D01*
X004644Y001400D01*
X004682Y001309D01*
X004752Y001239D01*
X004843Y001201D01*
X004942Y001201D01*
X005034Y001239D01*
X005104Y001309D01*
X005142Y001400D01*
X005142Y001500D01*
X005104Y001591D01*
X005037Y001658D01*
X005034Y001783D01*
X005065Y001783D01*
X005130Y001847D01*
X005130Y002293D01*
X005102Y002320D01*
X005173Y002320D01*
X005146Y002293D01*
X005146Y001847D01*
X005210Y001783D01*
X005577Y001783D01*
X005642Y001847D01*
X005642Y001910D01*
X005684Y001910D01*
X005778Y002004D01*
X005804Y002030D01*
X005804Y002030D01*
X005898Y002124D01*
X005898Y002128D01*
X005957Y002069D01*
X006048Y002031D01*
X005805Y002031D01*
X005778Y002004D02*
X005778Y002004D01*
X005707Y001933D02*
X006428Y001933D01*
X006428Y001918D02*
X006382Y001806D01*
X006382Y001274D01*
X006435Y001145D01*
X006446Y001134D01*
X002283Y001125D01*
X002252Y003337D01*
X002623Y003708D01*
X002642Y003664D01*
X002712Y003594D01*
X002803Y003556D01*
X002902Y003556D01*
X002994Y003594D01*
X003064Y003664D01*
X003102Y003755D01*
X003102Y003839D01*
X003108Y003836D01*
X003152Y003836D01*
X003248Y003702D01*
X003248Y003688D01*
X003277Y003659D01*
X003277Y003571D01*
X003150Y003571D01*
X002983Y003571D01*
X002965Y003564D01*
X002951Y003550D01*
X002943Y003531D01*
X002943Y003462D01*
X002943Y003430D01*
X002943Y003462D02*
X003150Y003462D01*
X003150Y003462D01*
X002943Y003462D01*
X002943Y003509D02*
X002423Y003509D01*
X002522Y003607D02*
X002699Y003607D01*
X002624Y003706D02*
X002620Y003706D01*
X002883Y003312D02*
X002252Y003312D01*
X002254Y003213D02*
X002883Y003213D01*
X002883Y003115D02*
X002255Y003115D01*
X002256Y003016D02*
X002883Y003016D01*
X002883Y002918D02*
X002258Y002918D01*
X002259Y002819D02*
X002883Y002819D01*
X002883Y002721D02*
X002261Y002721D01*
X002262Y002622D02*
X002883Y002622D01*
X002883Y002524D02*
X002263Y002524D01*
X002265Y002425D02*
X002883Y002425D01*
X002930Y002327D02*
X002266Y002327D01*
X002267Y002228D02*
X003277Y002228D01*
X003277Y002130D02*
X002269Y002130D01*
X002270Y002031D02*
X003277Y002031D01*
X003324Y001933D02*
X002272Y001933D01*
X002273Y001834D02*
X003585Y001834D01*
X003574Y001736D02*
X002274Y001736D01*
X002276Y001637D02*
X003574Y001637D01*
X003574Y001539D02*
X002277Y001539D01*
X002278Y001440D02*
X003574Y001440D01*
X003610Y001342D02*
X002280Y001342D01*
X002281Y001243D02*
X004748Y001243D01*
X004668Y001342D02*
X004034Y001342D01*
X004137Y001440D02*
X004146Y001440D01*
X004238Y001560D02*
X004344Y001564D01*
X004353Y001581D02*
X004353Y001373D01*
X004481Y001373D01*
X004500Y001380D01*
X004514Y001395D01*
X004522Y001413D01*
X004522Y001581D01*
X004353Y001581D01*
X004334Y001600D02*
X004233Y001701D01*
X004315Y001736D02*
X004353Y001736D01*
X004353Y001637D02*
X004315Y001637D01*
X004315Y001539D02*
X004353Y001539D01*
X004353Y001440D02*
X004315Y001440D01*
X004522Y001440D02*
X004644Y001440D01*
X004660Y001539D02*
X004522Y001539D01*
X004522Y001637D02*
X004728Y001637D01*
X004735Y001736D02*
X004522Y001736D01*
X004647Y001834D02*
X004188Y001834D01*
X004188Y001933D02*
X004308Y001933D01*
X004233Y002031D02*
X004233Y002031D01*
X004233Y002183D02*
X004233Y002183D01*
X004233Y002327D02*
X004233Y002327D01*
X004166Y002425D02*
X004300Y002425D01*
X004222Y002524D02*
X003788Y002524D01*
X003788Y002425D02*
X003907Y002425D01*
X003839Y002327D02*
X003839Y002327D01*
X003839Y002228D02*
X003839Y002228D01*
X003839Y002183D02*
X003839Y002183D01*
X003839Y002031D02*
X003839Y002031D01*
X003888Y001933D02*
X003765Y001933D01*
X003638Y002178D02*
X003643Y002183D01*
X003638Y002187D01*
X003822Y001600D02*
X004038Y001566D01*
X004038Y002133D02*
X004036Y002183D01*
X004458Y002712D02*
X004388Y002782D01*
X004319Y002851D01*
X004352Y002930D01*
X004352Y003030D01*
X004314Y003121D01*
X004244Y003191D01*
X004152Y003229D01*
X004053Y003229D01*
X003962Y003191D01*
X003892Y003121D01*
X003854Y003030D01*
X003854Y002930D01*
X003879Y002870D01*
X003750Y002870D01*
X003418Y003202D01*
X003418Y003370D01*
X003358Y003430D01*
X003358Y003462D01*
X003150Y003462D01*
X003150Y003571D01*
X003150Y003462D01*
X003150Y003462D01*
X003148Y003465D01*
X003143Y003470D01*
X003150Y003462D02*
X003358Y003462D01*
X003358Y003490D01*
X003550Y003490D01*
X003747Y003490D01*
X004518Y003490D01*
X004518Y003462D01*
X004518Y003393D01*
X004525Y003375D01*
X004536Y003364D01*
X004525Y003353D01*
X004518Y003334D01*
X004518Y003265D01*
X004518Y003233D01*
X004458Y003173D01*
X004458Y002964D01*
X004518Y002904D01*
X004518Y002872D01*
X004725Y002872D01*
X004725Y002872D01*
X004889Y002872D01*
X004889Y002872D01*
X004725Y002872D01*
X004725Y002872D01*
X004518Y002872D01*
X004518Y002839D01*
X004458Y002779D01*
X004458Y002712D01*
X004458Y002721D02*
X004449Y002721D01*
X004497Y002819D02*
X004351Y002819D01*
X004347Y002918D02*
X004504Y002918D01*
X004458Y003016D02*
X004352Y003016D01*
X004317Y003115D02*
X004458Y003115D01*
X004498Y003213D02*
X004191Y003213D01*
X004015Y003213D02*
X003418Y003213D01*
X003418Y003312D02*
X004518Y003312D01*
X004518Y003265D02*
X004725Y003265D01*
X004518Y003265D01*
X004518Y003410D02*
X003378Y003410D01*
X003277Y003607D02*
X003007Y003607D01*
X003081Y003706D02*
X003245Y003706D01*
X003175Y003804D02*
X003102Y003804D01*
X003150Y003509D02*
X003150Y003509D01*
X003150Y003462D02*
X003150Y003462D01*
X003438Y003750D02*
X003446Y003757D01*
X003428Y004365D02*
X003638Y004370D01*
X003818Y004198D02*
X003984Y004198D01*
X003984Y004100D02*
X003790Y004100D01*
X003789Y004170D02*
X003849Y004229D01*
X003887Y004321D01*
X003887Y004420D01*
X003849Y004510D01*
X005416Y004510D01*
X005417Y004507D01*
X005399Y004507D01*
X005334Y004443D01*
X005334Y003997D01*
X005399Y003933D01*
X005409Y003933D01*
X005402Y003925D01*
X005394Y003907D01*
X005394Y003739D01*
X005563Y003739D01*
X005563Y003701D01*
X005601Y003701D01*
X005601Y003739D01*
X005770Y003739D01*
X005770Y003907D01*
X005762Y003925D01*
X005755Y003933D01*
X005765Y003933D01*
X005830Y003997D01*
X005830Y004443D01*
X005765Y004507D01*
X005746Y004507D01*
X005747Y004577D01*
X005783Y004614D01*
X005819Y004700D01*
X006408Y004699D01*
X006428Y004675D01*
X006423Y004663D01*
X006423Y003558D01*
X006404Y003539D01*
X006363Y003439D01*
X006323Y003439D01*
X006323Y003479D01*
X006342Y003497D01*
X006342Y003943D01*
X006314Y003970D01*
X006342Y003997D01*
X006342Y004443D01*
X006277Y004507D01*
X005910Y004507D01*
X005846Y004443D01*
X005846Y003997D01*
X005873Y003970D01*
X005846Y003943D01*
X005846Y003614D01*
X005770Y003614D01*
X005770Y003701D01*
X005601Y003701D01*
X005601Y003520D01*
X005587Y003506D01*
X005582Y003501D01*
X005544Y003410D01*
X004933Y003410D01*
X004933Y003393D02*
X004933Y003462D01*
X004725Y003462D01*
X004518Y003462D01*
X004725Y003462D01*
X004725Y003462D01*
X004725Y003462D01*
X004725Y003265D01*
X004725Y003265D01*
X004725Y003265D01*
X004725Y003353D01*
X004725Y003462D01*
X004725Y003571D01*
X004599Y003571D01*
X004599Y003943D01*
X004725Y003943D01*
X004725Y004151D01*
X004763Y004151D01*
X004763Y004189D01*
X004932Y004189D01*
X004932Y004357D01*
X004924Y004375D01*
X004910Y004390D01*
X004891Y004397D01*
X004763Y004397D01*
X004763Y004189D01*
X004725Y004189D01*
X004725Y004397D01*
X004596Y004397D01*
X004578Y004390D01*
X004564Y004375D01*
X004556Y004357D01*
X004556Y004189D01*
X004725Y004189D01*
X004725Y004151D01*
X004556Y004151D01*
X004556Y004004D01*
X004535Y004025D01*
X004480Y004025D01*
X004480Y004393D01*
X004415Y004457D01*
X004049Y004457D01*
X003984Y004393D01*
X003984Y004025D01*
X003790Y004025D01*
X003789Y004170D01*
X003877Y004297D02*
X003984Y004297D01*
X003986Y004395D02*
X003887Y004395D01*
X003856Y004494D02*
X005385Y004494D01*
X005334Y004395D02*
X004897Y004395D01*
X004932Y004297D02*
X005334Y004297D01*
X005334Y004198D02*
X004932Y004198D01*
X004932Y004151D02*
X004763Y004151D01*
X004763Y003943D01*
X004891Y003943D01*
X004910Y003950D01*
X004924Y003965D01*
X004932Y003983D01*
X004932Y004151D01*
X004932Y004100D02*
X005334Y004100D01*
X005334Y004001D02*
X004932Y004001D01*
X005098Y004170D02*
X004744Y004170D01*
X005118Y004170D01*
X005394Y003903D02*
X004599Y003903D01*
X004599Y003804D02*
X005394Y003804D01*
X005394Y003701D02*
X005394Y003533D01*
X005402Y003515D01*
X005416Y003500D01*
X005434Y003493D01*
X005563Y003493D01*
X005563Y003701D01*
X005394Y003701D01*
X005394Y003607D02*
X004599Y003607D01*
X004599Y003706D02*
X005563Y003706D01*
X005601Y003706D02*
X005846Y003706D01*
X005846Y003804D02*
X005770Y003804D01*
X005770Y003903D02*
X005846Y003903D01*
X005846Y004001D02*
X005830Y004001D01*
X005830Y004100D02*
X005846Y004100D01*
X005846Y004198D02*
X005830Y004198D01*
X005830Y004297D02*
X005846Y004297D01*
X005846Y004395D02*
X005830Y004395D01*
X005779Y004494D02*
X005897Y004494D01*
X005761Y004592D02*
X006423Y004592D01*
X006423Y004494D02*
X006291Y004494D01*
X006342Y004395D02*
X006423Y004395D01*
X006423Y004297D02*
X006342Y004297D01*
X006342Y004198D02*
X006423Y004198D01*
X006423Y004100D02*
X006342Y004100D01*
X006342Y004001D02*
X006423Y004001D01*
X006423Y003903D02*
X006342Y003903D01*
X006342Y003804D02*
X006423Y003804D01*
X006423Y003706D02*
X006342Y003706D01*
X006342Y003607D02*
X006423Y003607D01*
X006391Y003509D02*
X006342Y003509D01*
X006163Y003651D02*
X006163Y003191D01*
X005972Y003191D01*
X005793Y003360D01*
X005798Y003365D01*
X005768Y003210D02*
X006072Y003210D01*
X006163Y003191D01*
X006163Y003651D02*
X006094Y003720D01*
X006094Y004220D01*
X005815Y004691D02*
X006415Y004691D01*
X005601Y003607D02*
X005563Y003607D01*
X005563Y003509D02*
X005589Y003509D01*
X005587Y003506D02*
X005587Y003506D01*
X005544Y003410D02*
X005544Y003369D01*
X005457Y003369D01*
X005457Y003200D01*
X005419Y003200D01*
X005419Y003369D01*
X005251Y003369D01*
X005232Y003361D01*
X005218Y003347D01*
X005211Y003329D01*
X005211Y003254D01*
X005204Y003261D01*
X005112Y003299D01*
X005013Y003299D01*
X004933Y003266D01*
X004933Y003334D01*
X004925Y003353D01*
X004914Y003364D01*
X004925Y003375D01*
X004933Y003393D01*
X004933Y003462D02*
X004933Y003531D01*
X004925Y003550D01*
X004911Y003564D01*
X004893Y003571D01*
X004725Y003571D01*
X004725Y003462D01*
X004725Y003462D01*
X004725Y003462D01*
X004933Y003462D01*
X004933Y003509D02*
X005408Y003509D01*
X005419Y003312D02*
X005457Y003312D01*
X005457Y003213D02*
X005419Y003213D01*
X005419Y003162D02*
X005457Y003162D01*
X005457Y002993D01*
X005578Y002993D01*
X005578Y002917D01*
X005467Y002917D01*
X005447Y002937D01*
X005446Y002937D01*
X005445Y002937D01*
X005380Y002936D01*
X005314Y002935D01*
X005313Y002935D01*
X005313Y002935D01*
X005296Y002917D01*
X005277Y002917D01*
X005309Y002993D01*
X005419Y002993D01*
X005419Y003162D01*
X005419Y003115D02*
X005457Y003115D01*
X005457Y003016D02*
X005419Y003016D01*
X005466Y002918D02*
X005578Y002918D01*
X005438Y002669D02*
X005388Y002470D01*
X005382Y002776D01*
X005388Y002176D01*
X005394Y002070D01*
X005618Y002070D01*
X005738Y002190D01*
X005738Y003180D01*
X005768Y003210D01*
X006078Y002704D02*
X006163Y002679D01*
X006163Y002345D01*
X006098Y002280D01*
X006088Y002290D01*
X006078Y002310D02*
X006078Y002704D01*
X006323Y002431D02*
X006323Y002388D01*
X006347Y002330D01*
X006347Y002230D01*
X006309Y002139D01*
X006239Y002069D01*
X006147Y002031D01*
X006048Y002031D01*
X006148Y002031D02*
X006414Y002031D01*
X006404Y002041D02*
X006428Y002017D01*
X006428Y001918D01*
X006393Y001834D02*
X005628Y001834D01*
X005388Y002176D02*
X005388Y002470D01*
X005151Y002620D02*
X005151Y002817D01*
X005112Y002801D01*
X005013Y002801D01*
X004941Y002831D01*
X004993Y002779D01*
X004993Y002620D01*
X005151Y002620D01*
X005151Y002622D02*
X004993Y002622D01*
X004993Y002721D02*
X005151Y002721D01*
X005278Y002918D02*
X005296Y002918D01*
X005211Y003312D02*
X004933Y003312D01*
X004725Y003312D02*
X004725Y003312D01*
X004725Y003410D02*
X004725Y003410D01*
X004725Y003509D02*
X004725Y003509D01*
X004725Y004001D02*
X004763Y004001D01*
X004763Y004100D02*
X004725Y004100D01*
X004725Y004198D02*
X004763Y004198D01*
X004763Y004297D02*
X004725Y004297D01*
X004725Y004395D02*
X004763Y004395D01*
X004591Y004395D02*
X004477Y004395D01*
X004480Y004297D02*
X004556Y004297D01*
X004556Y004198D02*
X004480Y004198D01*
X004480Y004100D02*
X004556Y004100D01*
X004232Y004170D02*
X004232Y003709D01*
X004233Y003757D01*
X003889Y003115D02*
X003505Y003115D01*
X003604Y003016D02*
X003854Y003016D01*
X003859Y002918D02*
X003702Y002918D01*
X004488Y002470D02*
X004733Y002470D01*
X004725Y002478D01*
X004953Y002819D02*
X004970Y002819D01*
X005130Y002228D02*
X005146Y002228D01*
X005146Y002130D02*
X005130Y002130D01*
X005130Y002031D02*
X005146Y002031D01*
X005146Y001933D02*
X005130Y001933D01*
X005116Y001834D02*
X005159Y001834D01*
X005035Y001736D02*
X006382Y001736D01*
X006382Y001637D02*
X005058Y001637D01*
X005126Y001539D02*
X006382Y001539D01*
X006382Y001440D02*
X005142Y001440D01*
X005117Y001342D02*
X006382Y001342D01*
X006394Y001243D02*
X005038Y001243D01*
X004882Y002070D02*
X004543Y002070D01*
X004430Y002183D01*
X006300Y002130D02*
X006367Y002130D01*
X006351Y002169D02*
X006404Y002041D01*
X006351Y002169D02*
X006351Y002431D01*
X006323Y002431D01*
X006323Y002425D02*
X006351Y002425D01*
X006347Y002327D02*
X006351Y002327D01*
X006346Y002228D02*
X006351Y002228D01*
X006435Y001145D02*
X002283Y001145D01*
X007363Y003706D02*
X007363Y003888D01*
X007553Y003888D01*
X007553Y004094D01*
X007653Y004094D01*
X007653Y003888D01*
X008046Y003888D01*
X008064Y003895D01*
X008078Y003909D01*
X008086Y003928D01*
X008086Y004094D01*
X007653Y004094D01*
X007653Y004194D01*
X008086Y004194D01*
X008086Y004361D01*
X008078Y004379D01*
X008064Y004393D01*
X008046Y004401D01*
X007653Y004401D01*
X007653Y004194D01*
X007553Y004194D01*
X007553Y004401D01*
X007534Y004401D01*
X007558Y004459D01*
X007558Y004697D01*
X008443Y004696D01*
X008485Y004654D01*
X008652Y004585D01*
X008833Y004585D01*
X009001Y004654D01*
X009042Y004695D01*
X009112Y004695D01*
X009113Y001140D01*
X007453Y001136D01*
X007461Y001145D01*
X007515Y001274D01*
X007515Y001293D01*
X007569Y001293D01*
X007569Y001492D01*
X007666Y001492D01*
X007666Y001588D01*
X007884Y001588D01*
X007884Y001747D01*
X007876Y001765D01*
X007862Y001779D01*
X007844Y001787D01*
X007666Y001787D01*
X007666Y001588D01*
X007569Y001588D01*
X007569Y001787D01*
X007515Y001787D01*
X007515Y001806D01*
X007461Y001935D01*
X007374Y002023D01*
X007391Y002041D01*
X007402Y002067D01*
X007454Y002016D01*
X007560Y001972D01*
X007675Y001972D01*
X007781Y002016D01*
X007862Y002097D01*
X007866Y002105D01*
X007907Y002064D01*
X007998Y002026D01*
X008097Y002026D01*
X008189Y002064D01*
X008259Y002134D01*
X008297Y002225D01*
X008297Y002325D01*
X008259Y002416D01*
X008189Y002486D01*
X008097Y002524D01*
X007998Y002524D01*
X007907Y002486D01*
X007854Y002433D01*
X007781Y002506D01*
X007675Y002550D01*
X007560Y002550D01*
X007454Y002506D01*
X007445Y002497D01*
X007445Y002675D01*
X007454Y002666D01*
X007560Y002622D01*
X007675Y002622D01*
X007781Y002666D01*
X007862Y002747D01*
X007864Y002751D01*
X007870Y002751D01*
X007912Y002709D01*
X008003Y002671D01*
X008102Y002671D01*
X008194Y002709D01*
X008264Y002779D01*
X008272Y002799D01*
X008293Y002747D01*
X008375Y002666D01*
X008481Y002622D01*
X008596Y002622D01*
X008702Y002666D01*
X008784Y002747D01*
X008828Y002853D01*
X008828Y002968D01*
X008784Y003075D01*
X008702Y003156D01*
X008596Y003200D01*
X008481Y003200D01*
X008375Y003156D01*
X008293Y003075D01*
X008276Y003032D01*
X008264Y003061D01*
X008194Y003131D01*
X008102Y003169D01*
X008003Y003169D01*
X007912Y003131D01*
X007859Y003078D01*
X007781Y003156D01*
X007675Y003200D01*
X007560Y003200D01*
X007454Y003156D01*
X007445Y003147D01*
X007445Y003322D01*
X007452Y003315D01*
X007558Y003271D01*
X007673Y003271D01*
X007779Y003315D01*
X007860Y003397D01*
X007861Y003399D01*
X007892Y003369D01*
X007983Y003331D01*
X008082Y003331D01*
X008174Y003369D01*
X008244Y003439D01*
X008260Y003478D01*
X008293Y003397D01*
X008375Y003315D01*
X008481Y003271D01*
X008596Y003271D01*
X008702Y003315D01*
X008784Y003397D01*
X008828Y003503D01*
X008828Y003618D01*
X008784Y003724D01*
X008702Y003806D01*
X008596Y003850D01*
X008481Y003850D01*
X008375Y003806D01*
X008293Y003724D01*
X008268Y003663D01*
X008244Y003721D01*
X008174Y003791D01*
X008082Y003829D01*
X007983Y003829D01*
X007892Y003791D01*
X007843Y003742D01*
X007779Y003806D01*
X007673Y003850D01*
X007558Y003850D01*
X007452Y003806D01*
X007370Y003724D01*
X007363Y003706D01*
X007363Y003804D02*
X007450Y003804D01*
X007553Y003903D02*
X007653Y003903D01*
X007653Y004001D02*
X007553Y004001D01*
X007653Y004100D02*
X009112Y004100D01*
X009112Y004198D02*
X008086Y004198D01*
X008086Y004297D02*
X009112Y004297D01*
X009112Y004395D02*
X008060Y004395D01*
X008086Y004001D02*
X009112Y004001D01*
X009112Y003903D02*
X008072Y003903D01*
X008143Y003804D02*
X008373Y003804D01*
X008286Y003706D02*
X008250Y003706D01*
X008215Y003410D02*
X008288Y003410D01*
X008384Y003312D02*
X007770Y003312D01*
X007823Y003115D02*
X007895Y003115D01*
X008053Y002920D02*
X008053Y002911D01*
X007617Y002911D01*
X007559Y002622D02*
X007445Y002622D01*
X007445Y002524D02*
X007495Y002524D01*
X007613Y002261D02*
X007613Y002250D01*
X007617Y002261D02*
X007613Y002261D01*
X007740Y002524D02*
X007997Y002524D01*
X008099Y002524D02*
X009112Y002524D01*
X009112Y002622D02*
X008597Y002622D01*
X008578Y002487D02*
X008605Y002482D01*
X008647Y002464D01*
X008685Y002439D01*
X008717Y002407D01*
X008742Y002370D01*
X008759Y002328D01*
X008764Y002301D01*
X008578Y002301D01*
X008499Y002301D01*
X008499Y002487D01*
X008472Y002482D01*
X008430Y002464D01*
X008393Y002439D01*
X008361Y002407D01*
X008336Y002370D01*
X008318Y002328D01*
X008313Y002301D01*
X008499Y002301D01*
X008499Y002222D01*
X008313Y002222D01*
X008318Y002194D01*
X008336Y002153D01*
X008361Y002115D01*
X008393Y002083D01*
X008430Y002058D01*
X008472Y002041D01*
X008499Y002036D01*
X008499Y002222D01*
X008578Y002222D01*
X008578Y002301D01*
X008578Y002487D01*
X008578Y002425D02*
X008499Y002425D01*
X008499Y002327D02*
X008578Y002327D01*
X008539Y002261D02*
X008539Y002246D01*
X008528Y002235D01*
X008498Y002235D01*
X008493Y002240D01*
X008538Y002240D01*
X008499Y002228D02*
X008297Y002228D01*
X008296Y002327D02*
X008318Y002327D01*
X008378Y002425D02*
X008250Y002425D01*
X008206Y002721D02*
X008320Y002721D01*
X008480Y002622D02*
X007676Y002622D01*
X007836Y002721D02*
X007900Y002721D01*
X008210Y003115D02*
X008333Y003115D01*
X008693Y003312D02*
X009112Y003312D01*
X009112Y003410D02*
X008789Y003410D01*
X008828Y003509D02*
X009112Y003509D01*
X009112Y003607D02*
X008828Y003607D01*
X008791Y003706D02*
X009112Y003706D01*
X009112Y003804D02*
X008704Y003804D01*
X008744Y003115D02*
X009112Y003115D01*
X009112Y003213D02*
X007445Y003213D01*
X007445Y003312D02*
X007461Y003312D01*
X007615Y003560D02*
X007998Y003560D01*
X008033Y003580D01*
X007923Y003804D02*
X007781Y003804D01*
X007653Y004198D02*
X007553Y004198D01*
X007553Y004297D02*
X007653Y004297D01*
X007653Y004395D02*
X007553Y004395D01*
X007558Y004494D02*
X009112Y004494D01*
X009112Y004592D02*
X008850Y004592D01*
X009037Y004691D02*
X009112Y004691D01*
X008635Y004592D02*
X007558Y004592D01*
X007558Y004691D02*
X008449Y004691D01*
X008808Y003016D02*
X009112Y003016D01*
X009112Y002918D02*
X008828Y002918D01*
X008814Y002819D02*
X009112Y002819D01*
X009112Y002721D02*
X008757Y002721D01*
X008699Y002425D02*
X009112Y002425D01*
X009112Y002327D02*
X008759Y002327D01*
X008764Y002222D02*
X008578Y002222D01*
X008578Y002036D01*
X008605Y002041D01*
X008647Y002058D01*
X008685Y002083D01*
X008717Y002115D01*
X008742Y002153D01*
X008759Y002194D01*
X008764Y002222D01*
X008726Y002130D02*
X009112Y002130D01*
X009112Y002228D02*
X008578Y002228D01*
X008578Y002130D02*
X008499Y002130D01*
X008351Y002130D02*
X008255Y002130D01*
X008110Y002031D02*
X009112Y002031D01*
X009112Y001933D02*
X007462Y001933D01*
X007439Y002031D02*
X007382Y002031D01*
X007503Y001834D02*
X009112Y001834D01*
X009112Y001736D02*
X007884Y001736D01*
X007884Y001637D02*
X009112Y001637D01*
X009112Y001539D02*
X007666Y001539D01*
X007666Y001492D02*
X007884Y001492D01*
X007884Y001333D01*
X007876Y001315D01*
X007862Y001301D01*
X007844Y001293D01*
X007666Y001293D01*
X007666Y001492D01*
X007666Y001440D02*
X007569Y001440D01*
X007569Y001342D02*
X007666Y001342D01*
X007502Y001243D02*
X009112Y001243D01*
X009113Y001145D02*
X007461Y001145D01*
X007569Y001637D02*
X007666Y001637D01*
X007666Y001736D02*
X007569Y001736D01*
X007796Y002031D02*
X007986Y002031D01*
X007884Y001440D02*
X009112Y001440D01*
X009112Y001342D02*
X007884Y001342D01*
D40*
X004983Y008820D02*
X003813Y008820D01*
X003340Y008347D01*
X002940Y008347D01*
X004983Y008820D02*
X005343Y009180D01*
X005343Y010140D01*
X005443Y010240D01*
X004933Y012309D02*
X005007Y012383D01*
X004908Y013090D02*
X005587Y013769D01*
X005597Y013769D01*
X005173Y015520D02*
X005243Y015590D01*
X005243Y015987D01*
X005173Y015520D02*
X004217Y015520D01*
X004193Y015475D01*
X004193Y016050D01*
X004033Y016210D01*
X003427Y016210D01*
X002758Y016210D02*
X002728Y016240D01*
X002503Y016240D01*
X002363Y016380D01*
X002293Y016380D01*
X002723Y016210D02*
X002758Y016210D01*
X004062Y012383D02*
X004062Y012011D01*
X004148Y011925D01*
X005755Y015947D02*
X005755Y015987D01*
M02*
