G75*
%MOIN*%
%OFA0B0*%
%FSLAX24Y24*%
%IPPOS*%
%LPD*%
%AMOC8*
5,1,8,0,0,1.08239X$1,22.5*
%
%ADD10R,0.0433X0.0394*%
%ADD11R,0.0157X0.0531*%
%ADD12R,0.0591X0.0748*%
%ADD13R,0.0472X0.0472*%
%ADD14R,0.0472X0.0276*%
%ADD15R,0.0276X0.0472*%
%ADD16R,0.0945X0.0748*%
%ADD17R,0.0256X0.0492*%
%ADD18R,0.0394X0.0433*%
%ADD19R,0.0315X0.0315*%
%ADD20R,0.0433X0.0551*%
%ADD21R,0.0866X0.0413*%
%ADD22R,0.0413X0.0394*%
%ADD23R,0.0394X0.0591*%
%ADD24R,0.0315X0.0118*%
%ADD25R,0.0118X0.0315*%
%ADD26R,0.0354X0.0276*%
%ADD27R,0.0276X0.0354*%
%ADD28C,0.0358*%
%ADD29R,0.1050X0.0900*%
%ADD30R,0.0300X0.0500*%
D10*
X006948Y001540D03*
X007617Y001540D03*
X007192Y013090D03*
X006523Y013090D03*
X006268Y014785D03*
X006268Y015455D03*
X004193Y015475D03*
X004193Y014805D03*
X003927Y013090D03*
X003258Y013090D03*
D11*
X004731Y015987D03*
X004987Y015987D03*
X005243Y015987D03*
X005499Y015987D03*
X005755Y015987D03*
D12*
X005637Y017040D03*
X004849Y017036D03*
D13*
X002940Y012383D03*
X002940Y006674D03*
X007546Y006674D03*
X007546Y012383D03*
D14*
X007546Y011654D03*
X007546Y011182D03*
X007546Y010709D03*
X007546Y010237D03*
X007546Y009764D03*
X007546Y009292D03*
X007546Y008820D03*
X007546Y008347D03*
X007546Y007875D03*
X007546Y007402D03*
X002940Y007402D03*
X002940Y007875D03*
X002940Y008347D03*
X002940Y008820D03*
X002940Y009292D03*
X002940Y009764D03*
X002940Y010237D03*
X002940Y010709D03*
X002940Y011182D03*
X002940Y011654D03*
D15*
X003589Y012383D03*
X004062Y012383D03*
X004534Y012383D03*
X005007Y012383D03*
X005479Y012383D03*
X005951Y012383D03*
X006424Y012383D03*
X006896Y012383D03*
X006896Y006674D03*
X006424Y006674D03*
X005951Y006674D03*
X005479Y006674D03*
X005007Y006674D03*
X004534Y006674D03*
X004062Y006674D03*
X003589Y006674D03*
D16*
X004396Y008111D03*
X004396Y009528D03*
X004396Y010946D03*
X006089Y010946D03*
X006089Y009528D03*
X006089Y008111D03*
D17*
X006943Y013927D03*
X007553Y013927D03*
X007553Y015403D03*
X006943Y015403D03*
X003548Y015428D03*
X002938Y015428D03*
X002938Y013952D03*
X003548Y013952D03*
D18*
X004908Y013090D03*
X005577Y013090D03*
X003427Y016210D03*
X002758Y016210D03*
X006898Y003125D03*
X006898Y002455D03*
D19*
X007388Y017195D03*
X007978Y017195D03*
D20*
X005597Y014911D03*
X004888Y014911D03*
X004888Y013769D03*
X005597Y013769D03*
D21*
X007603Y005306D03*
X007603Y004144D03*
D22*
X007001Y004725D03*
D23*
X006938Y000530D03*
X003788Y000530D03*
D24*
X003150Y002478D03*
X003150Y002675D03*
X003150Y002872D03*
X003150Y003068D03*
X003150Y003265D03*
X003150Y003462D03*
X004725Y003462D03*
X004725Y003265D03*
X004725Y003068D03*
X004725Y002872D03*
X004725Y002675D03*
X004725Y002478D03*
D25*
X004430Y002183D03*
X004233Y002183D03*
X004036Y002183D03*
X003839Y002183D03*
X003643Y002183D03*
X003446Y002183D03*
X003446Y003757D03*
X003643Y003757D03*
X003839Y003757D03*
X004036Y003757D03*
X004233Y003757D03*
X004430Y003757D03*
D26*
X005438Y003181D03*
X005438Y002669D03*
X006163Y002679D03*
X006163Y003191D03*
D27*
X006094Y003720D03*
X006094Y004220D03*
X005582Y004220D03*
X005582Y003720D03*
X004744Y004170D03*
X004232Y004170D03*
X004882Y002070D03*
X005394Y002070D03*
X004334Y001600D03*
X003822Y001600D03*
D28*
X007617Y002261D03*
X007617Y002911D03*
X007615Y003560D03*
X008539Y003560D03*
X008539Y002911D03*
X008539Y002261D03*
D29*
X002363Y017120D03*
D30*
X003288Y017120D03*
M02*
