G75*
%MOIN*%
%OFA0B0*%
%FSLAX24Y24*%
%IPPOS*%
%LPD*%
%AMOC8*
5,1,8,0,0,1.08239X$1,22.5*
%
%ADD10C,0.0434*%
%ADD11R,0.0513X0.0828*%
%ADD12R,0.0474X0.0513*%
%ADD13C,0.0316*%
%ADD14C,0.0517*%
%ADD15R,0.0159X0.0474*%
%ADD16R,0.0474X0.0159*%
%ADD17R,0.0513X0.0474*%
%ADD18R,0.0300X0.0670*%
%ADD19R,0.0198X0.0470*%
%ADD20R,0.0828X0.0513*%
%ADD21R,0.0580X0.0830*%
%ADD22R,0.1580X0.0830*%
%ADD23R,0.0316X0.0395*%
%ADD24R,0.0277X0.0395*%
%ADD25R,0.0631X0.0710*%
%ADD26C,0.0770*%
%ADD27C,0.0720*%
%ADD28R,0.0218X0.0178*%
%ADD29R,0.0178X0.0218*%
%ADD30R,0.0257X0.0198*%
D10*
X004153Y017045D03*
X006338Y017050D03*
D11*
X003946Y008618D03*
X003946Y007162D03*
X003040Y007162D03*
X003040Y008618D03*
D12*
X003243Y009405D03*
X003243Y010075D03*
X003427Y013740D03*
X003427Y014390D03*
X002758Y014390D03*
X002758Y013740D03*
X002803Y017060D03*
X002227Y017090D03*
X001558Y017090D03*
X003472Y017060D03*
X007793Y011875D03*
X007793Y011205D03*
X005643Y006375D03*
X005643Y005705D03*
X004993Y005705D03*
X004993Y006375D03*
X004343Y006375D03*
X004343Y005705D03*
X003693Y005705D03*
X003693Y006375D03*
X003043Y006375D03*
X003043Y005705D03*
D13*
X004475Y016213D03*
X006011Y016213D03*
D14*
X006335Y016822D02*
X006335Y017258D01*
X004150Y017258D02*
X004150Y016822D01*
D15*
G36*
X005841Y013781D02*
X005953Y013669D01*
X005619Y013335D01*
X005507Y013447D01*
X005841Y013781D01*
G37*
G36*
X005980Y013642D02*
X006092Y013530D01*
X005758Y013196D01*
X005646Y013308D01*
X005980Y013642D01*
G37*
G36*
X006119Y013503D02*
X006231Y013391D01*
X005897Y013057D01*
X005785Y013169D01*
X006119Y013503D01*
G37*
G36*
X006259Y013364D02*
X006371Y013252D01*
X006037Y012918D01*
X005925Y013030D01*
X006259Y013364D01*
G37*
G36*
X006398Y013225D02*
X006510Y013113D01*
X006176Y012779D01*
X006064Y012891D01*
X006398Y013225D01*
G37*
G36*
X006537Y013085D02*
X006649Y012973D01*
X006315Y012639D01*
X006203Y012751D01*
X006537Y013085D01*
G37*
G36*
X006676Y012946D02*
X006788Y012834D01*
X006454Y012500D01*
X006342Y012612D01*
X006676Y012946D01*
G37*
G36*
X006815Y012807D02*
X006927Y012695D01*
X006593Y012361D01*
X006481Y012473D01*
X006815Y012807D01*
G37*
G36*
X006955Y012668D02*
X007067Y012556D01*
X006733Y012222D01*
X006621Y012334D01*
X006955Y012668D01*
G37*
G36*
X007094Y012529D02*
X007206Y012417D01*
X006872Y012083D01*
X006760Y012195D01*
X007094Y012529D01*
G37*
G36*
X007233Y012389D02*
X007345Y012277D01*
X007011Y011943D01*
X006899Y012055D01*
X007233Y012389D01*
G37*
G36*
X007372Y012250D02*
X007484Y012138D01*
X007150Y011804D01*
X007038Y011916D01*
X007372Y012250D01*
G37*
G36*
X004867Y009745D02*
X004979Y009633D01*
X004645Y009299D01*
X004533Y009411D01*
X004867Y009745D01*
G37*
G36*
X004727Y009884D02*
X004839Y009772D01*
X004505Y009438D01*
X004393Y009550D01*
X004727Y009884D01*
G37*
G36*
X004588Y010023D02*
X004700Y009911D01*
X004366Y009577D01*
X004254Y009689D01*
X004588Y010023D01*
G37*
G36*
X004449Y010162D02*
X004561Y010050D01*
X004227Y009716D01*
X004115Y009828D01*
X004449Y010162D01*
G37*
G36*
X004310Y010301D02*
X004422Y010189D01*
X004088Y009855D01*
X003976Y009967D01*
X004310Y010301D01*
G37*
G36*
X004171Y010441D02*
X004283Y010329D01*
X003949Y009995D01*
X003837Y010107D01*
X004171Y010441D01*
G37*
G36*
X004031Y010580D02*
X004143Y010468D01*
X003809Y010134D01*
X003697Y010246D01*
X004031Y010580D01*
G37*
G36*
X003892Y010719D02*
X004004Y010607D01*
X003670Y010273D01*
X003558Y010385D01*
X003892Y010719D01*
G37*
G36*
X003753Y010858D02*
X003865Y010746D01*
X003531Y010412D01*
X003419Y010524D01*
X003753Y010858D01*
G37*
G36*
X003614Y010997D02*
X003726Y010885D01*
X003392Y010551D01*
X003280Y010663D01*
X003614Y010997D01*
G37*
G36*
X003475Y011137D02*
X003587Y011025D01*
X003253Y010691D01*
X003141Y010803D01*
X003475Y011137D01*
G37*
G36*
X003335Y011276D02*
X003447Y011164D01*
X003113Y010830D01*
X003001Y010942D01*
X003335Y011276D01*
G37*
D16*
G36*
X003113Y012250D02*
X003447Y011916D01*
X003335Y011804D01*
X003001Y012138D01*
X003113Y012250D01*
G37*
G36*
X003253Y012389D02*
X003587Y012055D01*
X003475Y011943D01*
X003141Y012277D01*
X003253Y012389D01*
G37*
G36*
X003392Y012529D02*
X003726Y012195D01*
X003614Y012083D01*
X003280Y012417D01*
X003392Y012529D01*
G37*
G36*
X003531Y012668D02*
X003865Y012334D01*
X003753Y012222D01*
X003419Y012556D01*
X003531Y012668D01*
G37*
G36*
X003670Y012807D02*
X004004Y012473D01*
X003892Y012361D01*
X003558Y012695D01*
X003670Y012807D01*
G37*
G36*
X003809Y012946D02*
X004143Y012612D01*
X004031Y012500D01*
X003697Y012834D01*
X003809Y012946D01*
G37*
G36*
X003949Y013085D02*
X004283Y012751D01*
X004171Y012639D01*
X003837Y012973D01*
X003949Y013085D01*
G37*
G36*
X004088Y013225D02*
X004422Y012891D01*
X004310Y012779D01*
X003976Y013113D01*
X004088Y013225D01*
G37*
G36*
X004227Y013364D02*
X004561Y013030D01*
X004449Y012918D01*
X004115Y013252D01*
X004227Y013364D01*
G37*
G36*
X004366Y013503D02*
X004700Y013169D01*
X004588Y013057D01*
X004254Y013391D01*
X004366Y013503D01*
G37*
G36*
X004505Y013642D02*
X004839Y013308D01*
X004727Y013196D01*
X004393Y013530D01*
X004505Y013642D01*
G37*
G36*
X004645Y013781D02*
X004979Y013447D01*
X004867Y013335D01*
X004533Y013669D01*
X004645Y013781D01*
G37*
G36*
X006454Y010580D02*
X006788Y010246D01*
X006676Y010134D01*
X006342Y010468D01*
X006454Y010580D01*
G37*
G36*
X006593Y010719D02*
X006927Y010385D01*
X006815Y010273D01*
X006481Y010607D01*
X006593Y010719D01*
G37*
G36*
X006733Y010858D02*
X007067Y010524D01*
X006955Y010412D01*
X006621Y010746D01*
X006733Y010858D01*
G37*
G36*
X006872Y010997D02*
X007206Y010663D01*
X007094Y010551D01*
X006760Y010885D01*
X006872Y010997D01*
G37*
G36*
X007011Y011137D02*
X007345Y010803D01*
X007233Y010691D01*
X006899Y011025D01*
X007011Y011137D01*
G37*
G36*
X007150Y011276D02*
X007484Y010942D01*
X007372Y010830D01*
X007038Y011164D01*
X007150Y011276D01*
G37*
G36*
X006315Y010441D02*
X006649Y010107D01*
X006537Y009995D01*
X006203Y010329D01*
X006315Y010441D01*
G37*
G36*
X006176Y010301D02*
X006510Y009967D01*
X006398Y009855D01*
X006064Y010189D01*
X006176Y010301D01*
G37*
G36*
X006037Y010162D02*
X006371Y009828D01*
X006259Y009716D01*
X005925Y010050D01*
X006037Y010162D01*
G37*
G36*
X005897Y010023D02*
X006231Y009689D01*
X006119Y009577D01*
X005785Y009911D01*
X005897Y010023D01*
G37*
G36*
X005758Y009884D02*
X006092Y009550D01*
X005980Y009438D01*
X005646Y009772D01*
X005758Y009884D01*
G37*
G36*
X005619Y009745D02*
X005953Y009411D01*
X005841Y009299D01*
X005507Y009633D01*
X005619Y009745D01*
G37*
D17*
X005577Y008990D03*
X005643Y007875D03*
X005643Y007205D03*
X004908Y008990D03*
X004908Y014010D03*
X005577Y014010D03*
X006883Y015840D03*
X007358Y016325D03*
X007552Y015840D03*
X008027Y016325D03*
X003427Y015090D03*
X002758Y015090D03*
D18*
X006293Y008830D03*
X006793Y008830D03*
X007293Y008830D03*
X007793Y008830D03*
X007793Y005950D03*
X007293Y005950D03*
X006793Y005950D03*
X006293Y005950D03*
D19*
X003349Y015775D03*
X003093Y015775D03*
X002837Y015775D03*
X002837Y016409D03*
X003093Y016409D03*
X003349Y016409D03*
D20*
X004793Y008232D03*
X004793Y007248D03*
D21*
X005243Y014720D03*
X006153Y014720D03*
X004333Y014720D03*
D22*
X005243Y017160D03*
D23*
X007026Y014045D03*
X007026Y013455D03*
X008030Y013455D03*
X008030Y014045D03*
D24*
X007685Y014045D03*
X007370Y014045D03*
X007370Y013455D03*
X007685Y013455D03*
D25*
X007142Y017040D03*
X008244Y017040D03*
D26*
X008743Y016040D03*
X008743Y015040D03*
X008743Y014040D03*
X008743Y013040D03*
X008743Y012040D03*
X008743Y011040D03*
X008743Y010040D03*
X008743Y009040D03*
X008743Y008040D03*
X008743Y007040D03*
X008743Y006040D03*
X008743Y005040D03*
X001743Y005040D03*
X001743Y006040D03*
X001743Y007040D03*
X001743Y008040D03*
X001743Y009040D03*
X001743Y010040D03*
X001743Y011040D03*
X001743Y012040D03*
X001743Y013040D03*
X001743Y014040D03*
X001743Y015040D03*
X001743Y016040D03*
D27*
X001743Y002040D03*
X001743Y003040D03*
X001743Y004040D03*
D28*
X003450Y003364D03*
X003450Y003167D03*
X003450Y002971D03*
X003450Y002774D03*
X003450Y002577D03*
X004415Y002577D03*
X004415Y002774D03*
X004415Y002971D03*
X004415Y003167D03*
X004415Y003364D03*
D29*
X004129Y003453D03*
X003932Y003453D03*
X003735Y003453D03*
X003735Y002488D03*
X003932Y002488D03*
X004129Y002488D03*
D30*
X006781Y014918D03*
X006781Y015312D03*
X007313Y015312D03*
X007313Y015115D03*
X007313Y014918D03*
M02*
